<svg width="1920" height="326" viewBox="0 0 1920 326" fill="none" xmlns="http://www.w3.org/2000/svg">
<path d="M35.3328 273.768C40.2222 278.744 44.8191 283.508 49.5405 288.148C50.2994 288.893 51.6119 289.08 52.6756 289.527C52.1593 288.459 51.8794 287.173 51.0956 286.359C47.2949 282.402 43.3573 278.57 39.4757 274.687C38.6857 273.899 37.933 273.072 37.2985 272.408C40.6203 269.122 43.743 266.035 47.2078 262.606C51.4813 266.929 55.9165 271.538 60.5259 275.961C61.4901 276.886 62.1184 279.433 64.2396 277.694C64.4075 277.557 63.1572 275.234 62.2055 274.277C57.6956 269.743 53.0613 265.333 47.5562 259.984C49.4161 258.661 51.1516 257.959 52.0101 256.674C52.8436 255.419 53.503 253.17 52.9058 252.089C52.3211 251.033 50.007 250.325 48.5514 250.468C45.3728 250.773 44.3153 250.319 44.4024 247.046C44.4832 243.977 43.264 241.71 41.1739 239.641C34.0328 232.573 26.96 225.435 19.8313 218.354C16.8517 215.397 15.2592 215.428 12.2485 218.416C5.78539 224.839 -0.671504 231.274 -7.10352 237.741C-9.96496 240.617 -9.96497 242.188 -7.09109 245.07C0.149596 252.332 7.46493 259.519 14.6683 266.817C16.6215 268.793 18.7676 269.755 21.5544 269.743C24.957 269.73 25.4111 270.724 25.0254 274.085C24.8699 275.451 25.5853 277.619 26.6179 278.228C27.6381 278.837 29.61 278.116 31.0531 277.638C31.8494 277.371 32.4154 276.408 33.0935 275.768C33.6906 275.24 34.3002 274.7 35.3328 273.768Z" fill="#1F8CC4"/>
<path d="M735.49 273.768C740.379 278.744 744.976 283.508 749.698 288.148C750.457 288.893 751.769 289.08 752.833 289.527C752.317 288.459 752.037 287.173 751.253 286.359C747.452 282.402 743.515 278.57 739.633 274.687C738.843 273.899 738.09 273.072 737.456 272.408C740.778 269.122 743.9 266.035 747.365 262.606C751.639 266.929 756.074 271.538 760.683 275.961C761.647 276.886 762.276 279.433 764.397 277.694C764.565 277.557 763.314 275.234 762.363 274.277C757.853 269.743 753.219 265.333 747.713 259.984C749.573 258.661 751.309 257.959 752.167 256.674C753.001 255.419 753.66 253.17 753.063 252.089C752.478 251.033 750.164 250.325 748.709 250.468C745.53 250.773 744.472 250.319 744.56 247.046C744.64 243.977 743.421 241.71 741.331 239.641C734.19 232.573 727.117 225.435 719.989 218.354C717.009 215.397 715.416 215.428 712.406 218.416C705.943 224.839 699.486 231.274 693.054 237.741C690.192 240.617 690.192 242.188 693.066 245.07C700.307 252.332 707.622 259.519 714.826 266.817C716.779 268.793 718.925 269.755 721.712 269.743C725.114 269.73 725.568 270.724 725.183 274.085C725.027 275.451 725.743 277.619 726.775 278.228C727.795 278.837 729.767 278.116 731.21 277.638C732.007 277.371 732.573 276.408 733.251 275.768C733.848 275.24 734.457 274.7 735.49 273.768Z" fill="#1F8CC4"/>
<path d="M1432.62 273.768C1437.51 278.744 1442.1 283.508 1446.82 288.148C1447.58 288.893 1448.9 289.08 1449.96 289.527C1449.44 288.459 1449.16 287.173 1448.38 286.359C1444.58 282.402 1440.64 278.57 1436.76 274.687C1435.97 273.899 1435.22 273.072 1434.58 272.408C1437.9 269.122 1441.03 266.035 1444.49 262.606C1448.77 266.929 1453.2 271.538 1457.81 275.961C1458.77 276.886 1459.4 279.433 1461.52 277.694C1461.69 277.557 1460.44 275.234 1459.49 274.277C1454.98 269.743 1450.35 265.333 1444.84 259.984C1446.7 258.661 1448.44 257.959 1449.29 256.674C1450.13 255.419 1450.79 253.17 1450.19 252.089C1449.61 251.033 1447.29 250.325 1445.84 250.468C1442.66 250.773 1441.6 250.319 1441.69 247.046C1441.77 243.977 1440.55 241.71 1438.46 239.641C1431.32 232.573 1424.24 225.435 1417.12 218.354C1414.14 215.397 1412.54 215.428 1409.53 218.416C1403.07 224.839 1396.61 231.274 1390.18 237.741C1387.32 240.617 1387.32 242.188 1390.19 245.07C1397.43 252.332 1404.75 259.519 1411.95 266.817C1413.91 268.793 1416.05 269.755 1418.84 269.743C1422.24 269.73 1422.7 270.724 1422.31 274.085C1422.15 275.451 1422.87 277.619 1423.9 278.228C1424.92 278.837 1426.89 278.116 1428.34 277.638C1429.13 277.371 1429.7 276.408 1430.38 275.768C1430.97 275.24 1431.58 274.7 1432.62 273.768Z" fill="#1F8CC4"/>
<path d="M384.969 273.768C389.858 278.744 394.455 283.508 399.176 288.148C399.935 288.893 401.248 289.08 402.311 289.527C401.795 288.459 401.515 287.173 400.731 286.359C396.931 282.402 392.993 278.57 389.111 274.687C388.321 273.899 387.569 273.072 386.934 272.408C390.256 269.122 393.379 266.035 396.844 262.606C401.117 266.929 405.552 271.538 410.162 275.961C411.126 276.886 411.754 279.433 413.875 277.694C414.043 277.557 412.793 275.234 411.841 274.277C407.331 269.743 402.697 265.333 397.192 259.984C399.052 258.661 400.787 257.959 401.646 256.674C402.479 255.419 403.139 253.17 402.542 252.089C401.957 251.033 399.643 250.325 398.187 250.468C395.008 250.773 393.951 250.319 394.038 247.046C394.119 243.977 392.9 241.71 390.81 239.641C383.668 232.573 376.596 225.435 369.467 218.354C366.487 215.397 364.895 215.428 361.884 218.416C355.421 224.839 348.964 231.274 342.532 237.741C339.671 240.617 339.671 242.188 342.545 245.07C349.785 252.332 357.101 259.519 364.304 266.817C366.257 268.793 368.403 269.755 371.19 269.743C374.593 269.73 375.047 270.724 374.661 274.085C374.506 275.451 375.221 277.619 376.254 278.228C377.274 278.837 379.246 278.116 380.689 277.638C381.485 277.371 382.051 276.408 382.729 275.768C383.326 275.24 383.936 274.7 384.969 273.768Z" fill="#1F8CC4"/>
<path d="M1085.12 273.768C1090.01 278.744 1094.61 283.508 1099.33 288.148C1100.09 288.893 1101.4 289.08 1102.47 289.527C1101.95 288.459 1101.67 287.173 1100.89 286.359C1097.09 282.402 1093.15 278.57 1089.27 274.687C1088.48 273.899 1087.73 273.072 1087.09 272.408C1090.41 269.122 1093.53 266.035 1097 262.606C1101.27 266.929 1105.71 271.538 1110.32 275.961C1111.28 276.886 1111.91 279.433 1114.03 277.694C1114.2 277.557 1112.95 275.234 1112 274.277C1107.49 269.743 1102.85 265.333 1097.35 259.984C1099.21 258.661 1100.94 257.959 1101.8 256.674C1102.64 255.419 1103.29 253.17 1102.7 252.089C1102.11 251.033 1099.8 250.325 1098.34 250.468C1095.16 250.773 1094.11 250.319 1094.19 247.046C1094.28 243.977 1093.06 241.71 1090.97 239.641C1083.82 232.573 1076.75 225.435 1069.62 218.354C1066.64 215.397 1065.05 215.428 1062.04 218.416C1055.58 224.839 1049.12 231.274 1042.69 237.741C1039.83 240.617 1039.83 242.188 1042.7 245.07C1049.94 252.332 1057.26 259.519 1064.46 266.817C1066.41 268.793 1068.56 269.755 1071.35 269.743C1074.75 269.73 1075.2 270.724 1074.82 274.085C1074.66 275.451 1075.38 277.619 1076.41 278.228C1077.43 278.837 1079.4 278.116 1080.85 277.638C1081.64 277.371 1082.21 276.408 1082.89 275.768C1083.48 275.24 1084.09 274.7 1085.12 273.768Z" fill="#1F8CC4"/>
<path d="M1782.25 273.768C1787.14 278.744 1791.74 283.508 1796.46 288.148C1797.22 288.893 1798.53 289.08 1799.59 289.527C1799.08 288.459 1798.8 287.173 1798.01 286.359C1794.21 282.402 1790.28 278.57 1786.39 274.687C1785.6 273.899 1784.85 273.072 1784.22 272.408C1787.54 269.122 1790.66 266.035 1794.13 262.606C1798.4 266.929 1802.84 271.538 1807.44 275.961C1808.41 276.886 1809.04 279.433 1811.16 277.694C1811.33 277.557 1810.08 275.234 1809.12 274.277C1804.61 269.743 1799.98 265.333 1794.48 259.984C1796.33 258.661 1798.07 257.959 1798.93 256.674C1799.76 255.419 1800.42 253.17 1799.82 252.089C1799.24 251.033 1796.93 250.325 1795.47 250.468C1792.29 250.773 1791.23 250.319 1791.32 247.046C1791.4 243.977 1790.18 241.71 1788.09 239.641C1780.95 232.573 1773.88 225.435 1766.75 218.354C1763.77 215.397 1762.18 215.428 1759.17 218.416C1752.7 224.839 1746.25 231.274 1739.82 237.741C1736.95 240.617 1736.95 242.188 1739.83 245.07C1747.07 252.332 1754.38 259.519 1761.59 266.817C1763.54 268.793 1765.69 269.755 1768.47 269.743C1771.88 269.73 1772.33 270.724 1771.94 274.085C1771.79 275.451 1772.5 277.619 1773.54 278.228C1774.56 278.837 1776.53 278.116 1777.97 277.638C1778.77 277.371 1779.33 276.408 1780.01 275.768C1780.61 275.24 1781.22 274.7 1782.25 273.768Z" fill="#1F8CC4"/>
<path d="M561.771 273.768C566.661 278.744 571.258 283.508 575.979 288.148C576.738 288.893 578.05 289.08 579.114 289.527C578.598 288.459 578.318 287.173 577.534 286.359C573.733 282.402 569.796 278.57 565.914 274.687C565.124 273.899 564.371 273.072 563.737 272.408C567.059 269.122 570.181 266.035 573.646 262.606C577.92 266.929 582.355 271.538 586.964 275.961C587.929 276.886 588.557 279.433 590.678 277.694C590.846 277.557 589.596 275.234 588.644 274.277C584.134 269.743 579.5 265.333 573.995 259.984C575.855 258.661 577.59 257.959 578.448 256.674C579.282 255.419 579.941 253.17 579.344 252.089C578.76 251.033 576.445 250.325 574.99 250.468C571.811 250.773 570.754 250.319 570.841 247.046C570.922 243.977 569.702 241.71 567.612 239.641C560.471 232.573 553.398 225.435 546.27 218.354C543.29 215.397 541.698 215.428 538.687 218.416C532.224 224.839 525.767 231.274 519.335 237.741C516.473 240.617 516.473 242.188 519.347 245.07C526.588 252.332 533.903 259.519 541.107 266.817C543.06 268.793 545.206 269.755 547.993 269.743C551.395 269.73 551.849 270.724 551.464 274.085C551.308 275.451 552.024 277.619 553.056 278.228C554.076 278.837 556.048 278.116 557.491 277.638C558.288 277.371 558.854 276.408 559.532 275.768C560.129 275.24 560.739 274.7 561.771 273.768Z" fill="#1F8CC4"/>
<path d="M1261.93 273.768C1266.82 278.744 1271.42 283.508 1276.14 288.148C1276.9 288.893 1278.21 289.08 1279.27 289.527C1278.76 288.459 1278.48 287.173 1277.69 286.359C1273.89 282.402 1269.95 278.57 1266.07 274.687C1265.28 273.899 1264.53 273.072 1263.9 272.408C1267.22 269.122 1270.34 266.035 1273.8 262.606C1278.08 266.929 1282.51 271.538 1287.12 275.961C1288.09 276.886 1288.72 279.433 1290.84 277.694C1291 277.557 1289.75 275.234 1288.8 274.277C1284.29 269.743 1279.66 265.333 1274.15 259.984C1276.01 258.661 1277.75 257.959 1278.61 256.674C1279.44 255.419 1280.1 253.17 1279.5 252.089C1278.92 251.033 1276.6 250.325 1275.15 250.468C1271.97 250.773 1270.91 250.319 1271 247.046C1271.08 243.977 1269.86 241.71 1267.77 239.641C1260.63 232.573 1253.56 225.435 1246.43 218.354C1243.45 215.397 1241.86 215.428 1238.85 218.416C1232.38 224.839 1225.93 231.274 1219.49 237.741C1216.63 240.617 1216.63 242.188 1219.51 245.07C1226.75 252.332 1234.06 259.519 1241.27 266.817C1243.22 268.793 1245.36 269.755 1248.15 269.743C1251.55 269.73 1252.01 270.724 1251.62 274.085C1251.47 275.451 1252.18 277.619 1253.21 278.228C1254.23 278.837 1256.21 278.116 1257.65 277.638C1258.45 277.371 1259.01 276.408 1259.69 275.768C1260.29 275.24 1260.9 274.7 1261.93 273.768Z" fill="#1F8CC4"/>
<path d="M1959.06 273.768C1963.95 278.744 1968.54 283.508 1973.26 288.148C1974.02 288.893 1975.34 289.08 1976.4 289.527C1975.88 288.459 1975.6 287.173 1974.82 286.359C1971.02 282.402 1967.08 278.57 1963.2 274.687C1962.41 273.899 1961.66 273.072 1961.02 272.408C1964.34 269.122 1967.47 266.035 1970.93 262.606C1975.2 266.929 1979.64 271.538 1984.25 275.961C1985.21 276.886 1985.84 279.433 1987.96 277.694C1988.13 277.557 1986.88 275.234 1985.93 274.277C1981.42 269.743 1976.78 265.333 1971.28 259.984C1973.14 258.661 1974.88 257.959 1975.73 256.674C1976.57 255.419 1977.23 253.17 1976.63 252.089C1976.04 251.033 1973.73 250.325 1972.28 250.468C1969.1 250.773 1968.04 250.319 1968.13 247.046C1968.21 243.977 1966.99 241.71 1964.9 239.641C1957.76 232.573 1950.68 225.435 1943.55 218.354C1940.58 215.397 1938.98 215.428 1935.97 218.416C1929.51 224.839 1923.05 231.274 1916.62 237.741C1913.76 240.617 1913.76 242.188 1916.63 245.07C1923.87 252.332 1931.19 259.519 1938.39 266.817C1940.35 268.793 1942.49 269.755 1945.28 269.743C1948.68 269.73 1949.13 270.724 1948.75 274.085C1948.59 275.451 1949.31 277.619 1950.34 278.228C1951.36 278.837 1953.33 278.116 1954.78 277.638C1955.57 277.371 1956.14 276.408 1956.82 275.768C1957.41 275.24 1958.02 274.7 1959.06 273.768Z" fill="#1F8CC4"/>
<path d="M212.137 273.768C217.026 278.744 221.623 283.508 226.344 288.148C227.103 288.893 228.416 289.08 229.479 289.527C228.963 288.459 228.683 287.173 227.899 286.359C224.099 282.402 220.161 278.57 216.279 274.687C215.489 273.899 214.737 273.072 214.102 272.408C217.424 269.122 220.547 266.035 224.011 262.606C228.285 266.929 232.72 271.538 237.33 275.961C238.294 276.886 238.922 279.433 241.043 277.694C241.211 277.557 239.961 275.234 239.009 274.277C234.499 269.743 229.865 265.333 224.36 259.984C226.22 258.661 227.955 257.959 228.814 256.674C229.647 255.419 230.307 253.17 229.709 252.089C229.125 251.033 226.811 250.325 225.355 250.468C222.176 250.773 221.119 250.319 221.206 247.046C221.287 243.977 220.068 241.71 217.978 239.641C210.836 232.573 203.764 225.435 196.635 218.354C193.655 215.397 192.063 215.428 189.052 218.416C182.589 224.839 176.132 231.274 169.7 237.741C166.839 240.617 166.839 242.188 169.713 245.07C176.953 252.332 184.269 259.519 191.472 266.817C193.425 268.793 195.571 269.755 198.358 269.743C201.761 269.73 202.215 270.724 201.829 274.085C201.674 275.451 202.389 277.619 203.422 278.228C204.442 278.837 206.414 278.116 207.857 277.638C208.653 277.371 209.219 276.408 209.897 275.768C210.494 275.24 211.104 274.7 212.137 273.768Z" fill="#1F8CC4"/>
<path d="M912.293 273.768C917.182 278.744 921.779 283.508 926.501 288.148C927.259 288.893 928.572 289.08 929.636 289.527C929.119 288.459 928.839 287.173 928.056 286.359C924.255 282.402 920.317 278.57 916.436 274.687C915.646 273.899 914.893 273.072 914.259 272.408C917.58 269.122 920.703 266.035 924.168 262.606C928.441 266.929 932.877 271.538 937.486 275.961C938.45 276.886 939.078 279.433 941.2 277.694C941.368 277.557 940.117 275.234 939.165 274.277C934.656 269.743 930.021 265.333 924.516 259.984C926.376 258.661 928.112 257.959 928.97 256.674C929.804 255.419 930.463 253.17 929.866 252.089C929.281 251.033 926.967 250.325 925.511 250.468C922.333 250.773 921.275 250.319 921.362 247.046C921.443 243.977 920.224 241.71 918.134 239.641C910.993 232.573 903.92 225.435 896.791 218.354C893.812 215.397 892.219 215.428 889.209 218.416C882.746 224.839 876.289 231.274 869.857 237.741C866.995 240.617 866.995 242.188 869.869 245.07C877.11 252.332 884.425 259.519 891.628 266.817C893.582 268.793 895.728 269.755 898.514 269.743C901.917 269.73 902.371 270.724 901.986 274.085C901.83 275.451 902.545 277.619 903.578 278.228C904.598 278.837 906.57 278.116 908.013 277.638C908.809 277.371 909.375 276.408 910.054 275.768C910.651 275.24 911.26 274.7 912.293 273.768Z" fill="#1F8CC4"/>
<path d="M1609.42 273.768C1614.31 278.744 1618.91 283.508 1623.63 288.148C1624.39 288.893 1625.7 289.08 1626.76 289.527C1626.25 288.459 1625.97 287.173 1625.18 286.359C1621.38 282.402 1617.44 278.57 1613.56 274.687C1612.77 273.899 1612.02 273.072 1611.39 272.408C1614.71 269.122 1617.83 266.035 1621.29 262.606C1625.57 266.929 1630 271.538 1634.61 275.961C1635.58 276.886 1636.21 279.433 1638.33 277.694C1638.49 277.557 1637.24 275.234 1636.29 274.277C1631.78 269.743 1627.15 265.333 1621.64 259.984C1623.5 258.661 1625.24 257.959 1626.1 256.674C1626.93 255.419 1627.59 253.17 1626.99 252.089C1626.41 251.033 1624.09 250.325 1622.64 250.468C1619.46 250.773 1618.4 250.319 1618.49 247.046C1618.57 243.977 1617.35 241.71 1615.26 239.641C1608.12 232.573 1601.05 225.435 1593.92 218.354C1590.94 215.397 1589.35 215.428 1586.34 218.416C1579.87 224.839 1573.42 231.274 1566.98 237.741C1564.12 240.617 1564.12 242.188 1567 245.07C1574.24 252.332 1581.55 259.519 1588.76 266.817C1590.71 268.793 1592.85 269.755 1595.64 269.743C1599.04 269.73 1599.5 270.724 1599.11 274.085C1598.96 275.451 1599.67 277.619 1600.7 278.228C1601.73 278.837 1603.7 278.116 1605.14 277.638C1605.94 277.371 1606.5 276.408 1607.18 275.768C1607.78 275.24 1608.39 274.7 1609.42 273.768Z" fill="#1F8CC4"/>
<path d="M130.214 316.174C126.161 316.757 126.161 316.757 126.311 312.525C121.951 312.619 121.951 312.619 122.689 308.858C118.254 308.394 118.254 308.394 118.98 304.707C117.453 304.889 116.021 305.058 114.169 305.278C114.607 303.629 114.945 302.394 115.395 300.689C112.443 301.291 108.539 302.664 111.679 296.915C109.84 297.178 108.514 297.372 107.188 297.567C107.188 296.231 107.188 294.89 107.188 293.247C106.638 293.31 105.887 293.366 105.143 293.479C104.504 293.573 103.866 293.73 102.866 293.93C103.197 292.188 103.454 290.865 103.779 289.141C102.096 289.542 100.851 289.837 99.0935 290.257C99.3813 288.558 99.6127 287.228 99.8942 285.561C95.9095 286.225 92.1125 285.749 89.1912 289.561C86.1761 293.498 82.2477 296.745 78.6946 300.269C77.3247 301.629 76.1549 302.864 76.9431 305.165C77.2809 306.149 76.5052 307.522 76.1737 309.002C77.7438 308.864 79.1763 308.732 80.9091 308.576C80.565 310.143 80.3023 311.315 79.9645 312.857C81.6034 312.682 83.0109 312.531 84.6498 312.356C84.3558 314.024 84.1368 315.284 83.9054 316.607C87.9902 316.249 87.9902 316.249 87.9589 320.525C91.8998 319.923 91.8998 319.923 91.6871 324.318C95.7156 324.011 95.7156 324.011 95.4967 328.13C99.5752 327.829 99.5752 327.829 99.3813 331.904C103.203 331.54 103.203 331.54 103.235 335.972C104.517 335.715 105.768 335.458 107.495 335.107C107.226 336.813 107.013 338.148 106.794 339.54C111.392 339.138 111.392 339.138 110.597 343.42C112.005 343.27 113.343 343.126 114.682 342.982C114.682 344.336 114.682 345.696 114.682 347.332C115.233 347.251 115.989 347.126 116.753 347.019C117.397 346.931 118.047 346.869 119.023 346.756C118.679 348.386 118.41 349.627 118.123 351C122.501 350.868 126.392 350.618 129.307 346.706C131.59 343.646 134.393 340.806 137.464 338.543C141.33 335.69 141.455 331.822 141.73 327.546C140.31 327.797 138.978 328.029 137.239 328.336C137.527 326.631 137.752 325.296 137.99 323.904C133.573 324.274 133.573 324.274 133.986 320.199C129.776 320.268 129.776 320.268 130.214 316.174Z" fill="#1F8CC4"/>
<path d="M830.37 316.174C826.317 316.757 826.317 316.757 826.467 312.525C822.107 312.619 822.107 312.619 822.845 308.858C818.41 308.394 818.41 308.394 819.136 304.707C817.609 304.889 816.177 305.058 814.325 305.278C814.763 303.629 815.101 302.394 815.551 300.689C812.599 301.291 808.695 302.664 811.836 296.915C809.997 297.178 808.67 297.372 807.344 297.567C807.344 296.231 807.344 294.89 807.344 293.247C806.794 293.31 806.043 293.366 805.299 293.479C804.661 293.573 804.023 293.73 803.022 293.93C803.353 292.188 803.61 290.865 803.935 289.141C802.252 289.542 801.007 289.837 799.25 290.257C799.537 288.558 799.769 287.228 800.05 285.561C796.066 286.225 792.269 285.749 789.347 289.561C786.332 293.498 782.404 296.745 778.851 300.269C777.481 301.629 776.311 302.864 777.099 305.165C777.437 306.149 776.661 307.522 776.33 309.002C777.9 308.864 779.332 308.732 781.065 308.576C780.721 310.143 780.458 311.315 780.121 312.857C781.76 312.682 783.167 312.531 784.806 312.356C784.512 314.024 784.293 315.284 784.062 316.607C788.146 316.249 788.146 316.249 788.115 320.525C792.056 319.923 792.056 319.923 791.843 324.318C795.872 324.011 795.872 324.011 795.653 328.13C799.731 327.829 799.731 327.829 799.537 331.904C803.36 331.54 803.36 331.54 803.391 335.972C804.673 335.715 805.924 335.458 807.651 335.107C807.382 336.813 807.169 338.148 806.95 339.54C811.548 339.138 811.548 339.138 810.753 343.42C812.161 343.27 813.5 343.126 814.838 342.982C814.838 344.336 814.838 345.696 814.838 347.332C815.389 347.251 816.146 347.126 816.909 347.019C817.553 346.931 818.204 346.869 819.18 346.756C818.835 348.386 818.566 349.627 818.279 351C822.658 350.868 826.548 350.618 829.463 346.706C831.747 343.646 834.549 340.806 837.621 338.543C841.486 335.69 841.611 331.822 841.887 327.546C840.467 327.797 839.134 328.029 837.395 328.336C837.683 326.631 837.908 325.296 838.146 323.904C833.73 324.274 833.73 324.274 834.142 320.199C829.933 320.268 829.933 320.268 830.37 316.174Z" fill="#1F8CC4"/>
<path d="M1527.5 316.174C1523.44 316.757 1523.44 316.757 1523.59 312.525C1519.23 312.619 1519.23 312.619 1519.97 308.858C1515.54 308.394 1515.54 308.394 1516.26 304.707C1514.74 304.889 1513.3 305.058 1511.45 305.278C1511.89 303.629 1512.23 302.394 1512.68 300.689C1509.73 301.291 1505.82 302.664 1508.96 296.915C1507.12 297.178 1505.8 297.372 1504.47 297.567C1504.47 296.231 1504.47 294.89 1504.47 293.247C1503.92 293.31 1503.17 293.366 1502.43 293.479C1501.79 293.573 1501.15 293.73 1500.15 293.93C1500.48 292.188 1500.74 290.865 1501.06 289.141C1499.38 289.542 1498.13 289.837 1496.38 290.257C1496.66 288.558 1496.9 287.228 1497.18 285.561C1493.19 286.225 1489.4 285.749 1486.47 289.561C1483.46 293.498 1479.53 296.745 1475.98 300.269C1474.61 301.629 1473.44 302.864 1474.23 305.165C1474.56 306.149 1473.79 307.522 1473.46 309.002C1475.03 308.864 1476.46 308.732 1478.19 308.576C1477.85 310.143 1477.59 311.315 1477.25 312.857C1478.89 312.682 1480.29 312.531 1481.93 312.356C1481.64 314.024 1481.42 315.284 1481.19 316.607C1485.27 316.249 1485.27 316.249 1485.24 320.525C1489.18 319.923 1489.18 319.923 1488.97 324.318C1493 324.011 1493 324.011 1492.78 328.13C1496.86 327.829 1496.86 327.829 1496.66 331.904C1500.49 331.54 1500.49 331.54 1500.52 335.972C1501.8 335.715 1503.05 335.458 1504.78 335.107C1504.51 336.813 1504.3 338.148 1504.08 339.54C1508.68 339.138 1508.68 339.138 1507.88 343.42C1509.29 343.27 1510.63 343.126 1511.97 342.982C1511.97 344.336 1511.97 345.696 1511.97 347.332C1512.52 347.251 1513.27 347.126 1514.04 347.019C1514.68 346.931 1515.33 346.869 1516.31 346.756C1515.96 348.386 1515.69 349.627 1515.41 351C1519.78 350.868 1523.68 350.618 1526.59 346.706C1528.87 343.646 1531.68 340.806 1534.75 338.543C1538.61 335.69 1538.74 331.822 1539.01 327.546C1537.59 327.797 1536.26 328.029 1534.52 328.336C1534.81 326.631 1535.04 325.296 1535.27 323.904C1530.86 324.274 1530.86 324.274 1531.27 320.199C1527.06 320.268 1527.06 320.268 1527.5 316.174Z" fill="#1F8CC4"/>
<path d="M656.654 316.174C652.6 316.757 652.6 316.757 652.75 312.525C648.39 312.619 648.39 312.619 649.129 308.858C644.693 308.394 644.693 308.394 645.419 304.707C643.893 304.889 642.46 305.058 640.609 305.278C641.047 303.629 641.384 302.394 641.835 300.689C638.882 301.291 634.979 302.664 638.119 296.915C636.28 297.178 634.954 297.372 633.628 297.567C633.628 296.231 633.628 294.89 633.628 293.247C633.077 293.31 632.327 293.366 631.582 293.479C630.944 293.573 630.306 293.73 629.305 293.93C629.637 292.188 629.893 290.865 630.219 289.141C628.536 289.542 627.291 289.837 625.533 290.257C625.821 288.558 626.052 287.228 626.334 285.561C622.349 286.225 618.552 285.749 615.631 289.561C612.616 293.498 608.687 296.745 605.134 300.269C603.765 301.629 602.595 302.864 603.383 305.165C603.721 306.149 602.945 307.522 602.614 309.002C604.184 308.864 605.616 308.732 607.349 308.576C607.005 310.143 606.742 311.315 606.404 312.857C608.043 312.682 609.451 312.531 611.09 312.356C610.796 314.024 610.577 315.284 610.345 316.607C614.43 316.249 614.43 316.249 614.399 320.525C618.34 319.923 618.34 319.923 618.127 324.318C622.155 324.011 622.155 324.011 621.936 328.13C626.015 327.829 626.015 327.829 625.821 331.904C629.643 331.54 629.643 331.54 629.674 335.972C630.957 335.715 632.208 335.458 633.934 335.107C633.665 336.813 633.453 338.148 633.234 339.54C637.831 339.138 637.831 339.138 637.037 343.42C638.444 343.27 639.783 343.126 641.122 342.982C641.122 344.336 641.122 345.696 641.122 347.332C641.672 347.251 642.429 347.126 643.192 347.019C643.836 346.931 644.487 346.869 645.463 346.756C645.119 348.386 644.85 349.627 644.562 351C648.941 350.868 652.832 350.618 655.747 346.706C658.03 343.646 660.832 340.806 663.904 338.543C667.77 335.69 667.895 331.822 668.17 327.546C666.75 327.797 665.418 328.029 663.679 328.336C663.966 326.631 664.191 325.296 664.429 323.904C660.013 324.274 660.013 324.274 660.426 320.199C656.216 320.268 656.216 320.268 656.654 316.174Z" fill="#1F8CC4"/>
<path d="M1356.81 316.174C1352.76 316.757 1352.76 316.757 1352.91 312.525C1348.55 312.619 1348.55 312.619 1349.28 308.858C1344.85 308.394 1344.85 308.394 1345.58 304.707C1344.05 304.889 1342.62 305.058 1340.76 305.278C1341.2 303.629 1341.54 302.394 1341.99 300.689C1339.04 301.291 1335.13 302.664 1338.28 296.915C1336.44 297.178 1335.11 297.372 1333.78 297.567C1333.78 296.231 1333.78 294.89 1333.78 293.247C1333.23 293.31 1332.48 293.366 1331.74 293.479C1331.1 293.573 1330.46 293.73 1329.46 293.93C1329.79 292.188 1330.05 290.865 1330.37 289.141C1328.69 289.542 1327.45 289.837 1325.69 290.257C1325.98 288.558 1326.21 287.228 1326.49 285.561C1322.51 286.225 1318.71 285.749 1315.79 289.561C1312.77 293.498 1308.84 296.745 1305.29 300.269C1303.92 301.629 1302.75 302.864 1303.54 305.165C1303.88 306.149 1303.1 307.522 1302.77 309.002C1304.34 308.864 1305.77 308.732 1307.5 308.576C1307.16 310.143 1306.9 311.315 1306.56 312.857C1308.2 312.682 1309.61 312.531 1311.25 312.356C1310.95 314.024 1310.73 315.284 1310.5 316.607C1314.59 316.249 1314.59 316.249 1314.55 320.525C1318.5 319.923 1318.5 319.923 1318.28 324.318C1322.31 324.011 1322.31 324.011 1322.09 328.13C1326.17 327.829 1326.17 327.829 1325.98 331.904C1329.8 331.54 1329.8 331.54 1329.83 335.972C1331.11 335.715 1332.36 335.458 1334.09 335.107C1333.82 336.813 1333.61 338.148 1333.39 339.54C1337.99 339.138 1337.99 339.138 1337.19 343.42C1338.6 343.27 1339.94 343.126 1341.28 342.982C1341.28 344.336 1341.28 345.696 1341.28 347.332C1341.83 347.251 1342.59 347.126 1343.35 347.019C1343.99 346.931 1344.64 346.869 1345.62 346.756C1345.28 348.386 1345.01 349.627 1344.72 351C1349.1 350.868 1352.99 350.618 1355.9 346.706C1358.19 343.646 1360.99 340.806 1364.06 338.543C1367.93 335.69 1368.05 331.822 1368.33 327.546C1366.91 327.797 1365.57 328.029 1363.83 328.336C1364.12 326.631 1364.35 325.296 1364.59 323.904C1360.17 324.274 1360.17 324.274 1360.58 320.199C1356.37 320.268 1356.37 320.268 1356.81 316.174Z" fill="#1F8CC4"/>
<path d="M305.033 316.174C300.979 316.757 300.979 316.757 301.129 312.525C296.769 312.619 296.769 312.619 297.507 308.858C293.072 308.394 293.072 308.394 293.798 304.707C292.272 304.889 290.839 305.058 288.988 305.278C289.425 303.629 289.763 302.394 290.214 300.689C287.261 301.291 283.358 302.664 286.498 296.915C284.659 297.178 283.333 297.372 282.006 297.567C282.006 296.231 282.006 294.89 282.006 293.247C281.456 293.31 280.705 293.366 279.961 293.479C279.323 293.573 278.685 293.73 277.684 293.93C278.016 292.188 278.272 290.865 278.597 289.141C276.915 289.542 275.67 289.837 273.912 290.257C274.2 288.558 274.431 287.228 274.713 285.561C270.728 286.225 266.931 285.749 264.01 289.561C260.995 293.498 257.066 296.745 253.513 300.269C252.143 301.629 250.973 302.864 251.762 305.165C252.099 306.149 251.324 307.522 250.992 309.002C252.562 308.864 253.995 308.732 255.728 308.576C255.383 310.143 255.121 311.315 254.783 312.857C256.422 312.682 257.829 312.531 259.468 312.356C259.174 314.024 258.955 315.284 258.724 316.607C262.809 316.249 262.809 316.249 262.777 320.525C266.718 319.923 266.718 319.923 266.506 324.318C270.534 324.011 270.534 324.011 270.315 328.13C274.394 327.829 274.394 327.829 274.2 331.904C278.022 331.54 278.022 331.54 278.053 335.972C279.335 335.715 280.587 335.458 282.313 335.107C282.044 336.813 281.831 338.148 281.612 339.54C286.21 339.138 286.21 339.138 285.416 343.42C286.823 343.27 288.162 343.126 289.5 342.982C289.5 344.336 289.5 345.696 289.5 347.332C290.051 347.251 290.808 347.126 291.571 347.019C292.215 346.931 292.866 346.869 293.842 346.756C293.498 348.386 293.229 349.627 292.941 351C297.32 350.868 301.211 350.618 304.126 346.706C306.409 343.646 309.211 340.806 312.283 338.543C316.148 335.69 316.274 331.822 316.549 327.546C315.129 327.797 313.796 328.029 312.057 328.336C312.345 326.631 312.57 325.296 312.808 323.904C308.392 324.274 308.392 324.274 308.805 320.199C304.595 320.268 304.595 320.268 305.033 316.174Z" fill="#1F8CC4"/>
<path d="M1005.19 316.174C1001.14 316.757 1001.14 316.757 1001.29 312.525C996.926 312.619 996.926 312.619 997.664 308.858C993.229 308.394 993.229 308.394 993.954 304.707C992.428 304.889 990.995 305.058 989.144 305.278C989.582 303.629 989.92 302.394 990.37 300.689C987.417 301.291 983.514 302.664 986.654 296.915C984.815 297.178 983.489 297.372 982.163 297.567C982.163 296.231 982.163 294.89 982.163 293.247C981.612 293.31 980.862 293.366 980.117 293.479C979.479 293.573 978.841 293.73 977.84 293.93C978.172 292.188 978.428 290.865 978.754 289.141C977.071 289.542 975.826 289.837 974.068 290.257C974.356 288.558 974.588 287.228 974.869 285.561C970.884 286.225 967.087 285.749 964.166 289.561C961.151 293.498 957.223 296.745 953.67 300.269C952.3 301.629 951.13 302.864 951.918 305.165C952.256 306.149 951.48 307.522 951.149 309.002C952.719 308.864 954.151 308.732 955.884 308.576C955.54 310.143 955.277 311.315 954.939 312.857C956.578 312.682 957.986 312.531 959.625 312.356C959.331 314.024 959.112 315.284 958.88 316.607C962.965 316.249 962.965 316.249 962.934 320.525C966.875 319.923 966.875 319.923 966.662 324.318C970.69 324.011 970.69 324.011 970.472 328.13C974.55 327.829 974.55 327.829 974.356 331.904C978.178 331.54 978.178 331.54 978.209 335.972C979.492 335.715 980.743 335.458 982.469 335.107C982.2 336.813 981.988 338.148 981.769 339.54C986.366 339.138 986.366 339.138 985.572 343.42C986.98 343.27 988.318 343.126 989.657 342.982C989.657 344.336 989.657 345.696 989.657 347.332C990.207 347.251 990.964 347.126 991.727 347.019C992.372 346.931 993.022 346.869 993.998 346.756C993.654 348.386 993.385 349.627 993.097 351C997.476 350.868 1001.37 350.618 1004.28 346.706C1006.57 343.646 1009.37 340.806 1012.44 338.543C1016.3 335.69 1016.43 331.822 1016.71 327.546C1015.29 327.797 1013.95 328.029 1012.21 328.336C1012.5 326.631 1012.73 325.296 1012.96 323.904C1008.55 324.274 1008.55 324.274 1008.96 320.199C1004.75 320.268 1004.75 320.268 1005.19 316.174Z" fill="#1F8CC4"/>
<path d="M1702.32 316.174C1698.26 316.757 1698.26 316.757 1698.41 312.525C1694.05 312.619 1694.05 312.619 1694.79 308.858C1690.36 308.394 1690.36 308.394 1691.08 304.707C1689.55 304.889 1688.12 305.058 1686.27 305.278C1686.71 303.629 1687.05 302.394 1687.5 300.689C1684.54 301.291 1680.64 302.664 1683.78 296.915C1681.94 297.178 1680.62 297.372 1679.29 297.567C1679.29 296.231 1679.29 294.89 1679.29 293.247C1678.74 293.31 1677.99 293.366 1677.24 293.479C1676.61 293.573 1675.97 293.73 1674.97 293.93C1675.3 292.188 1675.56 290.865 1675.88 289.141C1674.2 289.542 1672.95 289.837 1671.2 290.257C1671.48 288.558 1671.71 287.228 1672 285.561C1668.01 286.225 1664.21 285.749 1661.29 289.561C1658.28 293.498 1654.35 296.745 1650.8 300.269C1649.43 301.629 1648.26 302.864 1649.04 305.165C1649.38 306.149 1648.61 307.522 1648.28 309.002C1649.85 308.864 1651.28 308.732 1653.01 308.576C1652.67 310.143 1652.4 311.315 1652.07 312.857C1653.71 312.682 1655.11 312.531 1656.75 312.356C1656.46 314.024 1656.24 315.284 1656.01 316.607C1660.09 316.249 1660.09 316.249 1660.06 320.525C1664 319.923 1664 319.923 1663.79 324.318C1667.82 324.011 1667.82 324.011 1667.6 328.13C1671.68 327.829 1671.68 327.829 1671.48 331.904C1675.3 331.54 1675.3 331.54 1675.34 335.972C1676.62 335.715 1677.87 335.458 1679.6 335.107C1679.33 336.813 1679.11 338.148 1678.9 339.54C1683.49 339.138 1683.49 339.138 1682.7 343.42C1684.11 343.27 1685.45 343.126 1686.78 342.982C1686.78 344.336 1686.78 345.696 1686.78 347.332C1687.33 347.251 1688.09 347.126 1688.85 347.019C1689.5 346.931 1690.15 346.869 1691.12 346.756C1690.78 348.386 1690.51 349.627 1690.22 351C1694.6 350.868 1698.49 350.618 1701.41 346.706C1703.69 343.646 1706.49 340.806 1709.57 338.543C1713.43 335.69 1713.56 331.822 1713.83 327.546C1712.41 327.797 1711.08 328.029 1709.34 328.336C1709.63 326.631 1709.85 325.296 1710.09 323.904C1705.67 324.274 1705.67 324.274 1706.09 320.199C1701.88 320.268 1701.88 320.268 1702.32 316.174Z" fill="#1F8CC4"/>
<path d="M479.849 316.174C475.796 316.757 475.796 316.757 475.946 312.525C471.586 312.619 471.586 312.619 472.324 308.858C467.889 308.394 467.889 308.394 468.614 304.707C467.088 304.889 465.656 305.058 463.804 305.278C464.242 303.629 464.58 302.394 465.03 300.689C462.077 301.291 458.174 302.664 461.314 296.915C459.475 297.178 458.149 297.372 456.823 297.567C456.823 296.231 456.823 294.89 456.823 293.247C456.272 293.31 455.522 293.366 454.777 293.479C454.139 293.573 453.501 293.73 452.5 293.93C452.832 292.188 453.088 290.865 453.414 289.141C451.731 289.542 450.486 289.837 448.728 290.257C449.016 288.558 449.248 287.228 449.529 285.561C445.544 286.225 441.747 285.749 438.826 289.561C435.811 293.498 431.883 296.745 428.33 300.269C426.96 301.629 425.79 302.864 426.578 305.165C426.916 306.149 426.14 307.522 425.809 309.002C427.379 308.864 428.811 308.732 430.544 308.576C430.2 310.143 429.937 311.315 429.599 312.857C431.238 312.682 432.646 312.531 434.285 312.356C433.991 314.024 433.772 315.284 433.54 316.607C437.625 316.249 437.625 316.249 437.594 320.525C441.535 319.923 441.535 319.923 441.322 324.318C445.351 324.011 445.351 324.011 445.132 328.13C449.21 327.829 449.21 327.829 449.016 331.904C452.838 331.54 452.838 331.54 452.87 335.972C454.152 335.715 455.403 335.458 457.129 335.107C456.86 336.813 456.648 338.148 456.429 339.54C461.027 339.138 461.027 339.138 460.232 343.42C461.64 343.27 462.978 343.126 464.317 342.982C464.317 344.336 464.317 345.696 464.317 347.332C464.867 347.251 465.624 347.126 466.387 347.019C467.032 346.931 467.682 346.869 468.658 346.756C468.314 348.386 468.045 349.627 467.757 351C472.136 350.868 476.027 350.618 478.942 346.706C481.225 343.646 484.028 340.806 487.099 338.543C490.965 335.69 491.09 331.822 491.365 327.546C489.945 327.797 488.613 328.029 486.874 328.336C487.162 326.631 487.387 325.296 487.625 323.904C483.208 324.274 483.208 324.274 483.621 320.199C479.411 320.268 479.411 320.268 479.849 316.174Z" fill="#1F8CC4"/>
<path d="M1180.01 316.174C1175.95 316.757 1175.95 316.757 1176.1 312.525C1171.74 312.619 1171.74 312.619 1172.48 308.858C1168.05 308.394 1168.05 308.394 1168.77 304.707C1167.25 304.889 1165.81 305.058 1163.96 305.278C1164.4 303.629 1164.74 302.394 1165.19 300.689C1162.24 301.291 1158.33 302.664 1161.47 296.915C1159.63 297.178 1158.31 297.372 1156.98 297.567C1156.98 296.231 1156.98 294.89 1156.98 293.247C1156.43 293.31 1155.68 293.366 1154.94 293.479C1154.3 293.573 1153.66 293.73 1152.66 293.93C1152.99 292.188 1153.25 290.865 1153.57 289.141C1151.89 289.542 1150.64 289.837 1148.89 290.257C1149.17 288.558 1149.41 287.228 1149.69 285.561C1145.7 286.225 1141.91 285.749 1138.98 289.561C1135.97 293.498 1132.04 296.745 1128.49 300.269C1127.12 301.629 1125.95 302.864 1126.74 305.165C1127.07 306.149 1126.3 307.522 1125.97 309.002C1127.54 308.864 1128.97 308.732 1130.7 308.576C1130.36 310.143 1130.1 311.315 1129.76 312.857C1131.4 312.682 1132.8 312.531 1134.44 312.356C1134.15 314.024 1133.93 315.284 1133.7 316.607C1137.78 316.249 1137.78 316.249 1137.75 320.525C1141.69 319.923 1141.69 319.923 1141.48 324.318C1145.51 324.011 1145.51 324.011 1145.29 328.13C1149.37 327.829 1149.37 327.829 1149.17 331.904C1153 331.54 1153 331.54 1153.03 335.972C1154.31 335.715 1155.56 335.458 1157.29 335.107C1157.02 336.813 1156.81 338.148 1156.59 339.54C1161.18 339.138 1161.18 339.138 1160.39 343.42C1161.8 343.27 1163.14 343.126 1164.47 342.982C1164.47 344.336 1164.47 345.696 1164.47 347.332C1165.03 347.251 1165.78 347.126 1166.55 347.019C1167.19 346.931 1167.84 346.869 1168.82 346.756C1168.47 348.386 1168.2 349.627 1167.92 351C1172.29 350.868 1176.19 350.618 1179.1 346.706C1181.38 343.646 1184.19 340.806 1187.26 338.543C1191.12 335.69 1191.25 331.822 1191.52 327.546C1190.1 327.797 1188.77 328.029 1187.03 328.336C1187.32 326.631 1187.54 325.296 1187.78 323.904C1183.37 324.274 1183.37 324.274 1183.78 320.199C1179.57 320.268 1179.57 320.268 1180.01 316.174Z" fill="#1F8CC4"/>
<path d="M1877.13 316.174C1873.08 316.757 1873.08 316.757 1873.23 312.525C1868.87 312.619 1868.87 312.619 1869.61 308.858C1865.17 308.394 1865.17 308.394 1865.9 304.707C1864.37 304.889 1862.94 305.058 1861.09 305.278C1861.52 303.629 1861.86 302.394 1862.31 300.689C1859.36 301.291 1855.46 302.664 1858.6 296.915C1856.76 297.178 1855.43 297.372 1854.11 297.567C1854.11 296.231 1854.11 294.89 1854.11 293.247C1853.56 293.31 1852.8 293.366 1852.06 293.479C1851.42 293.573 1850.78 293.73 1849.78 293.93C1850.11 292.188 1850.37 290.865 1850.7 289.141C1849.01 289.542 1847.77 289.837 1846.01 290.257C1846.3 288.558 1846.53 287.228 1846.81 285.561C1842.83 286.225 1839.03 285.749 1836.11 289.561C1833.09 293.498 1829.17 296.745 1825.61 300.269C1824.24 301.629 1823.07 302.864 1823.86 305.165C1824.2 306.149 1823.42 307.522 1823.09 309.002C1824.66 308.864 1826.09 308.732 1827.83 308.576C1827.48 310.143 1827.22 311.315 1826.88 312.857C1828.52 312.682 1829.93 312.531 1831.57 312.356C1831.27 314.024 1831.05 315.284 1830.82 316.607C1834.91 316.249 1834.91 316.249 1834.88 320.525C1838.82 319.923 1838.82 319.923 1838.61 324.318C1842.63 324.011 1842.63 324.011 1842.41 328.13C1846.49 327.829 1846.49 327.829 1846.3 331.904C1850.12 331.54 1850.12 331.54 1850.15 335.972C1851.43 335.715 1852.69 335.458 1854.41 335.107C1854.14 336.813 1853.93 338.148 1853.71 339.54C1858.31 339.138 1858.31 339.138 1857.52 343.42C1858.92 343.27 1860.26 343.126 1861.6 342.982C1861.6 344.336 1861.6 345.696 1861.6 347.332C1862.15 347.251 1862.91 347.126 1863.67 347.019C1864.31 346.931 1864.97 346.869 1865.94 346.756C1865.6 348.386 1865.33 349.627 1865.04 351C1869.42 350.868 1873.31 350.618 1876.23 346.706C1878.51 343.646 1881.31 340.806 1884.38 338.543C1888.25 335.69 1888.37 331.822 1888.65 327.546C1887.23 327.797 1885.9 328.029 1884.16 328.336C1884.44 326.631 1884.67 325.296 1884.91 323.904C1880.49 324.274 1880.49 324.274 1880.9 320.199C1876.69 320.268 1876.69 320.268 1877.13 316.174Z" fill="#1F8CC4"/>
<path d="M32.1562 128.597C31.7668 129.065 31.4026 129.564 30.9818 130.007C22.2647 139.159 13.5539 148.317 4.81172 157.45C3.74406 158.567 2.85853 159.509 5.31414 160.632C9.91761 156.015 14.5085 151.205 19.3381 146.633C24.2807 141.954 29.4431 137.506 34.5302 132.977C34.9007 132.646 35.6543 132.128 35.7988 132.247C38.6877 134.468 39.6737 131.517 41.0052 130.225C48.1898 123.251 55.2552 116.151 62.3519 109.09C63.0805 108.366 63.765 107.605 64.2549 107.087C56.8253 99.6757 49.5527 92.4142 42.4057 85.2774C33.7702 93.9177 25.0155 102.676 16.0723 111.629C17.4477 113.17 16.2858 114.505 14.7158 116.12C6.19966 124.892 -2.20339 133.769 -10.5939 142.659C-11.0335 143.127 -11.0272 144.012 -11.2345 144.711C-10.4495 144.555 -9.45088 144.642 -8.91077 144.193C-7.39094 142.927 -6.10976 141.398 -4.65272 140.051C3.29188 132.696 11.2428 125.341 19.2502 118.06C19.7965 117.568 20.8642 117.642 21.6932 117.455C21.869 117.83 22.0449 118.21 22.2207 118.584C19.5265 121.279 16.7757 123.912 14.1568 126.67C7.53736 133.65 0.961883 140.662 -5.5508 147.743C-6.02811 148.267 -5.82713 149.409 -5.94018 150.257C-5.55708 150.382 -5.174 150.507 -4.79717 150.638C-0.0995032 145.903 4.48514 141.062 9.32098 136.47C14.251 131.791 19.4009 127.325 24.5445 122.87C25.0155 122.465 26.1522 122.814 27.6595 122.814C26.7928 123.95 26.573 124.305 26.2904 124.598C17.5733 133.756 8.83112 142.883 0.170562 152.091C-0.48259 152.79 -0.557961 154.025 -0.897095 155.011C0.0323941 154.624 1.18169 154.462 1.85368 153.813C6.65813 149.178 11.2679 144.343 16.1288 139.764C20.4623 135.678 25.0092 131.81 29.5561 127.955C30.0711 127.518 31.189 127.774 32.0243 127.705C32.0494 128.005 32.0997 128.304 32.1562 128.597Z" fill="#1F8CC4"/>
<path d="M732.313 128.597C731.924 129.065 731.56 129.564 731.139 130.007C722.422 139.159 713.711 148.317 704.969 157.45C703.901 158.567 703.016 159.509 705.471 160.632C710.075 156.015 714.666 151.205 719.495 146.633C724.438 141.954 729.6 137.506 734.687 132.977C735.058 132.646 735.812 132.128 735.956 132.247C738.845 134.468 739.831 131.517 741.162 130.225C748.347 123.251 755.412 116.151 762.509 109.09C763.238 108.366 763.922 107.605 764.412 107.087C756.982 99.6757 749.71 92.4142 742.563 85.2774C733.927 93.9177 725.173 102.676 716.229 111.629C717.605 113.17 716.443 114.505 714.873 116.12C706.357 124.892 697.954 133.769 689.563 142.659C689.124 143.127 689.13 144.012 688.923 144.711C689.708 144.555 690.706 144.642 691.246 144.193C692.766 142.927 694.047 141.398 695.504 140.051C703.449 132.696 711.4 125.341 719.407 118.06C719.954 117.568 721.021 117.642 721.85 117.455C722.026 117.83 722.202 118.21 722.378 118.584C719.684 121.279 716.933 123.912 714.314 126.67C707.695 133.65 701.119 140.662 694.606 147.743C694.129 148.267 694.33 149.409 694.217 150.257C694.6 150.382 694.983 150.507 695.36 150.638C700.058 145.903 704.642 141.062 709.478 136.47C714.408 131.791 719.558 127.325 724.702 122.87C725.173 122.465 726.309 122.814 727.817 122.814C726.95 123.95 726.73 124.305 726.448 124.598C717.73 133.756 708.988 142.883 700.328 152.091C699.675 152.79 699.599 154.025 699.26 155.011C700.19 154.624 701.339 154.462 702.011 153.813C706.815 149.178 711.425 144.343 716.286 139.764C720.619 135.678 725.166 131.81 729.713 127.955C730.228 127.518 731.346 127.774 732.181 127.705C732.207 128.005 732.257 128.304 732.313 128.597Z" fill="#1F8CC4"/>
<path d="M1429.44 128.597C1429.05 129.065 1428.69 129.564 1428.27 130.007C1419.55 139.159 1410.84 148.317 1402.1 157.45C1401.03 158.567 1400.14 159.509 1402.6 160.632C1407.2 156.015 1411.79 151.205 1416.62 146.633C1421.56 141.954 1426.73 137.506 1431.81 132.977C1432.18 132.646 1432.94 132.128 1433.08 132.247C1435.97 134.468 1436.96 131.517 1438.29 130.225C1445.47 123.251 1452.54 116.151 1459.64 109.09C1460.36 108.366 1461.05 107.605 1461.54 107.087C1454.11 99.6757 1446.84 92.4142 1439.69 85.2774C1431.05 93.9177 1422.3 102.676 1413.36 111.629C1414.73 113.17 1413.57 114.505 1412 116.12C1403.48 124.892 1395.08 133.769 1386.69 142.659C1386.25 143.127 1386.26 144.012 1386.05 144.711C1386.83 144.555 1387.83 144.642 1388.37 144.193C1389.89 142.927 1391.17 141.398 1392.63 140.051C1400.58 132.696 1408.53 125.341 1416.53 118.06C1417.08 117.568 1418.15 117.642 1418.98 117.455C1419.15 117.83 1419.33 118.21 1419.5 118.584C1416.81 121.279 1414.06 123.912 1411.44 126.67C1404.82 133.65 1398.25 140.662 1391.73 147.743C1391.26 148.267 1391.46 149.409 1391.34 150.257C1391.73 150.382 1392.11 150.507 1392.49 150.638C1397.18 145.903 1401.77 141.062 1406.61 136.47C1411.54 131.791 1416.68 127.325 1421.83 122.87C1422.3 122.465 1423.44 122.814 1424.94 122.814C1424.08 123.95 1423.86 124.305 1423.57 124.598C1414.86 133.756 1406.12 142.883 1397.45 152.091C1396.8 152.79 1396.73 154.025 1396.39 155.011C1397.32 154.624 1398.47 154.462 1399.14 153.813C1403.94 149.178 1408.55 144.343 1413.41 139.764C1417.75 135.678 1422.29 131.81 1426.84 127.955C1427.36 127.518 1428.47 127.774 1429.31 127.705C1429.33 128.005 1429.38 128.304 1429.44 128.597Z" fill="#1F8CC4"/>
<path d="M560.581 128.597C560.192 129.065 559.827 129.564 559.407 130.007C550.69 139.159 541.979 148.317 533.237 157.45C532.169 158.567 531.283 159.509 533.739 160.632C538.342 156.015 542.933 151.205 547.763 146.633C552.706 141.954 557.868 137.506 562.955 132.977C563.326 132.646 564.079 132.128 564.224 132.247C567.113 134.468 568.099 131.517 569.43 130.225C576.615 123.251 583.68 116.151 590.777 109.09C591.505 108.366 592.19 107.605 592.68 107.087C585.25 99.6757 577.977 92.4142 570.831 85.2774C562.195 93.9177 553.44 102.676 544.497 111.629C545.873 113.17 544.711 114.505 543.141 116.12C534.625 124.892 526.222 133.769 517.831 142.659C517.391 143.127 517.398 144.012 517.19 144.711C517.975 144.555 518.974 144.642 519.514 144.193C521.034 142.927 522.315 141.398 523.772 140.051C531.717 132.696 539.668 125.341 547.675 118.06C548.221 117.568 549.289 117.642 550.118 117.455C550.294 117.83 550.47 118.21 550.646 118.584C547.951 121.279 545.201 123.912 542.582 126.67C535.962 133.65 529.387 140.662 522.874 147.743C522.397 148.267 522.598 149.409 522.485 150.257C522.868 150.382 523.251 150.507 523.628 150.638C528.325 145.903 532.91 141.062 537.746 136.47C542.676 131.791 547.826 127.325 552.969 122.87C553.44 122.465 554.577 122.814 556.084 122.814C555.218 123.95 554.998 124.305 554.715 124.598C545.998 133.756 537.256 142.883 528.595 152.091C527.942 152.79 527.867 154.025 527.528 155.011C528.457 154.624 529.607 154.462 530.279 153.813C535.083 149.178 539.693 144.343 544.554 139.764C548.887 135.678 553.434 131.81 557.981 127.955C558.496 127.518 559.614 127.774 560.449 127.705C560.474 128.005 560.525 128.304 560.581 128.597Z" fill="#1F8CC4"/>
<path d="M1260.74 128.597C1260.35 129.065 1259.99 129.564 1259.56 130.007C1250.85 139.159 1242.14 148.317 1233.39 157.45C1232.33 158.567 1231.44 159.509 1233.9 160.632C1238.5 156.015 1243.09 151.205 1247.92 146.633C1252.86 141.954 1258.03 137.506 1263.11 132.977C1263.48 132.646 1264.24 132.128 1264.38 132.247C1267.27 134.468 1268.26 131.517 1269.59 130.225C1276.77 123.251 1283.84 116.151 1290.93 109.09C1291.66 108.366 1292.35 107.605 1292.84 107.087C1285.41 99.6757 1278.14 92.4142 1270.99 85.2774C1262.35 93.9177 1253.6 102.676 1244.66 111.629C1246.03 113.17 1244.87 114.505 1243.3 116.12C1234.78 124.892 1226.38 133.769 1217.99 142.659C1217.55 143.127 1217.56 144.012 1217.35 144.711C1218.13 144.555 1219.13 144.642 1219.67 144.193C1221.19 142.927 1222.47 141.398 1223.93 140.051C1231.87 132.696 1239.83 125.341 1247.83 118.06C1248.38 117.568 1249.45 117.642 1250.28 117.455C1250.45 117.83 1250.63 118.21 1250.8 118.584C1248.11 121.279 1245.36 123.912 1242.74 126.67C1236.12 133.65 1229.54 140.662 1223.03 147.743C1222.56 148.267 1222.76 149.409 1222.64 150.257C1223.03 150.382 1223.41 150.507 1223.79 150.638C1228.48 145.903 1233.07 141.062 1237.9 136.47C1242.83 131.791 1247.98 127.325 1253.13 122.87C1253.6 122.465 1254.74 122.814 1256.24 122.814C1255.38 123.95 1255.16 124.305 1254.87 124.598C1246.16 133.756 1237.41 142.883 1228.75 152.091C1228.1 152.79 1228.03 154.025 1227.69 155.011C1228.62 154.624 1229.76 154.462 1230.44 153.813C1235.24 149.178 1239.85 144.343 1244.71 139.764C1249.05 135.678 1253.59 131.81 1258.14 127.955C1258.65 127.518 1259.77 127.774 1260.61 127.705C1260.63 128.005 1260.68 128.304 1260.74 128.597Z" fill="#1F8CC4"/>
<path d="M1957.86 128.597C1957.48 129.065 1957.11 129.564 1956.69 130.007C1947.97 139.159 1939.26 148.317 1930.52 157.45C1929.45 158.567 1928.57 159.509 1931.02 160.632C1935.63 156.015 1940.22 151.205 1945.05 146.633C1949.99 141.954 1955.15 137.506 1960.24 132.977C1960.61 132.646 1961.36 132.128 1961.51 132.247C1964.4 134.468 1965.38 131.517 1966.71 130.225C1973.9 123.251 1980.96 116.151 1988.06 109.09C1988.79 108.366 1989.47 107.605 1989.96 107.087C1982.53 99.6757 1975.26 92.4142 1968.11 85.2774C1959.48 93.9177 1950.72 102.676 1941.78 111.629C1943.16 113.17 1941.99 114.505 1940.42 116.12C1931.91 124.892 1923.51 133.769 1915.11 142.659C1914.68 143.127 1914.68 144.012 1914.47 144.711C1915.26 144.555 1916.26 144.642 1916.8 144.193C1918.32 142.927 1919.6 141.398 1921.06 140.051C1929 132.696 1936.95 125.341 1944.96 118.06C1945.5 117.568 1946.57 117.642 1947.4 117.455C1947.58 117.83 1947.75 118.21 1947.93 118.584C1945.23 121.279 1942.48 123.912 1939.87 126.67C1933.25 133.65 1926.67 140.662 1920.16 147.743C1919.68 148.267 1919.88 149.409 1919.77 150.257C1920.15 150.382 1920.53 150.507 1920.91 150.638C1925.61 145.903 1930.19 141.062 1935.03 136.47C1939.96 131.791 1945.11 127.325 1950.25 122.87C1950.72 122.465 1951.86 122.814 1953.37 122.814C1952.5 123.95 1952.28 124.305 1952 124.598C1943.28 133.756 1934.54 142.883 1925.88 152.091C1925.23 152.79 1925.15 154.025 1924.81 155.011C1925.74 154.624 1926.89 154.462 1927.56 153.813C1932.37 149.178 1936.98 144.343 1941.84 139.764C1946.17 135.678 1950.72 131.81 1955.26 127.955C1955.78 127.518 1956.9 127.774 1957.73 127.705C1957.76 128.005 1957.81 128.304 1957.86 128.597Z" fill="#1F8CC4"/>
<path d="M208.96 128.597C208.57 129.065 208.206 129.564 207.785 130.007C199.068 139.159 190.357 148.317 181.615 157.45C180.548 158.567 179.662 159.509 182.118 160.632C186.721 156.015 191.312 151.205 196.142 146.633C201.084 141.954 206.247 137.506 211.334 132.977C211.704 132.646 212.458 132.128 212.602 132.247C215.491 134.468 216.477 131.517 217.809 130.225C224.993 123.251 232.059 116.151 239.156 109.09C239.884 108.366 240.569 107.605 241.059 107.087C233.629 99.6757 226.356 92.4142 219.209 85.2774C210.574 93.9177 201.819 102.676 192.876 111.629C194.251 113.17 193.089 114.505 191.519 116.12C183.003 124.892 174.6 133.769 166.21 142.659C165.77 143.127 165.776 144.012 165.569 144.711C166.354 144.555 167.353 144.642 167.893 144.193C169.413 142.927 170.694 141.398 172.151 140.051C180.095 132.696 188.046 125.341 196.054 118.06C196.6 117.568 197.668 117.642 198.497 117.455C198.673 117.83 198.848 118.21 199.024 118.584C196.33 121.279 193.579 123.912 190.96 126.67C184.341 133.65 177.765 140.662 171.253 147.743C170.775 148.267 170.976 149.409 170.863 150.257C171.246 150.382 171.629 150.507 172.006 150.638C176.704 145.903 181.289 141.062 186.125 136.47C191.055 131.791 196.204 127.325 201.348 122.87C201.819 122.465 202.956 122.814 204.463 122.814C203.596 123.95 203.377 124.305 203.094 124.598C194.377 133.756 185.635 142.883 176.974 152.091C176.321 152.79 176.246 154.025 175.906 155.011C176.836 154.624 177.985 154.462 178.657 153.813C183.462 149.178 188.071 144.343 192.932 139.764C197.266 135.678 201.813 131.81 206.36 127.955C206.875 127.518 207.993 127.774 208.828 127.705C208.853 128.005 208.903 128.304 208.96 128.597Z" fill="#1F8CC4"/>
<path d="M909.116 128.597C908.727 129.065 908.363 129.564 907.942 130.007C899.225 139.159 890.514 148.317 881.772 157.45C880.704 158.567 879.819 159.509 882.274 160.632C886.878 156.015 891.469 151.205 896.298 146.633C901.241 141.954 906.403 137.506 911.49 132.977C911.861 132.646 912.614 132.128 912.759 132.247C915.648 134.468 916.634 131.517 917.965 130.225C925.15 123.251 932.215 116.151 939.312 109.09C940.04 108.366 940.725 107.605 941.215 107.087C933.785 99.6757 926.513 92.4142 919.366 85.2774C910.73 93.9177 901.976 102.676 893.032 111.629C894.408 113.17 893.246 114.505 891.676 116.12C883.16 124.892 874.757 133.769 866.366 142.659C865.927 143.127 865.933 144.012 865.726 144.711C866.511 144.555 867.509 144.642 868.049 144.193C869.569 142.927 870.85 141.398 872.307 140.051C880.252 132.696 888.203 125.341 896.21 118.06C896.757 117.568 897.824 117.642 898.653 117.455C898.829 117.83 899.005 118.21 899.181 118.584C896.487 121.279 893.736 123.912 891.117 126.67C884.497 133.65 877.922 140.662 871.409 147.743C870.932 148.267 871.133 149.409 871.02 150.257C871.403 150.382 871.786 150.507 872.163 150.638C876.861 145.903 881.445 141.062 886.281 136.47C891.211 131.791 896.361 127.325 901.504 122.87C901.976 122.465 903.112 122.814 904.62 122.814C903.753 123.95 903.533 124.305 903.25 124.598C894.533 133.756 885.791 142.883 877.131 152.091C876.477 152.79 876.402 154.025 876.063 155.011C876.992 154.624 878.142 154.462 878.814 153.813C883.618 149.178 888.228 144.343 893.089 139.764C897.422 135.678 901.969 131.81 906.516 127.955C907.031 127.518 908.149 127.774 908.984 127.705C909.009 128.005 909.06 128.304 909.116 128.597Z" fill="#1F8CC4"/>
<path d="M1606.24 128.597C1605.85 129.065 1605.49 129.564 1605.07 130.007C1596.35 139.159 1587.64 148.317 1578.9 157.45C1577.83 158.567 1576.95 159.509 1579.4 160.632C1584 156.015 1588.6 151.205 1593.43 146.633C1598.37 141.954 1603.53 137.506 1608.62 132.977C1608.99 132.646 1609.74 132.128 1609.89 132.247C1612.77 134.468 1613.76 131.517 1615.09 130.225C1622.28 123.251 1629.34 116.151 1636.44 109.09C1637.17 108.366 1637.85 107.605 1638.34 107.087C1630.91 99.6757 1623.64 92.4142 1616.49 85.2774C1607.86 93.9177 1599.1 102.676 1590.16 111.629C1591.53 113.17 1590.37 114.505 1588.8 116.12C1580.29 124.892 1571.88 133.769 1563.49 142.659C1563.05 143.127 1563.06 144.012 1562.85 144.711C1563.64 144.555 1564.64 144.642 1565.18 144.193C1566.7 142.927 1567.98 141.398 1569.43 140.051C1577.38 132.696 1585.33 125.341 1593.34 118.06C1593.88 117.568 1594.95 117.642 1595.78 117.455C1595.96 117.83 1596.13 118.21 1596.31 118.584C1593.61 121.279 1590.86 123.912 1588.24 126.67C1581.62 133.65 1575.05 140.662 1568.54 147.743C1568.06 148.267 1568.26 149.409 1568.15 150.257C1568.53 150.382 1568.91 150.507 1569.29 150.638C1573.99 145.903 1578.57 141.062 1583.41 136.47C1588.34 131.791 1593.49 127.325 1598.63 122.87C1599.1 122.465 1600.24 122.814 1601.75 122.814C1600.88 123.95 1600.66 124.305 1600.38 124.598C1591.66 133.756 1582.92 142.883 1574.26 152.091C1573.6 152.79 1573.53 154.025 1573.19 155.011C1574.12 154.624 1575.27 154.462 1575.94 153.813C1580.75 149.178 1585.35 144.343 1590.22 139.764C1594.55 135.678 1599.1 131.81 1603.64 127.955C1604.16 127.518 1605.28 127.774 1606.11 127.705C1606.14 128.005 1606.19 128.304 1606.24 128.597Z" fill="#1F8CC4"/>
<path d="M383.778 128.597C383.389 129.065 383.025 129.564 382.604 130.007C373.887 139.159 365.176 148.317 356.434 157.45C355.366 158.567 354.481 159.509 356.936 160.632C361.54 156.015 366.131 151.205 370.96 146.633C375.903 141.954 381.065 137.506 386.152 132.977C386.523 132.646 387.276 132.128 387.421 132.247C390.31 134.468 391.296 131.517 392.627 130.225C399.812 123.251 406.877 116.151 413.974 109.09C414.703 108.366 415.387 107.605 415.877 107.087C408.447 99.6757 401.175 92.4142 394.028 85.2774C385.392 93.9177 376.638 102.676 367.694 111.629C369.07 113.17 367.908 114.505 366.338 116.12C357.822 124.892 349.419 133.769 341.028 142.659C340.589 143.127 340.595 144.012 340.388 144.711C341.173 144.555 342.171 144.642 342.711 144.193C344.231 142.927 345.512 141.398 346.969 140.051C354.914 132.696 362.865 125.341 370.872 118.06C371.419 117.568 372.486 117.642 373.315 117.455C373.491 117.83 373.667 118.21 373.843 118.584C371.149 121.279 368.398 123.912 365.779 126.67C359.159 133.65 352.584 140.662 346.071 147.743C345.594 148.267 345.795 149.409 345.682 150.257C346.065 150.382 346.448 150.507 346.825 150.638C351.523 145.903 356.107 141.062 360.943 136.47C365.873 131.791 371.023 127.325 376.167 122.87C376.638 122.465 377.774 122.814 379.282 122.814C378.415 123.95 378.195 124.305 377.912 124.598C369.195 133.756 360.453 142.883 351.793 152.091C351.139 152.79 351.064 154.025 350.725 155.011C351.654 154.624 352.804 154.462 353.476 153.813C358.28 149.178 362.89 144.343 367.751 139.764C372.084 135.678 376.631 131.81 381.178 127.955C381.693 127.518 382.811 127.774 383.646 127.705C383.672 128.005 383.722 128.304 383.778 128.597Z" fill="#1F8CC4"/>
<path d="M1083.93 128.597C1083.54 129.065 1083.18 129.564 1082.76 130.007C1074.04 139.159 1065.33 148.317 1056.59 157.45C1055.52 158.567 1054.64 159.509 1057.09 160.632C1061.7 156.015 1066.29 151.205 1071.12 146.633C1076.06 141.954 1081.22 137.506 1086.31 132.977C1086.68 132.646 1087.43 132.128 1087.58 132.247C1090.47 134.468 1091.45 131.517 1092.78 130.225C1099.97 123.251 1107.03 116.151 1114.13 109.09C1114.86 108.366 1115.54 107.605 1116.03 107.087C1108.6 99.6757 1101.33 92.4142 1094.18 85.2774C1085.55 93.9177 1076.79 102.676 1067.85 111.629C1069.23 113.17 1068.06 114.505 1066.49 116.12C1057.98 124.892 1049.57 133.769 1041.18 142.659C1040.74 143.127 1040.75 144.012 1040.54 144.711C1041.33 144.555 1042.33 144.642 1042.87 144.193C1044.39 142.927 1045.67 141.398 1047.13 140.051C1055.07 132.696 1063.02 125.341 1071.03 118.06C1071.57 117.568 1072.64 117.642 1073.47 117.455C1073.65 117.83 1073.82 118.21 1074 118.584C1071.3 121.279 1068.55 123.912 1065.93 126.67C1059.32 133.65 1052.74 140.662 1046.23 147.743C1045.75 148.267 1045.95 149.409 1045.84 150.257C1046.22 150.382 1046.6 150.507 1046.98 150.638C1051.68 145.903 1056.26 141.062 1061.1 136.47C1066.03 131.791 1071.18 127.325 1076.32 122.87C1076.79 122.465 1077.93 122.814 1079.44 122.814C1078.57 123.95 1078.35 124.305 1078.07 124.598C1069.35 133.756 1060.61 142.883 1051.95 152.091C1051.3 152.79 1051.22 154.025 1050.88 155.011C1051.81 154.624 1052.96 154.462 1053.63 153.813C1058.44 149.178 1063.05 144.343 1067.91 139.764C1072.24 135.678 1076.79 131.81 1081.33 127.955C1081.85 127.518 1082.97 127.774 1083.8 127.705C1083.83 128.005 1083.88 128.304 1083.93 128.597Z" fill="#1F8CC4"/>
<path d="M1781.06 128.597C1780.67 129.065 1780.31 129.564 1779.89 130.007C1771.17 139.159 1762.46 148.317 1753.72 157.45C1752.65 158.567 1751.76 159.509 1754.22 160.632C1758.82 156.015 1763.41 151.205 1768.24 146.633C1773.19 141.954 1778.35 137.506 1783.44 132.977C1783.81 132.646 1784.56 132.128 1784.7 132.247C1787.59 134.468 1788.58 131.517 1789.91 130.225C1797.1 123.251 1804.16 116.151 1811.26 109.09C1811.99 108.366 1812.67 107.605 1813.16 107.087C1805.73 99.6757 1798.46 92.4142 1791.31 85.2774C1782.68 93.9177 1773.92 102.676 1764.98 111.629C1766.35 113.17 1765.19 114.505 1763.62 116.12C1755.1 124.892 1746.7 133.769 1738.31 142.659C1737.87 143.127 1737.88 144.012 1737.67 144.711C1738.46 144.555 1739.45 144.642 1739.99 144.193C1741.51 142.927 1742.8 141.398 1744.25 140.051C1752.2 132.696 1760.15 125.341 1768.16 118.06C1768.7 117.568 1769.77 117.642 1770.6 117.455C1770.77 117.83 1770.95 118.21 1771.13 118.584C1768.43 121.279 1765.68 123.912 1763.06 126.67C1756.44 133.65 1749.87 140.662 1743.35 147.743C1742.88 148.267 1743.08 149.409 1742.96 150.257C1743.35 150.382 1743.73 150.507 1744.11 150.638C1748.81 145.903 1753.39 141.062 1758.23 136.47C1763.16 131.791 1768.31 127.325 1773.45 122.87C1773.92 122.465 1775.06 122.814 1776.56 122.814C1775.7 123.95 1775.48 124.305 1775.2 124.598C1766.48 133.756 1757.74 142.883 1749.08 152.091C1748.42 152.79 1748.35 154.025 1748.01 155.011C1748.94 154.624 1750.09 154.462 1750.76 153.813C1755.56 149.178 1760.17 144.343 1765.03 139.764C1769.37 135.678 1773.91 131.81 1778.46 127.955C1778.98 127.518 1780.09 127.774 1780.93 127.705C1780.95 128.005 1781 128.304 1781.06 128.597Z" fill="#1F8CC4"/>
<path d="M123.232 217.564C122.9 216.642 122.808 215.479 122.201 214.829C118.598 210.957 114.867 207.211 111.191 203.415C109.706 201.88 108.012 200.579 108.509 197.85C108.693 196.846 107.663 195.602 107.951 195.261C110.406 192.772 112.86 190.283 115.99 187.112C121.231 186.936 124.686 192.26 128.835 196.486C130.792 198.482 132.756 200.478 134.677 202.512C135.898 203.813 136.868 203.965 137.758 201.615C133.284 197.105 128.638 192.532 124.152 187.801C123.281 186.879 123.048 185.325 122.465 184.093C121.82 182.729 121.397 181.093 120.39 180.101C118.316 178.061 117.254 175.895 116.856 172.85C115.45 162.15 106.116 154.16 96.2111 154.709C84.913 155.341 76.5607 163.95 76.1864 175.345C75.8305 186.253 83.4586 195.501 94.2166 196.789C96.7695 197.092 98.4449 198.204 100.274 199.827C101.685 201.078 103.735 201.552 105.478 202.423C106.435 202.903 107.521 203.301 108.252 204.047C112.824 208.696 117.31 213.433 121.82 218.139C122.305 217.949 122.772 217.753 123.232 217.564Z" fill="#1F8CC4"/>
<path d="M823.388 217.564C823.057 216.642 822.965 215.479 822.357 214.829C818.755 210.957 815.023 207.211 811.347 203.415C809.862 201.88 808.168 200.579 808.665 197.85C808.85 196.846 807.819 195.602 808.107 195.261C810.562 192.772 813.017 190.283 816.146 187.112C821.387 186.936 824.842 192.26 828.991 196.486C830.949 198.482 832.912 200.478 834.833 202.512C836.055 203.813 837.024 203.965 837.914 201.615C833.44 197.105 828.795 192.532 824.308 187.801C823.437 186.879 823.204 185.325 822.621 184.093C821.976 182.729 821.553 181.093 820.547 180.101C818.472 178.061 817.411 175.895 817.012 172.85C815.606 162.15 806.272 154.16 796.367 154.709C785.069 155.341 776.717 163.95 776.342 175.345C775.986 186.253 783.615 195.501 794.373 196.789C796.926 197.092 798.601 198.204 800.43 199.827C801.841 201.078 803.891 201.552 805.634 202.423C806.591 202.903 807.677 203.301 808.408 204.047C812.98 208.696 817.466 213.433 821.976 218.139C822.461 217.949 822.928 217.753 823.388 217.564Z" fill="#1F8CC4"/>
<path d="M1520.51 217.564C1520.18 216.642 1520.09 215.479 1519.48 214.829C1515.88 210.957 1512.15 207.211 1508.47 203.415C1506.99 201.88 1505.3 200.579 1505.79 197.85C1505.98 196.846 1504.95 195.602 1505.23 195.261C1507.69 192.772 1510.14 190.283 1513.27 187.112C1518.51 186.936 1521.97 192.26 1526.12 196.486C1528.08 198.482 1530.04 200.478 1531.96 202.512C1533.18 203.813 1534.15 203.965 1535.04 201.615C1530.57 197.105 1525.92 192.532 1521.44 187.801C1520.56 186.879 1520.33 185.325 1519.75 184.093C1519.1 182.729 1518.68 181.093 1517.67 180.101C1515.6 178.061 1514.54 175.895 1514.14 172.85C1512.73 162.15 1503.4 154.16 1493.49 154.709C1482.2 155.341 1473.84 163.95 1473.47 175.345C1473.11 186.253 1480.74 195.501 1491.5 196.789C1494.05 197.092 1495.73 198.204 1497.56 199.827C1498.97 201.078 1501.02 201.552 1502.76 202.423C1503.72 202.903 1504.8 203.301 1505.53 204.047C1510.11 208.696 1514.59 213.433 1519.1 218.139C1519.59 217.949 1520.05 217.753 1520.51 217.564Z" fill="#1F8CC4"/>
<path d="M651.658 217.564C651.326 216.642 651.234 215.479 650.627 214.829C647.024 210.957 643.293 207.211 639.617 203.415C638.132 201.88 636.438 200.579 636.935 197.85C637.119 196.846 636.088 195.602 636.377 195.261C638.831 192.772 641.286 190.283 644.416 187.112C649.657 186.936 653.112 192.26 657.261 196.486C659.218 198.482 661.182 200.478 663.103 202.512C664.324 203.813 665.294 203.965 666.184 201.615C661.71 197.105 657.064 192.532 652.578 187.801C651.707 186.879 651.473 185.325 650.89 184.093C650.246 182.729 649.823 181.093 648.816 180.101C646.742 178.061 645.68 175.895 645.281 172.85C643.876 162.15 634.542 154.16 624.637 154.709C613.339 155.341 604.986 163.95 604.612 175.345C604.256 186.253 611.884 195.501 622.642 196.789C625.195 197.092 626.871 198.204 628.699 199.827C630.111 201.078 632.161 201.552 633.903 202.423C634.861 202.903 635.947 203.301 636.677 204.047C641.249 208.696 645.735 213.433 650.246 218.139C650.731 217.949 651.197 217.753 651.658 217.564Z" fill="#1F8CC4"/>
<path d="M1351.81 217.564C1351.48 216.642 1351.39 215.479 1350.78 214.829C1347.18 210.957 1343.45 207.211 1339.77 203.415C1338.29 201.88 1336.59 200.579 1337.09 197.85C1337.28 196.846 1336.24 195.602 1336.53 195.261C1338.99 192.772 1341.44 190.283 1344.57 187.112C1349.81 186.936 1353.27 192.26 1357.42 196.486C1359.37 198.482 1361.34 200.478 1363.26 202.512C1364.48 203.813 1365.45 203.965 1366.34 201.615C1361.87 197.105 1357.22 192.532 1352.73 187.801C1351.86 186.879 1351.63 185.325 1351.05 184.093C1350.4 182.729 1349.98 181.093 1348.97 180.101C1346.9 178.061 1345.84 175.895 1345.44 172.85C1344.03 162.15 1334.7 154.16 1324.79 154.709C1313.49 155.341 1305.14 163.95 1304.77 175.345C1304.41 186.253 1312.04 195.501 1322.8 196.789C1325.35 197.092 1327.03 198.204 1328.86 199.827C1330.27 201.078 1332.32 201.552 1334.06 202.423C1335.02 202.903 1336.1 203.301 1336.83 204.047C1341.41 208.696 1345.89 213.433 1350.4 218.139C1350.89 217.949 1351.35 217.753 1351.81 217.564Z" fill="#1F8CC4"/>
<path d="M301.554 217.564C301.212 216.642 301.117 215.479 300.49 214.829C296.771 210.957 292.92 207.211 289.125 203.415C287.592 201.88 285.844 200.579 286.357 197.85C286.547 196.846 285.483 195.602 285.78 195.261C288.314 192.772 290.848 190.283 294.079 187.112C299.489 186.936 303.056 192.26 307.338 196.486C309.359 198.482 311.386 200.478 313.369 202.512C314.629 203.813 315.63 203.965 316.549 201.615C311.931 197.105 307.135 192.532 302.504 187.801C301.605 186.879 301.364 185.325 300.762 184.093C300.097 182.729 299.66 181.093 298.621 180.101C296.48 178.061 295.384 175.895 294.972 172.85C293.521 162.15 283.886 154.16 273.662 154.709C261.999 155.341 253.377 163.95 252.991 175.345C252.623 186.253 260.498 195.501 271.603 196.789C274.238 197.092 275.968 198.204 277.855 199.827C279.312 201.078 281.428 201.552 283.227 202.423C284.216 202.903 285.337 203.301 286.091 204.047C290.81 208.696 295.441 213.433 300.097 218.139C300.598 217.949 301.079 217.753 301.554 217.564Z" fill="#1F8CC4"/>
<path d="M1001.71 217.564C1001.37 216.642 1001.27 215.479 1000.65 214.829C996.928 210.957 993.076 207.211 989.282 203.415C987.749 201.88 986 200.579 986.513 197.85C986.703 196.846 985.639 195.602 985.937 195.261C988.471 192.772 991.005 190.283 994.235 187.112C999.645 186.936 1003.21 192.26 1007.49 196.486C1009.52 198.482 1011.54 200.478 1013.52 202.512C1014.79 203.813 1015.79 203.965 1016.71 201.615C1012.09 197.105 1007.29 192.532 1002.66 187.801C1001.76 186.879 1001.52 185.325 1000.92 184.093C1000.25 182.729 999.816 181.093 998.777 180.101C996.636 178.061 995.54 175.895 995.129 172.85C993.678 162.15 984.043 154.16 973.818 154.709C962.156 155.341 953.534 163.95 953.148 175.345C952.78 186.253 960.654 195.501 971.759 196.789C974.395 197.092 976.124 198.204 978.012 199.827C979.469 201.078 981.585 201.552 983.384 202.423C984.372 202.903 985.493 203.301 986.247 204.047C990.967 208.696 995.597 213.433 1000.25 218.139C1000.75 217.949 1001.24 217.753 1001.71 217.564Z" fill="#1F8CC4"/>
<path d="M1698.84 217.564C1698.5 216.642 1698.4 215.479 1697.77 214.829C1694.05 210.957 1690.2 207.211 1686.41 203.415C1684.88 201.88 1683.13 200.579 1683.64 197.85C1683.83 196.846 1682.77 195.602 1683.06 195.261C1685.6 192.772 1688.13 190.283 1691.36 187.112C1696.77 186.936 1700.34 192.26 1704.62 196.486C1706.64 198.482 1708.67 200.478 1710.65 202.512C1711.91 203.813 1712.91 203.965 1713.83 201.615C1709.21 197.105 1704.42 192.532 1699.79 187.801C1698.89 186.879 1698.65 185.325 1698.05 184.093C1697.38 182.729 1696.94 181.093 1695.9 180.101C1693.76 178.061 1692.67 175.895 1692.26 172.85C1690.8 162.15 1681.17 154.16 1670.94 154.709C1659.28 155.341 1650.66 163.95 1650.27 175.345C1649.91 186.253 1657.78 195.501 1668.89 196.789C1671.52 197.092 1673.25 198.204 1675.14 199.827C1676.6 201.078 1678.71 201.552 1680.51 202.423C1681.5 202.903 1682.62 203.301 1683.37 204.047C1688.09 208.696 1692.72 213.433 1697.38 218.139C1697.88 217.949 1698.36 217.753 1698.84 217.564Z" fill="#1F8CC4"/>
<path d="M476.371 217.564C476.029 216.642 475.934 215.479 475.306 214.829C471.588 210.957 467.736 207.211 463.942 203.415C462.409 201.88 460.66 200.579 461.173 197.85C461.363 196.846 460.299 195.602 460.597 195.261C463.131 192.772 465.665 190.283 468.896 187.112C474.306 186.936 477.872 192.26 482.154 196.486C484.175 198.482 486.202 200.478 488.185 202.512C489.446 203.813 490.447 203.965 491.365 201.615C486.747 197.105 481.952 192.532 477.321 187.801C476.421 186.879 476.181 185.325 475.579 184.093C474.914 182.729 474.477 181.093 473.438 180.101C471.296 178.061 470.201 175.895 469.789 172.85C468.338 162.15 458.703 154.16 448.478 154.709C436.816 155.341 428.194 163.95 427.808 175.345C427.44 186.253 435.315 195.501 446.42 196.789C449.055 197.092 450.784 198.204 452.672 199.827C454.129 201.078 456.245 201.552 458.044 202.423C459.032 202.903 460.154 203.301 460.907 204.047C465.627 208.696 470.258 213.433 474.914 218.139C475.414 217.949 475.896 217.753 476.371 217.564Z" fill="#1F8CC4"/>
<path d="M1176.53 217.564C1176.19 216.642 1176.09 215.479 1175.46 214.829C1171.75 210.957 1167.89 207.211 1164.1 203.415C1162.57 201.88 1160.82 200.579 1161.33 197.85C1161.52 196.846 1160.46 195.602 1160.75 195.261C1163.29 192.772 1165.82 190.283 1169.05 187.112C1174.46 186.936 1178.03 192.26 1182.31 196.486C1184.33 198.482 1186.36 200.478 1188.34 202.512C1189.6 203.813 1190.6 203.965 1191.52 201.615C1186.91 197.105 1182.11 192.532 1177.48 187.801C1176.58 186.879 1176.34 185.325 1175.74 184.093C1175.07 182.729 1174.63 181.093 1173.6 180.101C1171.45 178.061 1170.36 175.895 1169.95 172.85C1168.5 162.15 1158.86 154.16 1148.64 154.709C1136.97 155.341 1128.35 163.95 1127.97 175.345C1127.6 186.253 1135.47 195.501 1146.58 196.789C1149.21 197.092 1150.94 198.204 1152.83 199.827C1154.29 201.078 1156.4 201.552 1158.2 202.423C1159.19 202.903 1160.31 203.301 1161.07 204.047C1165.78 208.696 1170.42 213.433 1175.07 218.139C1175.57 217.949 1176.05 217.753 1176.53 217.564Z" fill="#1F8CC4"/>
<path d="M1873.65 217.564C1873.31 216.642 1873.22 215.479 1872.59 214.829C1868.87 210.957 1865.02 207.211 1861.22 203.415C1859.69 201.88 1857.94 200.579 1858.46 197.85C1858.65 196.846 1857.58 195.602 1857.88 195.261C1860.41 192.772 1862.95 190.283 1866.18 187.112C1871.59 186.936 1875.16 192.26 1879.44 196.486C1881.46 198.482 1883.49 200.478 1885.47 202.512C1886.73 203.813 1887.73 203.965 1888.65 201.615C1884.03 197.105 1879.23 192.532 1874.6 187.801C1873.7 186.879 1873.46 185.325 1872.86 184.093C1872.2 182.729 1871.76 181.093 1870.72 180.101C1868.58 178.061 1867.48 175.895 1867.07 172.85C1865.62 162.15 1855.99 154.16 1845.76 154.709C1834.1 155.341 1825.48 163.95 1825.09 175.345C1824.72 186.253 1832.6 195.501 1843.7 196.789C1846.34 197.092 1848.07 198.204 1849.95 199.827C1851.41 201.078 1853.53 201.552 1855.33 202.423C1856.32 202.903 1857.44 203.301 1858.19 204.047C1862.91 208.696 1867.54 213.433 1872.2 218.139C1872.7 217.949 1873.18 217.753 1873.65 217.564Z" fill="#1F8CC4"/>
<path d="M1952.22 58.2781C1951.12 57.3108 1950.2 56.5058 1949.09 55.5323C1948.13 56.4309 1947.29 57.1673 1946.5 57.9474C1926.38 77.9358 1906.26 97.9241 1886.18 117.944C1884.69 119.429 1883.51 120.271 1881.09 119.585C1876.33 118.243 1871.8 120.552 1869.78 124.696C1867.84 128.671 1868.79 133.458 1872.08 136.384C1875.28 139.224 1880.48 139.636 1884.05 137.321C1887.93 134.812 1889.65 130.057 1887.8 125.538C1886.88 123.292 1887.94 122.356 1889.22 121.089C1909.41 101.032 1929.6 80.9562 1949.78 60.8866C1950.5 60.1752 1951.16 59.4139 1952.22 58.2781ZM1878.78 122.393C1882.32 122.474 1885.3 125.482 1885.3 129.002C1885.31 132.678 1882.19 135.735 1878.52 135.661C1874.94 135.586 1871.74 132.235 1871.92 128.74C1872.09 125.308 1875.32 122.318 1878.78 122.393Z" fill="#1F8CC4"/>
<path d="M28.6771 182.366C44.2131 166.918 59.3605 151.865 74.7899 136.523C73.7805 135.554 72.9028 134.709 72.2194 134.046C55.7492 150.544 39.5172 166.812 23.0846 183.273C28.8401 188.341 35.0031 193.778 41.1786 199.208C67.7304 222.577 94.2696 245.945 120.846 269.276C122.376 270.621 123.122 271.691 122.42 273.987C121.022 278.536 123.172 282.997 127.172 285.124C131.179 287.258 136.357 286.394 139.229 283.116C142.251 279.668 142.577 274.707 140.031 270.94C137.48 267.168 132.884 265.522 128.451 267.33C126.27 268.219 125.179 267.299 123.831 266.11C97.1348 242.604 70.4263 219.104 43.7241 195.605C38.8777 191.35 34.0376 187.089 28.6771 182.366ZM131.793 269.783C135.21 269.72 138.407 272.786 138.533 276.234C138.665 279.906 135.649 283.053 131.956 283.097C128.339 283.141 125.354 280.313 125.229 276.722C125.097 273.124 128.201 269.846 131.793 269.783Z" fill="#1F8CC4"/>
<path d="M131.799 271.848C129.304 271.885 127.26 273.975 127.266 276.471C127.272 279.118 129.46 281.189 132.119 281.064C134.595 280.945 136.607 278.78 136.526 276.315C136.444 273.893 134.238 271.81 131.799 271.848Z" fill="#1F8CC4"/>
<path d="M728.834 182.366C744.37 166.918 759.517 151.865 774.947 136.523C773.938 135.554 773.06 134.709 772.376 134.046C755.906 150.544 739.674 166.812 723.241 183.273C728.997 188.341 735.16 193.778 741.336 199.208C767.887 222.577 794.427 245.945 821.004 269.276C822.533 270.621 823.279 271.691 822.577 273.987C821.179 278.536 823.33 282.997 827.33 285.124C831.336 287.258 836.515 286.394 839.386 283.116C842.408 279.668 842.734 274.707 840.189 270.94C837.637 267.168 833.041 265.522 828.609 267.33C826.427 268.219 825.336 267.299 823.988 266.11C797.292 242.604 770.583 219.104 743.881 195.605C739.035 191.35 734.194 187.089 728.834 182.366ZM831.95 269.783C835.367 269.72 838.565 272.786 838.69 276.234C838.822 279.906 835.806 283.053 832.113 283.097C828.496 283.141 825.511 280.313 825.386 276.722C825.254 273.124 828.358 269.846 831.95 269.783Z" fill="#1F8CC4"/>
<path d="M831.956 271.848C829.46 271.885 827.416 273.975 827.423 276.471C827.429 279.118 829.617 281.189 832.275 281.064C834.752 280.945 836.765 278.78 836.683 276.315C836.602 273.893 834.395 271.81 831.956 271.848Z" fill="#1F8CC4"/>
<path d="M1425.96 182.366C1441.5 166.918 1456.64 151.865 1472.07 136.523C1471.06 135.554 1470.19 134.709 1469.5 134.046C1453.03 150.544 1436.8 166.812 1420.37 183.273C1426.12 188.341 1432.29 193.778 1438.46 199.208C1465.01 222.577 1491.55 245.945 1518.13 269.276C1519.66 270.621 1520.41 271.691 1519.7 273.987C1518.31 278.536 1520.46 282.997 1524.46 285.124C1528.46 287.258 1533.64 286.394 1536.51 283.116C1539.53 279.668 1539.86 274.707 1537.32 270.94C1534.76 267.168 1530.17 265.522 1525.74 267.33C1523.55 268.219 1522.46 267.299 1521.11 266.11C1494.42 242.604 1467.71 219.104 1441.01 195.605C1436.16 191.35 1431.32 187.089 1425.96 182.366ZM1529.08 269.783C1532.49 269.72 1535.69 272.786 1535.82 276.234C1535.95 279.906 1532.93 283.053 1529.24 283.097C1525.62 283.141 1522.64 280.313 1522.51 276.722C1522.38 273.124 1525.48 269.846 1529.08 269.783Z" fill="#1F8CC4"/>
<path d="M1529.08 271.848C1526.59 271.885 1524.54 273.975 1524.55 276.471C1524.56 279.118 1526.74 281.189 1529.4 281.064C1531.88 280.945 1533.89 278.78 1533.81 276.315C1533.73 273.893 1531.52 271.81 1529.08 271.848Z" fill="#1F8CC4"/>
<path d="M556.75 182.366C572.286 166.918 587.434 151.865 602.863 136.523C601.854 135.554 600.976 134.709 600.293 134.046C583.823 150.544 567.591 166.812 551.158 183.273C556.913 188.341 563.076 193.778 569.252 199.208C595.804 222.577 622.343 245.945 648.92 269.276C650.449 270.621 651.195 271.691 650.493 273.987C649.095 278.536 651.246 282.997 655.246 285.124C659.252 287.258 664.431 286.394 667.302 283.116C670.324 279.668 670.65 274.707 668.105 270.94C665.553 267.168 660.957 265.522 656.525 267.33C654.343 268.219 653.252 267.299 651.904 266.11C625.208 242.604 598.5 219.104 571.797 195.605C566.951 191.35 562.111 187.089 556.75 182.366ZM659.866 269.783C663.283 269.72 666.481 272.786 666.606 276.234C666.738 279.906 663.722 283.053 660.029 283.097C656.412 283.141 653.427 280.313 653.302 276.722C653.17 273.124 656.274 269.846 659.866 269.783Z" fill="#1F8CC4"/>
<path d="M659.872 271.848C657.377 271.885 655.333 273.975 655.339 276.471C655.345 279.118 657.533 281.189 660.192 281.064C662.668 280.945 664.681 278.78 664.599 276.315C664.518 273.893 662.311 271.81 659.872 271.848Z" fill="#1F8CC4"/>
<path d="M1256.91 182.366C1272.44 166.918 1287.59 151.865 1303.02 136.523C1302.01 135.554 1301.13 134.709 1300.45 134.046C1283.98 150.544 1267.75 166.812 1251.32 183.273C1257.07 188.341 1263.23 193.778 1269.41 199.208C1295.96 222.577 1322.5 245.945 1349.08 269.276C1350.61 270.621 1351.35 271.691 1350.65 273.987C1349.25 278.536 1351.4 282.997 1355.4 285.124C1359.41 287.258 1364.59 286.394 1367.46 283.116C1370.48 279.668 1370.81 274.707 1368.26 270.94C1365.71 267.168 1361.12 265.522 1356.68 267.33C1354.5 268.219 1353.41 267.299 1352.06 266.11C1325.37 242.604 1298.66 219.104 1271.96 195.605C1267.11 191.35 1262.27 187.089 1256.91 182.366ZM1360.02 269.783C1363.44 269.72 1366.64 272.786 1366.76 276.234C1366.9 279.906 1363.88 283.053 1360.19 283.097C1356.57 283.141 1353.59 280.313 1353.46 276.722C1353.33 273.124 1356.43 269.846 1360.02 269.783Z" fill="#1F8CC4"/>
<path d="M1360.03 271.848C1357.53 271.885 1355.49 273.975 1355.5 276.471C1355.5 279.118 1357.69 281.189 1360.35 281.064C1362.83 280.945 1364.84 278.78 1364.76 276.315C1364.68 273.893 1362.47 271.81 1360.03 271.848Z" fill="#1F8CC4"/>
<path d="M369.399 337.704C370.465 336.478 371.205 335.627 372.195 334.489C367.8 330.334 363.524 326.261 359.205 322.219C331.267 296.067 303.317 269.927 275.38 243.78C268.377 237.223 261.455 230.579 254.333 224.159C252.446 222.458 251.963 221.112 252.678 218.597C254.214 213.198 250.765 207.98 245.33 206.747C240.082 205.558 234.885 208.781 233.58 214.03C232.283 219.248 235.399 224.566 240.696 225.824C242.264 226.199 244.233 226.443 245.587 225.817C248.27 224.579 249.693 225.724 251.505 227.432C287.693 261.399 323.944 295.31 360.183 329.22C363.142 331.992 366.145 334.708 369.399 337.704ZM243.035 209.782C246.878 209.732 249.812 212.591 249.794 216.376C249.781 219.924 246.878 222.908 243.317 223.027C239.844 223.146 236.49 219.867 236.477 216.332C236.458 212.841 239.468 209.832 243.035 209.782Z" fill="#1F8CC4"/>
<path d="M238.572 216.295C238.534 218.804 240.503 220.837 243.055 220.925C245.607 221.012 247.619 219.123 247.726 216.545C247.839 213.755 245.939 211.784 243.161 211.815C240.528 211.847 238.616 213.717 238.572 216.295Z" fill="#1F8CC4"/>
<path d="M1069.56 337.704C1070.62 336.478 1071.36 335.627 1072.35 334.489C1067.96 330.334 1063.68 326.261 1059.36 322.219C1031.42 296.067 1003.47 269.927 975.536 243.78C968.533 237.223 961.611 230.579 954.489 224.159C952.602 222.458 952.119 221.112 952.834 218.597C954.37 213.198 950.922 207.98 945.486 206.747C940.238 205.558 935.041 208.781 933.737 214.03C932.439 219.248 935.555 224.566 940.853 225.824C942.42 226.199 944.389 226.443 945.743 225.817C948.427 224.579 949.85 225.724 951.662 227.432C987.85 261.399 1024.1 295.31 1060.34 329.22C1063.3 331.992 1066.3 334.708 1069.56 337.704ZM943.191 209.782C947.035 209.732 949.969 212.591 949.95 216.376C949.937 219.924 947.035 222.908 943.474 223.027C940 223.146 936.646 219.867 936.633 216.332C936.615 212.841 939.624 209.832 943.191 209.782Z" fill="#1F8CC4"/>
<path d="M938.728 216.295C938.691 218.804 940.659 220.837 943.211 220.925C945.763 221.012 947.775 219.123 947.882 216.545C947.995 213.755 946.095 211.784 943.318 211.815C940.684 211.846 938.772 213.717 938.728 216.295Z" fill="#1F8CC4"/>
<path d="M1766.68 337.704C1767.75 336.478 1768.49 335.627 1769.48 334.489C1765.08 330.334 1760.81 326.261 1756.49 322.219C1728.55 296.067 1700.6 269.927 1672.66 243.78C1665.66 237.223 1658.74 230.579 1651.62 224.159C1649.73 222.458 1649.25 221.112 1649.96 218.597C1651.5 213.198 1648.05 207.98 1642.61 206.747C1637.37 205.558 1632.17 208.781 1630.86 214.03C1629.57 219.248 1632.68 224.566 1637.98 225.824C1639.55 226.199 1641.52 226.443 1642.87 225.817C1645.55 224.579 1646.98 225.724 1648.79 227.432C1684.98 261.399 1721.23 295.31 1757.47 329.22C1760.43 331.992 1763.43 334.708 1766.68 337.704ZM1640.32 209.782C1644.16 209.732 1647.1 212.591 1647.08 216.376C1647.06 219.924 1644.16 222.908 1640.6 223.027C1637.13 223.146 1633.77 219.867 1633.76 216.332C1633.74 212.841 1636.75 209.832 1640.32 209.782Z" fill="#1F8CC4"/>
<path d="M1635.86 216.295C1635.82 218.804 1637.79 220.837 1640.34 220.925C1642.89 221.012 1644.9 219.123 1645.01 216.545C1645.12 213.755 1643.22 211.784 1640.44 211.815C1637.81 211.846 1635.9 213.717 1635.86 216.295Z" fill="#1F8CC4"/>
<path d="M520.819 314.612C521.885 313.385 522.625 312.535 523.615 311.396C519.22 307.241 514.944 303.168 510.625 299.127C482.687 272.974 454.737 246.834 426.8 220.687C419.797 214.13 412.875 207.486 405.753 201.067C403.866 199.365 403.383 198.02 404.098 195.505C405.634 190.105 402.186 184.887 396.75 183.655C391.502 182.466 386.305 185.688 385.001 190.937C383.703 196.155 386.819 201.473 392.117 202.731C393.684 203.106 395.653 203.35 397.007 202.725C399.69 201.486 401.114 202.631 402.926 204.339C439.114 238.306 475.364 272.217 511.603 306.128C514.562 308.899 517.565 311.615 520.819 314.612ZM394.455 186.689C398.299 186.639 401.233 189.498 401.214 193.283C401.201 196.831 398.299 199.815 394.737 199.934C391.264 200.053 387.91 196.775 387.897 193.24C387.878 189.748 390.888 186.739 394.455 186.689Z" fill="#1F8CC4"/>
<path d="M389.992 193.202C389.954 195.711 391.923 197.745 394.475 197.832C397.027 197.92 399.039 196.03 399.146 193.452C399.258 190.662 397.359 188.691 394.581 188.722C391.948 188.754 390.036 190.624 389.992 193.202Z" fill="#1F8CC4"/>
<path d="M1220.98 314.612C1222.04 313.385 1222.78 312.535 1223.77 311.396C1219.38 307.241 1215.1 303.168 1210.78 299.127C1182.85 272.974 1154.9 246.834 1126.96 220.687C1119.96 214.13 1113.03 207.486 1105.91 201.067C1104.02 199.365 1103.54 198.02 1104.26 195.505C1105.79 190.105 1102.34 184.887 1096.91 183.655C1091.66 182.466 1086.46 185.688 1085.16 190.937C1083.86 196.155 1086.98 201.473 1092.27 202.731C1093.84 203.106 1095.81 203.35 1097.17 202.725C1099.85 201.486 1101.27 202.631 1103.08 204.339C1139.27 238.306 1175.52 272.217 1211.76 306.128C1214.72 308.899 1217.72 311.615 1220.98 314.612ZM1094.61 186.689C1098.46 186.639 1101.39 189.498 1101.37 193.283C1101.36 196.831 1098.46 199.815 1094.9 199.934C1091.42 200.053 1088.07 196.775 1088.06 193.24C1088.04 189.748 1091.05 186.739 1094.61 186.689Z" fill="#1F8CC4"/>
<path d="M1090.15 193.202C1090.11 195.711 1092.08 197.745 1094.63 197.832C1097.18 197.92 1099.2 196.03 1099.3 193.452C1099.42 190.662 1097.52 188.691 1094.74 188.722C1092.11 188.754 1090.19 190.624 1090.15 193.202Z" fill="#1F8CC4"/>
<path d="M1918.1 314.612C1919.17 313.385 1919.91 312.535 1920.9 311.396C1916.51 307.241 1912.23 303.168 1907.91 299.127C1879.97 272.974 1852.02 246.834 1824.08 220.687C1817.08 214.13 1810.16 207.486 1803.04 201.067C1801.15 199.365 1800.67 198.02 1801.38 195.505C1802.92 190.105 1799.47 184.887 1794.03 183.655C1788.79 182.466 1783.59 185.688 1782.29 190.937C1780.99 196.155 1784.1 201.473 1789.4 202.731C1790.97 203.106 1792.94 203.35 1794.29 202.725C1796.98 201.486 1798.4 202.631 1800.21 204.339C1836.4 238.306 1872.65 272.217 1908.89 306.128C1911.85 308.899 1914.85 311.615 1918.1 314.612ZM1791.74 186.689C1795.58 186.639 1798.52 189.498 1798.5 193.283C1798.49 196.831 1795.58 199.815 1792.02 199.934C1788.55 200.053 1785.19 196.775 1785.18 193.24C1785.16 189.748 1788.17 186.739 1791.74 186.689Z" fill="#1F8CC4"/>
<path d="M1787.28 193.202C1787.24 195.711 1789.21 197.745 1791.76 197.832C1794.31 197.92 1796.32 196.03 1796.43 193.452C1796.54 190.662 1794.64 188.691 1791.87 188.722C1789.23 188.754 1787.32 190.624 1787.28 193.202Z" fill="#1F8CC4"/>
<path d="M657.137 128.827C657.13 126.654 654.972 124.937 652.238 124.937C649.585 124.937 647.28 126.708 647.206 128.817C647.132 130.963 649.645 132.932 652.386 132.868C655.106 132.793 657.143 131.065 657.137 128.827Z" fill="#1F8CC4"/>
<path d="M1354.26 128.827C1354.26 126.654 1352.1 124.937 1349.37 124.937C1346.71 124.937 1344.41 126.708 1344.33 128.817C1344.26 130.963 1346.77 132.932 1349.51 132.868C1352.23 132.793 1354.27 131.065 1354.26 128.827Z" fill="#1F8CC4"/>
</svg>
