<svg width="936" height="850" viewBox="0 0 936 850" fill="none" xmlns="http://www.w3.org/2000/svg">
<path d="M3.04275 408.561C3.14181 406.156 2.95173 404.7 3.04276 402.465C12.0017 402.444 673.201 402.953 681.965 402.977C738.654 403.117 795.344 403.281 852.027 403.428C866.239 403.462 880.452 403.319 894.652 403.622C898.415 403.701 900.303 402.74 902.091 399.3C905.928 391.914 914.949 389.784 922.057 393.972C928.919 398.017 931.24 406.77 927.307 413.758C923.398 420.706 914.633 423.282 907.648 419.261C905.578 418.075 903.209 416.34 902.386 414.29C900.756 410.229 898.058 410.02 894.37 410.023C820.846 409.94 747.312 409.734 673.791 409.539C667.785 409.525 9.59552 408.631 3.04275 408.561ZM921.443 399.576C917.354 395.621 911.286 395.728 907.457 399.831C903.862 403.672 903.954 409.839 907.669 413.583C911.289 417.237 918.237 417.104 921.845 413.303C925.416 409.554 925.235 403.252 921.443 399.576Z" fill="#FFDE00"/>
<path d="M919.922 411.525C917.411 414.27 913.223 414.466 910.385 411.97C907.547 409.474 907.301 405.392 909.808 402.503C912.524 399.377 916.575 399.179 919.535 402.032C922.339 404.739 922.496 408.699 919.922 411.525Z" fill="#FFDE00"/>
</svg>
