<svg width="52" height="52" viewBox="0 0 52 52" fill="none" xmlns="http://www.w3.org/2000/svg">
<g opacity="0.75" clip-path="url(#clip0)" filter="url(#filter0_d)">
<path d="M14.6863 37.3137C11.6857 34.3131 9.99998 30.2435 9.99998 26C9.99998 21.7565 11.6857 17.6869 14.6863 14.6863C17.6868 11.6857 21.7565 10 26 10C30.2434 10 34.3131 11.6857 37.3137 14.6863C40.3143 17.6869 42 21.7565 42 26C42 30.2435 40.3143 34.3131 37.3137 37.3137C34.3131 40.3143 30.2434 42 26 42C21.7565 42 17.6868 40.3143 14.6863 37.3137ZM19.0717 25.0002C18.939 24.9978 18.8071 25.022 18.6838 25.0712C18.5604 25.1204 18.4481 25.1937 18.3534 25.2868C18.2587 25.3798 18.1835 25.4909 18.1322 25.6133C18.0808 25.7358 18.0544 25.8672 18.0544 26C18.0544 26.1328 18.0808 26.2642 18.1322 26.3867C18.1835 26.5091 18.2587 26.6202 18.3534 26.7132C18.4481 26.8063 18.5604 26.8796 18.6838 26.9288C18.8071 26.978 18.939 27.0022 19.0717 26.9998H30.657L26.7424 30.9144C26.5549 31.1019 26.4495 31.3563 26.4495 31.6215C26.4495 31.8867 26.5549 32.1411 26.7424 32.3286C26.93 32.5161 27.1843 32.6215 27.4495 32.6215C27.7148 32.6215 27.9691 32.5161 28.1567 32.3286L33.7781 26.7071C33.9657 26.5196 34.071 26.2652 34.071 26C34.071 25.7348 33.9657 25.4804 33.7781 25.2929L28.1567 19.6714C27.9691 19.4839 27.7148 19.3785 27.4495 19.3785C27.1843 19.3785 26.93 19.4839 26.7424 19.6714C26.5549 19.8589 26.4495 20.1133 26.4495 20.3785C26.4495 20.6437 26.5549 20.8981 26.7424 21.0856L30.657 25.0002H19.0717Z" fill="white"/>
</g>
<defs>
<filter id="filter0_d" x="0" y="0" width="52" height="52" filterUnits="userSpaceOnUse" color-interpolation-filters="sRGB">
<feFlood flood-opacity="0" result="BackgroundImageFix"/>
<feColorMatrix in="SourceAlpha" type="matrix" values="0 0 0 0 0 0 0 0 0 0 0 0 0 0 0 0 0 0 127 0"/>
<feOffset/>
<feGaussianBlur stdDeviation="5"/>
<feColorMatrix type="matrix" values="0 0 0 0 0 0 0 0 0 0 0 0 0 0 0 0 0 0 0.1 0"/>
<feBlend mode="normal" in2="BackgroundImageFix" result="effect1_dropShadow"/>
<feBlend mode="normal" in="SourceGraphic" in2="effect1_dropShadow" result="shape"/>
</filter>
<clipPath id="clip0">
<rect width="32" height="32" fill="white" transform="translate(10 10)"/>
</clipPath>
</defs>
</svg>
