<svg width="52" height="52" viewBox="0 0 52 52" fill="none" xmlns="http://www.w3.org/2000/svg">
<g opacity="0.75" clip-path="url(#clip0)" filter="url(#filter0_d)">
<path d="M37.3137 14.6863C40.3143 17.6869 42 21.7565 42 26C42 30.2435 40.3143 34.3131 37.3137 37.3137C34.3132 40.3143 30.2435 42 26 42C21.7566 42 17.6869 40.3143 14.6863 37.3137C11.6857 34.3131 10 30.2435 10 26C10 21.7565 11.6857 17.6869 14.6863 14.6863C17.6869 11.6857 21.7566 10 26 10C30.2435 10 34.3132 11.6857 37.3137 14.6863ZM32.9283 26.9998C33.061 27.0022 33.1929 26.978 33.3162 26.9288C33.4396 26.8796 33.5519 26.8063 33.6466 26.7132C33.7413 26.6202 33.8165 26.5091 33.8678 26.3867C33.9192 26.2642 33.9456 26.1328 33.9456 26C33.9456 25.8672 33.9192 25.7358 33.8678 25.6133C33.8165 25.4909 33.7413 25.3798 33.6466 25.2868C33.5519 25.1937 33.4396 25.1204 33.3162 25.0712C33.1929 25.022 33.061 24.9978 32.9283 25.0002L21.343 25.0001L25.2576 21.0856C25.4451 20.8981 25.5505 20.6437 25.5505 20.3785C25.5505 20.1133 25.4451 19.8589 25.2576 19.6714C25.07 19.4839 24.8157 19.3785 24.5505 19.3785C24.2852 19.3785 24.0309 19.4839 23.8433 19.6714L18.2219 25.2929C18.0343 25.4804 17.929 25.7348 17.929 26C17.929 26.2652 18.0343 26.5196 18.2219 26.7071L23.8433 32.3286C24.0309 32.5161 24.2852 32.6215 24.5505 32.6215C24.8157 32.6215 25.07 32.5161 25.2576 32.3286C25.4451 32.1411 25.5505 31.8867 25.5505 31.6215C25.5505 31.3563 25.4451 31.1019 25.2576 30.9144L21.343 26.9998L32.9283 26.9998Z" fill="white"/>
</g>
<defs>
<filter id="filter0_d" x="0" y="0" width="52" height="52" filterUnits="userSpaceOnUse" color-interpolation-filters="sRGB">
<feFlood flood-opacity="0" result="BackgroundImageFix"/>
<feColorMatrix in="SourceAlpha" type="matrix" values="0 0 0 0 0 0 0 0 0 0 0 0 0 0 0 0 0 0 127 0"/>
<feOffset/>
<feGaussianBlur stdDeviation="5"/>
<feColorMatrix type="matrix" values="0 0 0 0 0 0 0 0 0 0 0 0 0 0 0 0 0 0 0.1 0"/>
<feBlend mode="normal" in2="BackgroundImageFix" result="effect1_dropShadow"/>
<feBlend mode="normal" in="SourceGraphic" in2="effect1_dropShadow" result="shape"/>
</filter>
<clipPath id="clip0">
<rect width="32" height="32" fill="white" transform="translate(42 42) rotate(-180)"/>
</clipPath>
</defs>
</svg>
