<svg width="1200" height="200" viewBox="0 0 1200 200" fill="#35A8DF" xmlns="http://www.w3.org/2000/svg">
<path d="M35.3328 210.768C40.2222 215.744 44.8191 220.508 49.5405 225.148C50.2994 225.893 51.6119 226.08 52.6756 226.527C52.1593 225.459 51.8794 224.173 51.0956 223.359C47.2949 219.402 43.3573 215.57 39.4757 211.687C38.6857 210.899 37.933 210.072 37.2985 209.408C40.6203 206.122 43.743 203.035 47.2078 199.606C51.4813 203.929 55.9165 208.538 60.5259 212.961C61.4901 213.886 62.1184 216.433 64.2396 214.694C64.4075 214.557 63.1572 212.234 62.2055 211.277C57.6956 206.743 53.0613 202.333 47.5562 196.984C49.4161 195.661 51.1516 194.959 52.0101 193.674C52.8436 192.419 53.503 190.17 52.9058 189.089C52.3211 188.033 50.007 187.325 48.5514 187.468C45.3728 187.773 44.3153 187.319 44.4024 184.046C44.4832 180.977 43.264 178.71 41.1739 176.641C34.0328 169.573 26.96 162.435 19.8313 155.354C16.8517 152.397 15.2592 152.428 12.2485 155.416C5.78539 161.839 -0.671504 168.274 -7.10352 174.741C-9.96496 177.617 -9.96497 179.188 -7.09109 182.07C0.149596 189.332 7.46493 196.519 14.6683 203.817C16.6215 205.793 18.7676 206.755 21.5544 206.743C24.957 206.73 25.4111 207.724 25.0254 211.085C24.8699 212.451 25.5853 214.619 26.6179 215.228C27.6381 215.837 29.61 215.116 31.0531 214.638C31.8494 214.371 32.4154 213.408 33.0935 212.768C33.6906 212.24 34.3002 211.7 35.3328 210.768Z" fill="#1F8CC4"/>
<path d="M735.49 210.768C740.379 215.744 744.976 220.508 749.698 225.148C750.457 225.893 751.769 226.08 752.833 226.527C752.317 225.459 752.037 224.173 751.253 223.359C747.452 219.402 743.515 215.57 739.633 211.687C738.843 210.899 738.09 210.072 737.456 209.408C740.778 206.122 743.9 203.035 747.365 199.606C751.639 203.929 756.074 208.538 760.683 212.961C761.647 213.886 762.276 216.433 764.397 214.694C764.565 214.557 763.314 212.234 762.363 211.277C757.853 206.743 753.219 202.333 747.713 196.984C749.573 195.661 751.309 194.959 752.167 193.674C753.001 192.419 753.66 190.17 753.063 189.089C752.478 188.033 750.164 187.325 748.709 187.468C745.53 187.773 744.472 187.319 744.56 184.046C744.64 180.977 743.421 178.71 741.331 176.641C734.19 169.573 727.117 162.435 719.989 155.354C717.009 152.397 715.416 152.428 712.406 155.416C705.943 161.839 699.486 168.274 693.054 174.741C690.192 177.617 690.192 179.188 693.066 182.07C700.307 189.332 707.622 196.519 714.826 203.817C716.779 205.793 718.925 206.755 721.712 206.743C725.114 206.73 725.568 207.724 725.183 211.085C725.027 212.451 725.743 214.619 726.775 215.228C727.795 215.837 729.767 215.116 731.21 214.638C732.007 214.371 732.573 213.408 733.251 212.768C733.848 212.24 734.457 211.7 735.49 210.768Z" fill="#1F8CC4"/>
<path d="M384.968 210.768C389.857 215.744 394.454 220.508 399.175 225.148C399.934 225.893 401.247 226.08 402.31 226.527C401.794 225.459 401.514 224.173 400.73 223.359C396.93 219.402 392.992 215.57 389.11 211.687C388.32 210.899 387.568 210.072 386.933 209.408C390.255 206.122 393.378 203.035 396.843 199.606C401.116 203.929 405.551 208.538 410.161 212.961C411.125 213.886 411.753 216.433 413.874 214.694C414.042 214.557 412.792 212.234 411.84 211.277C407.33 206.743 402.696 202.333 397.191 196.984C399.051 195.661 400.786 194.959 401.645 193.674C402.478 192.419 403.138 190.17 402.541 189.089C401.956 188.033 399.642 187.325 398.186 187.468C395.007 187.773 393.95 187.319 394.037 184.046C394.118 180.977 392.899 178.71 390.809 176.641C383.667 169.573 376.595 162.435 369.466 155.354C366.486 152.397 364.894 152.428 361.883 155.416C355.42 161.839 348.963 168.274 342.531 174.741C339.67 177.617 339.67 179.188 342.544 182.07C349.784 189.332 357.1 196.519 364.303 203.817C366.256 205.793 368.402 206.755 371.189 206.743C374.592 206.73 375.046 207.724 374.66 211.085C374.505 212.451 375.22 214.619 376.253 215.228C377.273 215.837 379.245 215.116 380.688 214.638C381.484 214.371 382.05 213.408 382.728 212.768C383.325 212.24 383.935 211.7 384.968 210.768Z" fill="#1F8CC4"/>
<path d="M1085.12 210.768C1090.01 215.744 1094.61 220.508 1099.33 225.148C1100.09 225.893 1101.4 226.08 1102.47 226.527C1101.95 225.459 1101.67 224.173 1100.89 223.359C1097.09 219.402 1093.15 215.57 1089.27 211.687C1088.48 210.899 1087.73 210.072 1087.09 209.408C1090.41 206.122 1093.53 203.035 1097 199.606C1101.27 203.929 1105.71 208.538 1110.32 212.961C1111.28 213.886 1111.91 216.433 1114.03 214.694C1114.2 214.557 1112.95 212.234 1112 211.277C1107.49 206.743 1102.85 202.333 1097.35 196.984C1099.21 195.661 1100.94 194.959 1101.8 193.674C1102.64 192.419 1103.29 190.17 1102.7 189.089C1102.11 188.033 1099.8 187.325 1098.34 187.468C1095.16 187.773 1094.11 187.319 1094.19 184.046C1094.28 180.977 1093.06 178.71 1090.97 176.641C1083.82 169.573 1076.75 162.435 1069.62 155.354C1066.64 152.397 1065.05 152.428 1062.04 155.416C1055.58 161.839 1049.12 168.274 1042.69 174.741C1039.83 177.617 1039.83 179.188 1042.7 182.07C1049.94 189.332 1057.26 196.519 1064.46 203.817C1066.41 205.793 1068.56 206.755 1071.35 206.743C1074.75 206.73 1075.2 207.724 1074.82 211.085C1074.66 212.451 1075.38 214.619 1076.41 215.228C1077.43 215.837 1079.4 215.116 1080.85 214.638C1081.64 214.371 1082.21 213.408 1082.89 212.768C1083.48 212.24 1084.09 211.7 1085.12 210.768Z" fill="#1F8CC4"/>
<path d="M561.771 210.768C566.661 215.744 571.258 220.508 575.979 225.148C576.738 225.893 578.05 226.08 579.114 226.527C578.598 225.459 578.318 224.173 577.534 223.359C573.733 219.402 569.796 215.57 565.914 211.687C565.124 210.899 564.371 210.072 563.737 209.408C567.059 206.122 570.181 203.035 573.646 199.606C577.92 203.929 582.355 208.538 586.964 212.961C587.929 213.886 588.557 216.433 590.678 214.694C590.846 214.557 589.596 212.234 588.644 211.277C584.134 206.743 579.5 202.333 573.995 196.984C575.855 195.661 577.59 194.959 578.448 193.674C579.282 192.419 579.941 190.17 579.344 189.089C578.76 188.033 576.445 187.325 574.99 187.468C571.811 187.773 570.754 187.319 570.841 184.046C570.922 180.977 569.702 178.71 567.612 176.641C560.471 169.573 553.398 162.435 546.27 155.354C543.29 152.397 541.698 152.428 538.687 155.416C532.224 161.839 525.767 168.274 519.335 174.741C516.473 177.617 516.473 179.188 519.347 182.07C526.588 189.332 533.903 196.519 541.107 203.817C543.06 205.793 545.206 206.755 547.993 206.743C551.395 206.73 551.849 207.724 551.464 211.085C551.308 212.451 552.024 214.619 553.056 215.228C554.076 215.837 556.048 215.116 557.491 214.638C558.288 214.371 558.854 213.408 559.532 212.768C560.129 212.24 560.739 211.7 561.771 210.768Z" fill="#1F8CC4"/>
<path d="M212.137 210.768C217.026 215.744 221.623 220.508 226.344 225.148C227.103 225.893 228.416 226.08 229.479 226.527C228.963 225.459 228.683 224.173 227.899 223.359C224.099 219.402 220.161 215.57 216.279 211.687C215.489 210.899 214.737 210.072 214.102 209.408C217.424 206.122 220.547 203.035 224.011 199.606C228.285 203.929 232.72 208.538 237.33 212.961C238.294 213.886 238.922 216.433 241.043 214.694C241.211 214.557 239.961 212.234 239.009 211.277C234.499 206.743 229.865 202.333 224.36 196.984C226.22 195.661 227.955 194.959 228.814 193.674C229.647 192.419 230.307 190.17 229.709 189.089C229.125 188.033 226.811 187.325 225.355 187.468C222.176 187.773 221.119 187.319 221.206 184.046C221.287 180.977 220.068 178.71 217.978 176.641C210.836 169.573 203.764 162.435 196.635 155.354C193.655 152.397 192.063 152.428 189.052 155.416C182.589 161.839 176.132 168.274 169.7 174.741C166.839 177.617 166.839 179.188 169.713 182.07C176.953 189.332 184.269 196.519 191.472 203.817C193.425 205.793 195.571 206.755 198.358 206.743C201.761 206.73 202.215 207.724 201.829 211.085C201.674 212.451 202.389 214.619 203.422 215.228C204.442 215.837 206.414 215.116 207.857 214.638C208.653 214.371 209.219 213.408 209.897 212.768C210.494 212.24 211.104 211.7 212.137 210.768Z" fill="#1F8CC4"/>
<path d="M912.294 210.768C917.183 215.744 921.78 220.508 926.501 225.148C927.26 225.893 928.573 226.08 929.637 226.527C929.12 225.459 928.84 224.173 928.057 223.359C924.256 219.402 920.318 215.57 916.437 211.687C915.647 210.899 914.894 210.072 914.26 209.408C917.581 206.122 920.704 203.035 924.169 199.606C928.442 203.929 932.878 208.538 937.487 212.961C938.451 213.886 939.079 216.433 941.201 214.694C941.368 214.557 940.118 212.234 939.166 211.277C934.657 206.743 930.022 202.333 924.517 196.984C926.377 195.661 928.113 194.959 928.971 193.674C929.805 192.419 930.464 190.17 929.867 189.089C929.282 188.033 926.968 187.325 925.512 187.468C922.334 187.773 921.276 187.319 921.363 184.046C921.444 180.977 920.225 178.71 918.135 176.641C910.994 169.573 903.921 162.435 896.792 155.354C893.813 152.397 892.22 152.428 889.21 155.416C882.747 161.839 876.29 168.274 869.858 174.741C866.996 177.617 866.996 179.188 869.87 182.07C877.111 189.332 884.426 196.519 891.629 203.817C893.583 205.793 895.729 206.755 898.515 206.743C901.918 206.73 902.372 207.724 901.987 211.085C901.831 212.451 902.546 214.619 903.579 215.228C904.599 215.837 906.571 215.116 908.014 214.638C908.81 214.371 909.376 213.408 910.054 212.768C910.652 212.24 911.261 211.7 912.294 210.768Z" fill="#1F8CC4"/>
<path d="M32.1562 65.5972C31.7668 66.0651 31.4026 66.5641 30.9818 67.0071C22.2647 76.1589 13.5539 85.3169 4.81172 94.45C3.74406 95.5667 2.85853 96.5087 5.31414 97.6316C9.91761 93.0151 14.5085 88.2053 19.3381 83.6325C24.2807 78.9537 29.4431 74.5057 34.5302 69.9766C34.9007 69.6459 35.6543 69.1281 35.7988 69.2467C38.6877 71.4676 39.6737 68.5168 41.0052 67.2254C48.1898 60.2508 55.2552 53.1515 62.3519 46.0896C63.0805 45.3659 63.765 44.6048 64.2549 44.087C56.8253 36.6757 49.5527 29.4142 42.4057 22.2774C33.7702 30.9177 25.0155 39.6764 16.0723 48.6286C17.4477 50.1695 16.2858 51.5045 14.7158 53.1203C6.19966 61.8915 -2.20339 70.7689 -10.5939 79.6586C-11.0335 80.1265 -11.0272 81.0124 -11.2345 81.7111C-10.4495 81.5551 -9.45088 81.6425 -8.91077 81.1933C-7.39094 79.9269 -6.10976 78.3985 -4.65272 77.051C3.29188 69.6958 11.2428 62.3407 19.2502 55.0604C19.7965 54.5676 20.8642 54.6425 21.6932 54.4553C21.869 54.8296 22.0449 55.2102 22.2207 55.5845C19.5265 58.2795 16.7757 60.9121 14.1568 63.6695C7.53736 70.6503 0.961883 77.6623 -5.5508 84.743C-6.02811 85.267 -5.82713 86.4086 -5.94018 87.2571C-5.55708 87.3818 -5.174 87.5066 -4.79717 87.6376C-0.0995032 82.9026 4.48514 78.0616 9.32098 73.4701C14.251 68.7913 19.4009 64.3245 24.5445 59.8703C25.0155 59.4648 26.1522 59.8141 27.6595 59.8141C26.7928 60.9495 26.573 61.3051 26.2904 61.5983C17.5733 70.7564 8.83112 79.8832 0.170562 89.0912C-0.48259 89.7899 -0.557961 91.0251 -0.897095 92.0108C0.0323941 91.624 1.18169 91.4618 1.85368 90.813C6.65813 86.1778 11.2679 81.343 16.1288 76.764C20.4623 72.6778 25.0092 68.81 29.5561 64.9546C30.0711 64.5179 31.189 64.7737 32.0243 64.7051C32.0494 65.0045 32.0997 65.304 32.1562 65.5972Z" fill="#1F8CC4"/>
<path d="M732.313 65.5972C731.924 66.0651 731.56 66.5641 731.139 67.0071C722.422 76.1589 713.711 85.3169 704.969 94.45C703.901 95.5667 703.016 96.5087 705.471 97.6316C710.075 93.0151 714.666 88.2053 719.495 83.6325C724.438 78.9537 729.6 74.5057 734.687 69.9766C735.058 69.6459 735.812 69.1281 735.956 69.2467C738.845 71.4676 739.831 68.5168 741.162 67.2254C748.347 60.2508 755.412 53.1515 762.509 46.0896C763.238 45.3659 763.922 44.6048 764.412 44.087C756.982 36.6757 749.71 29.4142 742.563 22.2774C733.927 30.9177 725.173 39.6764 716.229 48.6286C717.605 50.1695 716.443 51.5045 714.873 53.1203C706.357 61.8915 697.954 70.7689 689.563 79.6586C689.124 80.1265 689.13 81.0124 688.923 81.7111C689.708 81.5551 690.706 81.6425 691.246 81.1933C692.766 79.9269 694.047 78.3985 695.504 77.051C703.449 69.6958 711.4 62.3407 719.407 55.0604C719.954 54.5676 721.021 54.6425 721.85 54.4553C722.026 54.8296 722.202 55.2102 722.378 55.5845C719.684 58.2795 716.933 60.9121 714.314 63.6695C707.695 70.6503 701.119 77.6623 694.606 84.743C694.129 85.267 694.33 86.4086 694.217 87.2571C694.6 87.3818 694.983 87.5066 695.36 87.6376C700.058 82.9026 704.642 78.0616 709.478 73.4701C714.408 68.7913 719.558 64.3245 724.702 59.8703C725.173 59.4648 726.309 59.8141 727.817 59.8141C726.95 60.9495 726.73 61.3051 726.448 61.5983C717.73 70.7564 708.988 79.8832 700.328 89.0912C699.675 89.7899 699.599 91.0251 699.26 92.0108C700.19 91.624 701.339 91.4618 702.011 90.813C706.815 86.1778 711.425 81.343 716.286 76.764C720.619 72.6778 725.166 68.81 729.713 64.9546C730.228 64.5179 731.346 64.7737 732.181 64.7051C732.207 65.0045 732.257 65.304 732.313 65.5972Z" fill="#1F8CC4"/>
<path d="M560.581 65.5972C560.192 66.0651 559.827 66.5641 559.407 67.0071C550.69 76.1589 541.979 85.3169 533.237 94.45C532.169 95.5667 531.283 96.5087 533.739 97.6316C538.342 93.0151 542.933 88.2053 547.763 83.6325C552.706 78.9537 557.868 74.5057 562.955 69.9766C563.326 69.6459 564.079 69.1281 564.224 69.2467C567.113 71.4676 568.099 68.5168 569.43 67.2254C576.615 60.2508 583.68 53.1515 590.777 46.0896C591.505 45.3659 592.19 44.6048 592.68 44.087C585.25 36.6757 577.977 29.4142 570.831 22.2774C562.195 30.9177 553.44 39.6764 544.497 48.6286C545.873 50.1695 544.711 51.5045 543.141 53.1203C534.625 61.8915 526.222 70.7689 517.831 79.6586C517.391 80.1265 517.398 81.0124 517.19 81.7111C517.975 81.5551 518.974 81.6425 519.514 81.1933C521.034 79.9269 522.315 78.3985 523.772 77.051C531.717 69.6958 539.668 62.3407 547.675 55.0604C548.221 54.5676 549.289 54.6425 550.118 54.4553C550.294 54.8296 550.47 55.2102 550.646 55.5845C547.951 58.2795 545.201 60.9121 542.582 63.6695C535.962 70.6503 529.387 77.6623 522.874 84.743C522.397 85.267 522.598 86.4086 522.485 87.2571C522.868 87.3818 523.251 87.5066 523.628 87.6376C528.325 82.9026 532.91 78.0616 537.746 73.4701C542.676 68.7913 547.826 64.3245 552.969 59.8703C553.44 59.4648 554.577 59.8141 556.084 59.8141C555.218 60.9495 554.998 61.3051 554.715 61.5983C545.998 70.7564 537.256 79.8832 528.595 89.0912C527.942 89.7899 527.867 91.0251 527.528 92.0108C528.457 91.624 529.607 91.4618 530.279 90.813C535.083 86.1778 539.693 81.343 544.554 76.764C548.887 72.6778 553.434 68.81 557.981 64.9546C558.496 64.5179 559.614 64.7737 560.449 64.7051C560.474 65.0045 560.525 65.304 560.581 65.5972Z" fill="#1F8CC4"/>
<path d="M208.96 65.5972C208.57 66.0651 208.206 66.5641 207.785 67.0071C199.068 76.1589 190.357 85.3169 181.615 94.45C180.548 95.5667 179.662 96.5087 182.118 97.6316C186.721 93.0151 191.312 88.2053 196.142 83.6325C201.084 78.9537 206.247 74.5057 211.334 69.9766C211.704 69.6459 212.458 69.1281 212.602 69.2467C215.491 71.4676 216.477 68.5168 217.809 67.2254C224.993 60.2508 232.059 53.1515 239.156 46.0896C239.884 45.3659 240.569 44.6048 241.059 44.087C233.629 36.6757 226.356 29.4142 219.209 22.2774C210.574 30.9177 201.819 39.6764 192.876 48.6286C194.251 50.1695 193.089 51.5045 191.519 53.1203C183.003 61.8915 174.6 70.7689 166.21 79.6586C165.77 80.1265 165.776 81.0124 165.569 81.7111C166.354 81.5551 167.353 81.6425 167.893 81.1933C169.413 79.9269 170.694 78.3985 172.151 77.051C180.095 69.6958 188.046 62.3407 196.054 55.0604C196.6 54.5676 197.668 54.6425 198.497 54.4553C198.673 54.8296 198.848 55.2102 199.024 55.5845C196.33 58.2795 193.579 60.9121 190.96 63.6695C184.341 70.6503 177.765 77.6623 171.253 84.743C170.775 85.267 170.976 86.4086 170.863 87.2571C171.246 87.3818 171.629 87.5066 172.006 87.6376C176.704 82.9026 181.289 78.0616 186.125 73.4701C191.055 68.7913 196.204 64.3245 201.348 59.8703C201.819 59.4648 202.956 59.8141 204.463 59.8141C203.596 60.9495 203.377 61.3051 203.094 61.5983C194.377 70.7564 185.635 79.8832 176.974 89.0912C176.321 89.7899 176.246 91.0251 175.906 92.0108C176.836 91.624 177.985 91.4618 178.657 90.813C183.462 86.1778 188.071 81.343 192.932 76.764C197.266 72.6778 201.813 68.81 206.36 64.9546C206.875 64.5179 207.993 64.7737 208.828 64.7051C208.853 65.0045 208.903 65.304 208.96 65.5972Z" fill="#1F8CC4"/>
<path d="M909.117 65.5972C908.728 66.0651 908.364 66.5641 907.943 67.0071C899.226 76.1589 890.515 85.3169 881.773 94.45C880.705 95.5667 879.82 96.5087 882.275 97.6316C886.879 93.0151 891.47 88.2053 896.299 83.6325C901.242 78.9537 906.404 74.5057 911.491 69.9766C911.862 69.6459 912.615 69.1281 912.76 69.2467C915.649 71.4676 916.635 68.5168 917.966 67.2254C925.151 60.2508 932.216 53.1515 939.313 46.0896C940.041 45.3659 940.726 44.6048 941.216 44.087C933.786 36.6757 926.514 29.4142 919.367 22.2774C910.731 30.9177 901.976 39.6764 893.033 48.6286C894.409 50.1695 893.247 51.5045 891.677 53.1203C883.161 61.8915 874.758 70.7689 866.367 79.6586C865.928 80.1265 865.934 81.0124 865.727 81.7111C866.512 81.5551 867.51 81.6425 868.05 81.1933C869.57 79.9269 870.851 78.3985 872.308 77.051C880.253 69.6958 888.204 62.3407 896.211 55.0604C896.758 54.5676 897.825 54.6425 898.654 54.4553C898.83 54.8296 899.006 55.2102 899.182 55.5845C896.488 58.2795 893.737 60.9121 891.118 63.6695C884.498 70.6503 877.923 77.6623 871.41 84.743C870.933 85.267 871.134 86.4086 871.021 87.2571C871.404 87.3818 871.787 87.5066 872.164 87.6376C876.862 82.9026 881.446 78.0616 886.282 73.4701C891.212 68.7913 896.362 64.3245 901.505 59.8703C901.976 59.4648 903.113 59.8141 904.62 59.8141C903.754 60.9495 903.534 61.3051 903.251 61.5983C894.534 70.7564 885.792 79.8832 877.132 89.0912C876.478 89.7899 876.403 91.0251 876.064 92.0108C876.993 91.624 878.143 91.4618 878.815 90.813C883.619 86.1778 888.229 81.343 893.09 76.764C897.423 72.6778 901.97 68.81 906.517 64.9546C907.032 64.5179 908.15 64.7737 908.985 64.7051C909.01 65.0045 909.061 65.304 909.117 65.5972Z" fill="#1F8CC4"/>
<path d="M383.777 65.5972C383.388 66.0651 383.024 66.5641 382.603 67.0071C373.886 76.1589 365.175 85.3169 356.433 94.45C355.365 95.5667 354.48 96.5087 356.935 97.6316C361.539 93.0151 366.13 88.2053 370.959 83.6325C375.902 78.9537 381.064 74.5057 386.151 69.9766C386.522 69.6459 387.275 69.1281 387.42 69.2467C390.309 71.4676 391.295 68.5168 392.626 67.2254C399.811 60.2508 406.876 53.1515 413.973 46.0896C414.702 45.3659 415.386 44.6048 415.876 44.087C408.446 36.6757 401.174 29.4142 394.027 22.2774C385.391 30.9177 376.637 39.6764 367.693 48.6286C369.069 50.1695 367.907 51.5045 366.337 53.1203C357.821 61.8915 349.418 70.7689 341.027 79.6586C340.588 80.1265 340.594 81.0124 340.387 81.7111C341.172 81.5551 342.17 81.6425 342.71 81.1933C344.23 79.9269 345.511 78.3985 346.968 77.051C354.913 69.6958 362.864 62.3407 370.871 55.0604C371.418 54.5676 372.485 54.6425 373.314 54.4553C373.49 54.8296 373.666 55.2102 373.842 55.5845C371.148 58.2795 368.397 60.9121 365.778 63.6695C359.158 70.6503 352.583 77.6623 346.07 84.743C345.593 85.267 345.794 86.4086 345.681 87.2571C346.064 87.3818 346.447 87.5066 346.824 87.6376C351.522 82.9026 356.106 78.0616 360.942 73.4701C365.872 68.7913 371.022 64.3245 376.166 59.8703C376.637 59.4648 377.773 59.8141 379.281 59.8141C378.414 60.9495 378.194 61.3051 377.911 61.5983C369.194 70.7564 360.452 79.8832 351.792 89.0912C351.139 89.7899 351.063 91.0251 350.724 92.0108C351.653 91.624 352.803 91.4618 353.475 90.813C358.279 86.1778 362.889 81.343 367.75 76.764C372.083 72.6778 376.63 68.81 381.177 64.9546C381.692 64.5179 382.81 64.7737 383.645 64.7051C383.671 65.0045 383.721 65.304 383.777 65.5972Z" fill="#1F8CC4"/>
<path d="M1083.93 65.5972C1083.54 66.0651 1083.18 66.5641 1082.76 67.0071C1074.04 76.1589 1065.33 85.3169 1056.59 94.45C1055.52 95.5667 1054.64 96.5087 1057.09 97.6316C1061.7 93.0151 1066.29 88.2053 1071.12 83.6325C1076.06 78.9537 1081.22 74.5057 1086.31 69.9766C1086.68 69.6459 1087.43 69.1281 1087.58 69.2467C1090.47 71.4676 1091.45 68.5168 1092.78 67.2254C1099.97 60.2508 1107.03 53.1515 1114.13 46.0896C1114.86 45.3659 1115.54 44.6048 1116.03 44.087C1108.6 36.6757 1101.33 29.4142 1094.18 22.2774C1085.55 30.9177 1076.79 39.6764 1067.85 48.6286C1069.23 50.1695 1068.06 51.5045 1066.49 53.1203C1057.98 61.8915 1049.57 70.7689 1041.18 79.6586C1040.74 80.1265 1040.75 81.0124 1040.54 81.7111C1041.33 81.5551 1042.33 81.6425 1042.87 81.1933C1044.39 79.9269 1045.67 78.3985 1047.13 77.051C1055.07 69.6958 1063.02 62.3407 1071.03 55.0604C1071.57 54.5676 1072.64 54.6425 1073.47 54.4553C1073.65 54.8296 1073.82 55.2102 1074 55.5845C1071.3 58.2795 1068.55 60.9121 1065.93 63.6695C1059.32 70.6503 1052.74 77.6623 1046.23 84.743C1045.75 85.267 1045.95 86.4086 1045.84 87.2571C1046.22 87.3818 1046.6 87.5066 1046.98 87.6376C1051.68 82.9026 1056.26 78.0616 1061.1 73.4701C1066.03 68.7913 1071.18 64.3245 1076.32 59.8703C1076.79 59.4648 1077.93 59.8141 1079.44 59.8141C1078.57 60.9495 1078.35 61.3051 1078.07 61.5983C1069.35 70.7564 1060.61 79.8832 1051.95 89.0912C1051.3 89.7899 1051.22 91.0251 1050.88 92.0108C1051.81 91.624 1052.96 91.4618 1053.63 90.813C1058.44 86.1778 1063.05 81.343 1067.91 76.764C1072.24 72.6778 1076.79 68.81 1081.33 64.9546C1081.85 64.5179 1082.97 64.7737 1083.8 64.7051C1083.83 65.0045 1083.88 65.304 1083.93 65.5972Z" fill="#1F8CC4"/>
<path d="M123.232 154.564C122.9 153.642 122.808 152.479 122.201 151.829C118.598 147.957 114.867 144.211 111.191 140.415C109.706 138.88 108.012 137.579 108.509 134.85C108.693 133.846 107.663 132.602 107.951 132.261C110.406 129.772 112.86 127.283 115.99 124.112C121.231 123.936 124.686 129.26 128.835 133.486C130.792 135.482 132.756 137.478 134.677 139.512C135.898 140.813 136.868 140.965 137.758 138.615C133.284 134.105 128.638 129.532 124.152 124.801C123.281 123.879 123.048 122.325 122.465 121.093C121.82 119.729 121.397 118.093 120.39 117.101C118.316 115.061 117.254 112.895 116.856 109.85C115.45 99.15 106.116 91.1597 96.2111 91.7093C84.913 92.3409 76.5607 100.95 76.1864 112.345C75.8305 123.253 83.4586 132.501 94.2166 133.789C96.7695 134.092 98.4449 135.204 100.274 136.827C101.685 138.078 103.735 138.552 105.478 139.423C106.435 139.903 107.521 140.301 108.252 141.047C112.824 145.696 117.31 150.433 121.82 155.139C122.305 154.949 122.772 154.753 123.232 154.564Z" fill="#1F8CC4"/>
<path d="M823.388 154.564C823.057 153.642 822.965 152.479 822.357 151.829C818.755 147.957 815.023 144.211 811.347 140.415C809.862 138.88 808.168 137.579 808.665 134.85C808.85 133.846 807.819 132.602 808.107 132.261C810.562 129.772 813.017 127.283 816.146 124.112C821.387 123.936 824.842 129.26 828.991 133.486C830.949 135.482 832.912 137.478 834.833 139.512C836.055 140.813 837.024 140.965 837.914 138.615C833.44 134.105 828.795 129.532 824.308 124.801C823.437 123.879 823.204 122.325 822.621 121.093C821.976 119.729 821.553 118.093 820.547 117.101C818.472 115.061 817.411 112.895 817.012 109.85C815.606 99.15 806.272 91.1597 796.367 91.7093C785.069 92.3409 776.717 100.95 776.342 112.345C775.986 123.253 783.615 132.501 794.373 133.789C796.926 134.092 798.601 135.204 800.43 136.827C801.841 138.078 803.891 138.552 805.634 139.423C806.591 139.903 807.677 140.301 808.408 141.047C812.98 145.696 817.466 150.433 821.976 155.139C822.461 154.949 822.928 154.753 823.388 154.564Z" fill="#1F8CC4"/>
<path d="M651.657 154.564C651.325 153.642 651.233 152.479 650.626 151.829C647.023 147.957 643.292 144.211 639.616 140.415C638.131 138.88 636.437 137.579 636.934 134.85C637.118 133.846 636.087 132.602 636.376 132.261C638.83 129.772 641.285 127.283 644.415 124.112C649.656 123.936 653.111 129.26 657.26 133.486C659.217 135.482 661.181 137.478 663.102 139.512C664.323 140.813 665.293 140.965 666.183 138.615C661.709 134.105 657.063 129.532 652.577 124.801C651.706 123.879 651.472 122.325 650.889 121.093C650.245 119.729 649.822 118.093 648.815 117.101C646.741 115.061 645.679 112.895 645.28 109.85C643.875 99.15 634.541 91.1597 624.636 91.7093C613.338 92.3409 604.985 100.95 604.611 112.345C604.255 123.253 611.883 132.501 622.641 133.789C625.194 134.092 626.87 135.204 628.698 136.827C630.11 138.078 632.16 138.552 633.903 139.423C634.86 139.903 635.946 140.301 636.676 141.047C641.248 145.696 645.734 150.433 650.245 155.139C650.73 154.949 651.196 154.753 651.657 154.564Z" fill="#1F8CC4"/>
<path d="M301.553 154.564C301.211 153.642 301.116 152.479 300.489 151.829C296.77 147.957 292.919 144.211 289.124 140.415C287.591 138.88 285.843 137.579 286.356 134.85C286.546 133.846 285.482 132.602 285.779 132.261C288.313 129.772 290.847 127.283 294.078 124.112C299.488 123.936 303.055 129.26 307.337 133.486C309.358 135.482 311.385 137.478 313.368 139.512C314.628 140.813 315.629 140.965 316.548 138.615C311.93 134.105 307.134 129.532 302.503 124.801C301.604 123.879 301.363 122.325 300.761 121.093C300.096 119.729 299.659 118.093 298.62 117.101C296.479 115.061 295.383 112.895 294.971 109.85C293.521 99.15 283.885 91.1597 273.661 91.7093C261.998 92.3409 253.376 100.95 252.99 112.345C252.622 123.253 260.497 132.501 271.602 133.789C274.237 134.092 275.967 135.204 277.854 136.827C279.311 138.078 281.427 138.552 283.226 139.423C284.215 139.903 285.336 140.301 286.09 141.047C290.809 145.696 295.44 150.433 300.096 155.139C300.597 154.949 301.078 154.753 301.553 154.564Z" fill="#1F8CC4"/>
<path d="M1001.71 154.564C1001.37 153.642 1001.27 152.479 1000.65 151.829C996.928 147.957 993.076 144.211 989.282 140.415C987.749 138.88 986 137.579 986.513 134.85C986.703 133.846 985.639 132.602 985.937 132.261C988.471 129.772 991.005 127.283 994.235 124.112C999.645 123.936 1003.21 129.26 1007.49 133.486C1009.52 135.482 1011.54 137.478 1013.52 139.512C1014.79 140.813 1015.79 140.965 1016.71 138.615C1012.09 134.105 1007.29 129.532 1002.66 124.801C1001.76 123.879 1001.52 122.325 1000.92 121.093C1000.25 119.729 999.816 118.093 998.777 117.101C996.636 115.061 995.54 112.895 995.129 109.85C993.678 99.15 984.043 91.1597 973.818 91.7093C962.156 92.3409 953.534 100.95 953.148 112.345C952.78 123.253 960.654 132.501 971.759 133.789C974.395 134.092 976.124 135.204 978.012 136.827C979.469 138.078 981.585 138.552 983.384 139.423C984.372 139.903 985.493 140.301 986.247 141.047C990.967 145.696 995.597 150.433 1000.25 155.139C1000.75 154.949 1001.24 154.753 1001.71 154.564Z" fill="#1F8CC4"/>
<path d="M476.371 154.564C476.029 153.642 475.934 152.479 475.306 151.829C471.588 147.957 467.736 144.211 463.942 140.415C462.409 138.88 460.66 137.579 461.173 134.85C461.363 133.846 460.299 132.602 460.597 132.261C463.131 129.772 465.665 127.283 468.896 124.112C474.306 123.936 477.872 129.26 482.154 133.486C484.175 135.482 486.202 137.478 488.185 139.512C489.446 140.813 490.447 140.965 491.365 138.615C486.747 134.105 481.952 129.532 477.321 124.801C476.421 123.879 476.181 122.325 475.579 121.093C474.914 119.729 474.477 118.093 473.438 117.101C471.296 115.061 470.201 112.895 469.789 109.85C468.338 99.15 458.703 91.1597 448.478 91.7093C436.816 92.3409 428.194 100.95 427.808 112.345C427.44 123.253 435.315 132.501 446.42 133.789C449.055 134.092 450.784 135.204 452.672 136.827C454.129 138.078 456.245 138.552 458.044 139.423C459.032 139.903 460.154 140.301 460.907 141.047C465.627 145.696 470.258 150.433 474.914 155.139C475.414 154.949 475.896 154.753 476.371 154.564Z" fill="#1F8CC4"/>
<path d="M1176.53 154.564C1176.19 153.642 1176.09 152.479 1175.46 151.829C1171.74 147.957 1167.89 144.211 1164.1 140.415C1162.57 138.88 1160.82 137.579 1161.33 134.85C1161.52 133.846 1160.46 132.602 1160.75 132.261C1163.29 129.772 1165.82 127.283 1169.05 124.112C1174.46 123.936 1178.03 129.26 1182.31 133.486C1184.33 135.482 1186.36 137.478 1188.34 139.512C1189.6 140.813 1190.6 140.965 1191.52 138.615C1186.9 134.105 1182.11 129.532 1177.48 124.801C1176.58 123.879 1176.34 122.325 1175.74 121.093C1175.07 119.729 1174.63 118.093 1173.59 117.101C1171.45 115.061 1170.36 112.895 1169.95 109.85C1168.5 99.15 1158.86 91.1597 1148.64 91.7093C1136.97 92.3409 1128.35 100.95 1127.96 112.345C1127.6 123.253 1135.47 132.501 1146.58 133.789C1149.21 134.092 1150.94 135.204 1152.83 136.827C1154.29 138.078 1156.4 138.552 1158.2 139.423C1159.19 139.903 1160.31 140.301 1161.06 141.047C1165.78 145.696 1170.41 150.433 1175.07 155.139C1175.57 154.949 1176.05 154.753 1176.53 154.564Z" fill="#1F8CC4"/>
<path d="M26.5098 -4.7219C25.4115 -5.68918 24.4953 -6.49422 23.3845 -7.46774C22.4181 -6.56911 21.5834 -5.83271 20.7927 -5.05264C0.673253 14.9358 -19.4462 34.9241 -39.528 54.9437C-41.0153 56.429 -42.1951 57.2714 -44.6238 56.585C-49.3807 55.2433 -53.9054 57.5523 -55.9261 61.696C-57.8652 65.6712 -56.9239 70.4577 -53.6292 73.3845C-50.4287 76.2239 -45.2262 76.6358 -41.6617 74.3206C-37.7834 71.8119 -36.0576 67.0566 -37.9089 62.5385C-38.8314 60.2919 -37.7646 59.3558 -36.4907 58.089C-16.2959 38.0319 3.88634 17.9562 24.0686 -2.11337C24.7903 -2.82479 25.4555 -3.58612 26.5098 -4.7219ZM-46.9332 59.3932C-43.3875 59.4743 -40.4129 62.4823 -40.4066 66.0019C-40.4003 69.6776 -43.5193 72.7355 -47.1905 72.6606C-50.7738 72.5857 -53.9681 69.2345 -53.7924 65.7398C-53.6167 62.3076 -50.3848 59.3183 -46.9332 59.3932Z" fill="#1F8CC4"/>
<path d="M726.667 -4.7219C725.569 -5.68918 724.653 -6.49422 723.542 -7.46774C722.575 -6.56911 721.741 -5.83271 720.95 -5.05264C700.831 14.9358 680.711 34.9241 660.63 54.9437C659.142 56.429 657.962 57.2714 655.534 56.585C650.777 55.2433 646.252 57.5523 644.232 61.696C642.292 65.6712 643.234 70.4577 646.528 73.3845C649.729 76.2239 654.931 76.6358 658.496 74.3206C662.374 71.8119 664.1 67.0566 662.249 62.5385C661.326 60.2919 662.393 59.3558 663.667 58.089C683.862 38.0319 704.044 17.9562 724.226 -2.11337C724.947 -2.82479 725.613 -3.58612 726.667 -4.7219ZM653.224 59.3932C656.77 59.4743 659.745 62.4823 659.751 66.0019C659.757 69.6776 656.638 72.7355 652.967 72.6606C649.384 72.5857 646.19 69.2345 646.365 65.7398C646.541 62.3076 649.773 59.3183 653.224 59.3932Z" fill="#1F8CC4"/>
<path d="M554.936 -4.7219C553.837 -5.68918 552.921 -6.49422 551.81 -7.46774C550.844 -6.56911 550.009 -5.83271 549.219 -5.05264C529.099 14.9358 508.98 34.9241 488.898 54.9437C487.411 56.429 486.231 57.2714 483.802 56.585C479.045 55.2433 474.521 57.5523 472.5 61.696C470.561 65.6712 471.502 70.4577 474.797 73.3845C477.997 76.2239 483.2 76.6358 486.764 74.3206C490.643 71.8119 492.368 67.0566 490.517 62.5385C489.595 60.2919 490.661 59.3558 491.935 58.089C512.13 38.0319 532.312 17.9562 552.494 -2.11337C553.216 -2.82479 553.881 -3.58612 554.936 -4.7219ZM481.493 59.3932C485.038 59.4743 488.013 62.4823 488.019 66.0019C488.026 69.6776 484.907 72.7355 481.236 72.6606C477.652 72.5857 474.458 69.2345 474.634 65.7398C474.809 62.3076 478.041 59.3183 481.493 59.3932Z" fill="#1F8CC4"/>
<path d="M1255.09 -4.7219C1253.99 -5.68918 1253.08 -6.49422 1251.97 -7.46774C1251 -6.56911 1250.17 -5.83271 1249.38 -5.05264C1229.26 14.9358 1209.14 34.9241 1189.06 54.9437C1187.57 56.429 1186.39 57.2714 1183.96 56.585C1179.2 55.2433 1174.68 57.5523 1172.66 61.696C1170.72 65.6712 1171.66 70.4577 1174.95 73.3845C1178.15 76.2239 1183.36 76.6358 1186.92 74.3206C1190.8 71.8119 1192.53 67.0566 1190.67 62.5385C1189.75 60.2919 1190.82 59.3558 1192.09 58.089C1212.29 38.0319 1232.47 17.9562 1252.65 -2.11337C1253.37 -2.82479 1254.04 -3.58612 1255.09 -4.7219ZM1181.65 59.3932C1185.2 59.4743 1188.17 62.4823 1188.18 66.0019C1188.18 69.6776 1185.06 72.7355 1181.39 72.6606C1177.81 72.5857 1174.62 69.2345 1174.79 65.7398C1174.97 62.3076 1178.2 59.3183 1181.65 59.3932Z" fill="#1F8CC4"/>
<path d="M28.6771 119.365C44.2131 103.918 59.3605 88.8645 74.7899 73.5232C73.7805 72.5535 72.9028 71.7088 72.2194 71.0456C55.7492 87.5443 39.5172 103.812 23.0846 120.273C28.8401 125.341 35.0031 130.778 41.1786 136.208C67.7304 159.577 94.2696 182.945 120.846 206.276C122.376 207.621 123.122 208.691 122.42 210.987C121.022 215.536 123.172 219.997 127.172 222.124C131.179 224.258 136.357 223.394 139.229 220.116C142.251 216.668 142.577 211.707 140.031 207.94C137.48 204.168 132.884 202.522 128.451 204.33C126.27 205.219 125.179 204.299 123.831 203.11C97.1348 179.604 70.4263 156.104 43.7241 132.604C38.8777 128.35 34.0376 124.089 28.6771 119.365ZM131.793 206.783C135.21 206.72 138.407 209.786 138.533 213.233C138.665 216.906 135.649 220.053 131.956 220.097C128.339 220.141 125.354 217.313 125.229 213.722C125.097 210.124 128.201 206.845 131.793 206.783Z" fill="#1F8CC4"/>
<path d="M728.834 119.365C744.37 103.918 759.517 88.8645 774.947 73.5232C773.938 72.5535 773.06 71.7088 772.376 71.0456C755.906 87.5443 739.674 103.812 723.241 120.273C728.997 125.341 735.16 130.778 741.336 136.208C767.887 159.577 794.427 182.945 821.004 206.276C822.533 207.621 823.279 208.691 822.577 210.987C821.179 215.536 823.33 219.997 827.33 222.124C831.336 224.258 836.515 223.394 839.386 220.116C842.408 216.668 842.734 211.707 840.189 207.94C837.637 204.168 833.041 202.522 828.609 204.33C826.427 205.219 825.336 204.299 823.988 203.11C797.292 179.604 770.583 156.104 743.881 132.604C739.035 128.35 734.194 124.089 728.834 119.365ZM831.95 206.783C835.367 206.72 838.565 209.786 838.69 213.233C838.822 216.906 835.806 220.053 832.113 220.097C828.496 220.141 825.511 217.313 825.386 213.722C825.254 210.124 828.358 206.845 831.95 206.783Z" fill="#1F8CC4"/>
<path d="M556.75 119.365C572.286 103.918 587.434 88.8645 602.863 73.5232C601.854 72.5535 600.976 71.7088 600.293 71.0456C583.823 87.5443 567.591 103.812 551.158 120.273C556.913 125.341 563.076 130.778 569.252 136.208C595.804 159.577 622.343 182.945 648.92 206.276C650.449 207.621 651.195 208.691 650.493 210.987C649.095 215.536 651.246 219.997 655.246 222.124C659.252 224.258 664.431 223.394 667.302 220.116C670.324 216.668 670.65 211.707 668.105 207.94C665.553 204.168 660.957 202.522 656.525 204.33C654.343 205.219 653.252 204.299 651.904 203.11C625.208 179.604 598.5 156.104 571.797 132.604C566.951 128.35 562.111 124.089 556.75 119.365ZM659.866 206.783C663.283 206.72 666.481 209.786 666.606 213.233C666.738 216.906 663.722 220.053 660.029 220.097C656.412 220.141 653.427 217.313 653.302 213.722C653.17 210.124 656.274 206.845 659.866 206.783Z" fill="#1F8CC4"/>
<path d="M369.987 -1.00619C353.675 -15.6345 326.211 -42.7723 310.011 -57.2998C310.969 -58.3202 311.802 -59.2089 312.45 -59.9063C329.75 -44.2763 358.359 -15.9822 375.619 -0.387728C370.133 4.96932 364.258 10.716 358.371 16.457C333.06 41.1596 350.962 22.7394 325.624 47.4057C324.166 48.8278 323.476 49.9346 324.296 52.1916C325.927 56.6623 324.009 61.2279 320.124 63.558C316.233 65.8946 311.017 65.2986 307.98 62.1721C304.784 58.8847 304.203 53.9465 306.55 50.0542C308.904 46.1553 313.409 44.2757 317.929 45.8535C320.153 46.6286 321.195 45.654 322.48 44.3975C347.928 19.5501 330.189 37.8304 355.643 12.9889C360.264 8.49083 364.878 3.98689 369.987 -1.00619ZM314.718 48.4747C311.302 48.5879 308.267 51.8139 308.32 55.2632C308.378 58.9377 311.552 61.9256 315.242 61.7795C318.857 61.6372 321.692 58.6595 321.632 55.0666C321.577 51.467 318.309 48.3525 314.718 48.4747Z" fill="#1F8CC4"/>
<path d="M314.819 50.5369C317.313 50.4461 319.462 52.4279 319.584 54.9213C319.715 57.5647 317.636 59.7454 314.975 59.7571C312.496 59.7657 310.374 57.7073 310.328 55.2412C310.285 52.8189 312.381 50.6248 314.819 50.5369Z" fill="#1F8CC4"/>
<path d="M1070.14 -1.00621C1053.83 -15.6345 1026.37 -42.7723 1010.17 -57.2998C1011.13 -58.3202 1011.96 -59.2089 1012.61 -59.9063C1029.91 -44.2763 1058.52 -15.9822 1075.78 -0.38775C1070.29 4.96929 1064.42 10.7159 1058.53 16.457C1033.22 41.1596 1051.12 22.7393 1025.78 47.4057C1024.32 48.8278 1023.63 49.9346 1024.45 52.1916C1026.08 56.6622 1024.17 61.2279 1020.28 63.5579C1016.39 65.8946 1011.17 65.2986 1008.14 62.1721C1004.94 58.8847 1004.36 53.9465 1006.71 50.0541C1009.06 46.1552 1013.57 44.2756 1018.09 45.8535C1020.31 46.6286 1021.35 45.654 1022.64 44.3975C1048.09 19.5501 1030.35 37.8304 1055.8 12.9888C1060.42 8.49081 1065.03 3.98687 1070.14 -1.00621ZM1014.88 48.4746C1011.46 48.5878 1008.42 51.8139 1008.48 55.2632C1008.54 58.9377 1011.71 61.9256 1015.4 61.7794C1019.01 61.6372 1021.85 58.6595 1021.79 55.0665C1021.73 51.467 1018.47 48.3524 1014.88 48.4746Z" fill="#1F8CC4"/>
<path d="M1014.98 50.5368C1017.47 50.446 1019.62 52.4279 1019.74 54.9213C1019.87 57.5646 1017.79 59.7453 1015.13 59.7571C1012.65 59.7657 1010.53 57.7072 1010.49 55.2412C1010.44 52.8189 1012.54 50.6247 1014.98 50.5368Z" fill="#1F8CC4"/>
<path d="M369.399 274.704C370.465 273.478 371.205 272.627 372.195 271.489C367.8 267.334 363.524 263.261 359.205 259.219C331.267 233.067 303.317 206.927 275.38 180.78C268.377 174.223 261.455 167.579 254.333 161.159C252.446 159.458 251.963 158.112 252.678 155.597C254.214 150.198 250.765 144.98 245.33 143.747C240.082 142.558 234.885 145.781 233.58 151.03C232.283 156.248 235.399 161.566 240.696 162.824C242.264 163.199 244.233 163.443 245.587 162.817C248.27 161.579 249.693 162.724 251.505 164.432C287.693 198.399 323.944 232.31 360.183 266.22C363.142 268.992 366.145 271.708 369.399 274.704ZM243.035 146.782C246.878 146.732 249.812 149.591 249.794 153.376C249.781 156.924 246.878 159.908 243.317 160.027C239.844 160.146 236.49 156.867 236.477 153.332C236.458 149.841 239.468 146.832 243.035 146.782Z" fill="#1F8CC4"/>
<path d="M238.572 153.295C238.534 155.804 240.503 157.837 243.055 157.925C245.607 158.012 247.619 156.123 247.726 153.545C247.839 150.755 245.939 148.784 243.161 148.815C240.528 148.847 238.616 150.717 238.572 153.295Z" fill="#1F8CC4"/>
<path d="M1069.56 274.704C1070.62 273.478 1071.36 272.627 1072.35 271.489C1067.96 267.334 1063.68 263.261 1059.36 259.219C1031.42 233.067 1003.47 206.927 975.536 180.78C968.533 174.223 961.611 167.579 954.489 161.159C952.602 159.458 952.119 158.112 952.834 155.597C954.37 150.198 950.922 144.98 945.486 143.747C940.238 142.558 935.041 145.781 933.737 151.03C932.439 156.248 935.555 161.566 940.853 162.824C942.42 163.199 944.389 163.443 945.743 162.817C948.427 161.579 949.85 162.724 951.662 164.432C987.85 198.399 1024.1 232.31 1060.34 266.22C1063.3 268.992 1066.3 271.708 1069.56 274.704ZM943.191 146.782C947.035 146.732 949.969 149.591 949.95 153.376C949.937 156.924 947.035 159.908 943.474 160.027C940 160.146 936.646 156.867 936.633 153.332C936.615 149.841 939.624 146.832 943.191 146.782Z" fill="#1F8CC4"/>
<path d="M938.728 153.295C938.691 155.804 940.659 157.837 943.211 157.925C945.763 158.012 947.775 156.123 947.882 153.545C947.995 150.755 946.095 148.784 943.318 148.815C940.684 148.847 938.772 150.717 938.728 153.295Z" fill="#1F8CC4"/>
<path d="M520.82 251.612C521.886 250.385 522.626 249.535 523.616 248.396C519.221 244.241 514.945 240.168 510.626 236.127C482.688 209.974 454.738 183.834 426.801 157.687C419.798 151.13 412.876 144.486 405.754 138.067C403.867 136.365 403.384 135.02 404.099 132.505C405.635 127.105 402.187 121.887 396.751 120.655C391.503 119.466 386.306 122.688 385.002 127.937C383.704 133.155 386.82 138.473 392.118 139.731C393.685 140.106 395.654 140.35 397.008 139.725C399.691 138.486 401.115 139.631 402.927 141.339C439.115 175.306 475.365 209.217 511.604 243.128C514.563 245.899 517.566 248.615 520.82 251.612ZM394.456 123.689C398.3 123.639 401.234 126.498 401.215 130.283C401.202 133.831 398.3 136.815 394.738 136.934C391.265 137.053 387.911 133.775 387.898 130.24C387.879 126.748 390.889 123.739 394.456 123.689Z" fill="#1F8CC4"/>
<path d="M389.993 130.202C389.955 132.711 391.924 134.745 394.476 134.832C397.027 134.92 399.04 133.03 399.147 130.452C399.259 127.662 397.36 125.691 394.582 125.722C391.949 125.754 390.037 127.624 389.993 130.202Z" fill="#1F8CC4"/>
<path d="M1220.98 251.612C1222.04 250.385 1222.78 249.535 1223.77 248.396C1219.38 244.241 1215.1 240.168 1210.78 236.127C1182.85 209.974 1154.9 183.834 1126.96 157.687C1119.96 151.13 1113.03 144.486 1105.91 138.067C1104.02 136.365 1103.54 135.02 1104.26 132.505C1105.79 127.105 1102.34 121.887 1096.91 120.655C1091.66 119.466 1086.46 122.688 1085.16 127.937C1083.86 133.155 1086.98 138.473 1092.27 139.731C1093.84 140.106 1095.81 140.35 1097.17 139.725C1099.85 138.486 1101.27 139.631 1103.08 141.339C1139.27 175.306 1175.52 209.217 1211.76 243.128C1214.72 245.899 1217.72 248.615 1220.98 251.612ZM1094.61 123.689C1098.46 123.639 1101.39 126.498 1101.37 130.283C1101.36 133.831 1098.46 136.815 1094.9 136.934C1091.42 137.053 1088.07 133.775 1088.06 130.24C1088.04 126.748 1091.05 123.739 1094.61 123.689Z" fill="#1F8CC4"/>
<path d="M1090.15 130.202C1090.11 132.711 1092.08 134.744 1094.63 134.832C1097.18 134.92 1099.2 133.03 1099.3 130.452C1099.42 127.662 1097.52 125.691 1094.74 125.722C1092.11 125.754 1090.19 127.624 1090.15 130.202Z" fill="#1F8CC4"/>
<path d="M657.137 65.8274C657.13 63.6538 654.972 61.9375 652.238 61.9375C649.585 61.9375 647.28 63.7076 647.206 65.8166C647.132 67.9633 649.645 69.9324 652.386 69.8679C655.106 69.7925 657.143 68.0655 657.137 65.8274Z" fill="#1F8CC4"/>
</svg>
