<svg width="24" height="25" viewBox="0 0 24 25" fill="none" xmlns="http://www.w3.org/2000/svg">
<path d="M14.6667 14.6749H5.33333V17.3416H14.6667V14.6749ZM21.3333 21.3416H2.66667V6.67489H21.3333V21.3416ZM21.3333 0.00822449H20H17.3333H6.66667H4H2.66667C1.95942 0.00822449 1.28115 0.289176 0.781048 0.789273C0.280951 1.28937 0 1.96765 0 2.67489V21.3416C0 22.0488 0.280951 22.7271 0.781048 23.2272C1.28115 23.7273 1.95942 24.0082 2.66667 24.0082H21.3333C22.0406 24.0082 22.7189 23.7273 23.219 23.2272C23.719 22.7271 24 22.0488 24 21.3416V2.67489C24 1.96765 23.719 1.28937 23.219 0.789273C22.7189 0.289176 22.0406 0.00822449 21.3333 0.00822449ZM18.6667 9.34156H5.33333V12.0082H18.6667V9.34156Z" fill="white"/>
</svg>
