<svg width="893" height="28" viewBox="0 0 893 28" fill="none" xmlns="http://www.w3.org/2000/svg">
<mask id="mask0" mask-type="alpha" maskUnits="userSpaceOnUse" x="0" y="0" width="893" height="28">
<rect width="893" height="28" fill="#C4C4C4"/>
</mask>
<g mask="url(#mask0)">
<path d="M1.05258e-05 16.0589C0.0954833 13.7409 -0.0877081 12.3371 1.54528e-05 10.1837C8.63423 10.1632 645.864 10.6536 654.31 10.6765C708.944 10.8116 763.579 10.9701 818.207 11.1116C831.904 11.1443 845.601 11.0062 859.287 11.2985C862.914 11.375 864.733 10.4484 866.456 7.13342C870.154 0.0153805 878.848 -2.03762 885.699 1.99868C892.311 5.89651 894.549 14.3325 890.757 21.0674C886.99 27.7636 878.543 30.2459 871.811 26.3705C869.816 25.2275 867.533 23.5552 866.741 21.5796C865.169 17.666 862.57 17.4642 859.015 17.4678C788.156 17.3874 717.288 17.1887 646.432 17.0006C640.644 16.9878 6.31523 16.1257 1.05258e-05 16.0589ZM885.107 7.39944C881.166 3.58729 875.318 3.6902 871.627 7.64512C868.163 11.3466 868.251 17.2904 871.832 20.8981C875.321 24.4199 882.016 24.292 885.494 20.628C888.935 17.0157 888.761 10.9417 885.107 7.39944Z" fill="#FFDE00"/>
<path d="M883.64 18.915C881.22 21.561 877.184 21.7496 874.449 19.3442C871.714 16.9388 871.477 13.0048 873.893 10.2198C876.511 7.20743 880.414 7.01642 883.267 9.76627C885.97 12.375 886.121 16.1914 883.64 18.915Z" fill="#FFDE00"/>
</g>
</svg>
