<svg width="37" height="48" viewBox="0 0 37 48" fill="none" xmlns="http://www.w3.org/2000/svg">
<path d="M36.5625 12.6562L26.7188 9.84375L23.9062 0H4.21875C1.88878 0 0 1.88878 0 4.21875V43.7812C0 46.1112 1.88878 48 4.21875 48H32.3438C34.6737 48 36.5625 46.1112 36.5625 43.7812V12.6562Z" fill="#B4BCC4"/>
<path d="M36.5625 12.6562V43.7812C36.5625 46.1112 34.6737 48 32.3438 48H18.2812V0H23.9062L26.7188 9.84375L36.5625 12.6562Z" fill="#B4BCC4"/>
<path d="M36.5625 12.6562H26.7188C25.1719 12.6562 23.9062 11.3906 23.9062 9.84375V0C24.2719 0 24.6375 0.140625 24.8905 0.421969L36.1405 11.672C36.4219 11.925 36.5625 12.2906 36.5625 12.6562Z" fill="#E90B54"/>
<path d="M26.7188 22.5938H9.84375C9.06647 22.5938 8.4375 21.9648 8.4375 21.1875C8.4375 20.4102 9.06647 19.7812 9.84375 19.7812H26.7188C27.496 19.7812 28.125 20.4102 28.125 21.1875C28.125 21.9648 27.496 22.5938 26.7188 22.5938Z" fill="#F2F2F2"/>
<path d="M26.7188 28.2188H9.84375C9.06647 28.2188 8.4375 27.5898 8.4375 26.8125C8.4375 26.0352 9.06647 25.4062 9.84375 25.4062H26.7188C27.496 25.4062 28.125 26.0352 28.125 26.8125C28.125 27.5898 27.496 28.2188 26.7188 28.2188Z" fill="#F2F2F2"/>
<path d="M26.7188 33.8438H9.84375C9.06647 33.8438 8.4375 33.2148 8.4375 32.4375C8.4375 31.6602 9.06647 31.0312 9.84375 31.0312H26.7188C27.496 31.0312 28.125 31.6602 28.125 32.4375C28.125 33.2148 27.496 33.8438 26.7188 33.8438Z" fill="#F2F2F2"/>
<path d="M21.0938 39.4688H9.84375C9.06647 39.4688 8.4375 38.8398 8.4375 38.0625C8.4375 37.2852 9.06647 36.6562 9.84375 36.6562H21.0938C21.871 36.6562 22.5 37.2852 22.5 38.0625C22.5 38.8398 21.871 39.4688 21.0938 39.4688Z" fill="#F2F2F2"/>
<path d="M18.2812 39.4688H21.0938C21.871 39.4688 22.5 38.8398 22.5 38.0625C22.5 37.2852 21.871 36.6562 21.0938 36.6562H18.2812V39.4688Z" fill="#F2F2F2"/>
<path d="M18.2812 33.8438H26.7188C27.496 33.8438 28.125 33.2148 28.125 32.4375C28.125 31.6602 27.496 31.0312 26.7188 31.0312H18.2812V33.8438Z" fill="#F2F2F2"/>
<path d="M18.2812 28.2188H26.7188C27.496 28.2188 28.125 27.5898 28.125 26.8125C28.125 26.0352 27.496 25.4062 26.7188 25.4062H18.2812V28.2188Z" fill="#F2F2F2"/>
<path d="M18.2812 22.5938H26.7188C27.496 22.5938 28.125 21.9648 28.125 21.1875C28.125 20.4102 27.496 19.7812 26.7188 19.7812H18.2812V22.5938Z" fill="#F2F2F2"/>
</svg>
