<svg width="1920" height="260" viewBox="0 0 1920 260" fill="none" xmlns="http://www.w3.org/2000/svg">
<mask id="mask0" mask-type="alpha" maskUnits="userSpaceOnUse" x="0" y="0" width="1921" height="260">
<rect width="1921" height="260" fill="#C4C4C4"/>
</mask>
<g mask="url(#mask0)">
<path d="M35.3326 210.768C40.2219 215.743 44.8189 220.508 49.5403 225.148C50.2992 225.893 51.6117 226.08 52.6754 226.527C52.1591 225.458 51.8792 224.173 51.0954 223.359C47.2947 219.402 43.3571 215.57 39.4755 211.687C38.6855 210.898 37.9328 210.072 37.2983 209.408C40.62 206.122 43.7427 203.034 47.2076 199.606C51.4811 203.929 55.9163 208.538 60.5257 212.961C61.4899 213.886 62.1181 216.433 64.2393 214.694C64.4073 214.557 63.157 212.234 62.2052 211.277C57.6954 206.743 53.0611 202.333 47.5559 196.984C49.4158 195.661 51.1514 194.959 52.0098 193.674C52.8434 192.419 53.5027 190.17 52.9056 189.089C52.3208 188.033 50.0068 187.325 48.5512 187.468C45.3725 187.772 44.315 187.319 44.4021 184.045C44.483 180.977 43.2638 178.71 41.1737 176.641C34.0325 169.572 26.9598 162.435 19.8311 155.354C16.8514 152.397 15.259 152.428 12.2483 155.416C5.78515 161.839 -0.671748 168.274 -7.10376 174.74C-9.9652 177.616 -9.96521 179.188 -7.09133 182.07C0.149351 189.332 7.46469 196.518 14.668 203.817C16.6213 205.792 18.7674 206.755 21.5542 206.743C24.9568 206.73 25.4109 207.724 25.0252 211.085C24.8697 212.451 25.585 214.619 26.6177 215.228C27.6378 215.837 29.6097 215.116 31.0529 214.638C31.8491 214.371 32.4152 213.408 33.0932 212.768C33.6904 212.24 34.3 211.7 35.3326 210.768Z" fill="#4779CE"/>
<path d="M735.49 210.768C740.379 215.743 744.976 220.508 749.697 225.148C750.456 225.893 751.769 226.08 752.832 226.527C752.316 225.458 752.036 224.173 751.252 223.359C747.452 219.402 743.514 215.57 739.632 211.687C738.842 210.898 738.09 210.072 737.455 209.408C740.777 206.122 743.9 203.034 747.365 199.606C751.638 203.929 756.073 208.538 760.683 212.961C761.647 213.886 762.275 216.433 764.396 214.694C764.564 214.557 763.314 212.234 762.362 211.277C757.852 206.743 753.218 202.333 747.713 196.984C749.573 195.661 751.308 194.959 752.167 193.674C753 192.419 753.66 190.17 753.063 189.089C752.478 188.033 750.164 187.325 748.708 187.468C745.529 187.772 744.472 187.319 744.559 184.045C744.64 180.977 743.421 178.71 741.331 176.641C734.189 169.572 727.117 162.435 719.988 155.354C717.008 152.397 715.416 152.428 712.405 155.416C705.942 161.839 699.485 168.274 693.053 174.74C690.192 177.616 690.192 179.188 693.066 182.07C700.306 189.332 707.622 196.518 714.825 203.817C716.778 205.792 718.924 206.755 721.711 206.743C725.114 206.73 725.568 207.724 725.182 211.085C725.027 212.451 725.742 214.619 726.775 215.228C727.795 215.837 729.767 215.116 731.21 214.638C732.006 214.371 732.572 213.408 733.25 212.768C733.847 212.24 734.457 211.7 735.49 210.768Z" fill="#4779CE"/>
<path d="M1432.62 210.768C1437.51 215.743 1442.1 220.508 1446.82 225.148C1447.58 225.893 1448.9 226.08 1449.96 226.527C1449.44 225.458 1449.16 224.173 1448.38 223.359C1444.58 219.402 1440.64 215.57 1436.76 211.687C1435.97 210.898 1435.22 210.072 1434.58 209.408C1437.9 206.122 1441.03 203.034 1444.49 199.606C1448.76 203.929 1453.2 208.538 1457.81 212.961C1458.77 213.886 1459.4 216.433 1461.52 214.694C1461.69 214.557 1460.44 212.234 1459.49 211.277C1454.98 206.743 1450.34 202.333 1444.84 196.984C1446.7 195.661 1448.44 194.959 1449.29 193.674C1450.13 192.419 1450.79 190.17 1450.19 189.089C1449.6 188.033 1447.29 187.325 1445.83 187.468C1442.66 187.772 1441.6 187.319 1441.69 184.045C1441.77 180.977 1440.55 178.71 1438.46 176.641C1431.32 169.572 1424.24 162.435 1417.11 155.354C1414.13 152.397 1412.54 152.428 1409.53 155.416C1403.07 161.839 1396.61 168.274 1390.18 174.74C1387.32 177.616 1387.32 179.188 1390.19 182.07C1397.43 189.332 1404.75 196.518 1411.95 203.817C1413.9 205.792 1416.05 206.755 1418.84 206.743C1422.24 206.73 1422.69 207.724 1422.31 211.085C1422.15 212.451 1422.87 214.619 1423.9 215.228C1424.92 215.837 1426.89 215.116 1428.34 214.638C1429.13 214.371 1429.7 213.408 1430.38 212.768C1430.97 212.24 1431.58 211.7 1432.62 210.768Z" fill="#4779CE"/>
<path d="M384.968 210.768C389.857 215.743 394.454 220.508 399.175 225.148C399.934 225.893 401.247 226.08 402.311 226.527C401.794 225.458 401.514 224.173 400.731 223.359C396.93 219.402 392.992 215.57 389.111 211.687C388.321 210.898 387.568 210.072 386.933 209.408C390.255 206.122 393.378 203.034 396.843 199.606C401.116 203.929 405.551 208.538 410.161 212.961C411.125 213.886 411.753 216.433 413.874 214.694C414.042 214.557 412.792 212.234 411.84 211.277C407.33 206.743 402.696 202.333 397.191 196.984C399.051 195.661 400.786 194.959 401.645 193.674C402.478 192.419 403.138 190.17 402.541 189.089C401.956 188.033 399.642 187.325 398.186 187.468C395.008 187.772 393.95 187.319 394.037 184.045C394.118 180.977 392.899 178.71 390.809 176.641C383.668 169.572 376.595 162.435 369.466 155.354C366.486 152.397 364.894 152.428 361.883 155.416C355.42 161.839 348.963 168.274 342.531 174.74C339.67 177.616 339.67 179.188 342.544 182.07C349.784 189.332 357.1 196.518 364.303 203.817C366.256 205.792 368.402 206.755 371.189 206.743C374.592 206.73 375.046 207.724 374.66 211.085C374.505 212.451 375.22 214.619 376.253 215.228C377.273 215.837 379.245 215.116 380.688 214.638C381.484 214.371 382.05 213.408 382.728 212.768C383.325 212.24 383.935 211.7 384.968 210.768Z" fill="#4779CE"/>
<path d="M1085.12 210.768C1090.01 215.743 1094.61 220.508 1099.33 225.148C1100.09 225.893 1101.4 226.08 1102.47 226.527C1101.95 225.458 1101.67 224.173 1100.89 223.359C1097.09 219.402 1093.15 215.57 1089.27 211.687C1088.48 210.898 1087.72 210.072 1087.09 209.408C1090.41 206.122 1093.53 203.034 1097 199.606C1101.27 203.929 1105.71 208.538 1110.32 212.961C1111.28 213.886 1111.91 216.433 1114.03 214.694C1114.2 214.557 1112.95 212.234 1112 211.277C1107.49 206.743 1102.85 202.333 1097.35 196.984C1099.21 195.661 1100.94 194.959 1101.8 193.674C1102.64 192.419 1103.29 190.17 1102.7 189.089C1102.11 188.033 1099.8 187.325 1098.34 187.468C1095.16 187.772 1094.11 187.319 1094.19 184.045C1094.27 180.977 1093.06 178.71 1090.97 176.641C1083.82 169.572 1076.75 162.435 1069.62 155.354C1066.64 152.397 1065.05 152.428 1062.04 155.416C1055.58 161.839 1049.12 168.274 1042.69 174.74C1039.83 177.616 1039.83 179.188 1042.7 182.07C1049.94 189.332 1057.26 196.518 1064.46 203.817C1066.41 205.792 1068.56 206.755 1071.35 206.743C1074.75 206.73 1075.2 207.724 1074.82 211.085C1074.66 212.451 1075.38 214.619 1076.41 215.228C1077.43 215.837 1079.4 215.116 1080.84 214.638C1081.64 214.371 1082.21 213.408 1082.89 212.768C1083.48 212.24 1084.09 211.7 1085.12 210.768Z" fill="#4779CE"/>
<path d="M1782.25 210.768C1787.14 215.743 1791.74 220.508 1796.46 225.148C1797.22 225.893 1798.53 226.08 1799.59 226.527C1799.08 225.458 1798.8 224.173 1798.01 223.359C1794.21 219.402 1790.28 215.57 1786.39 211.687C1785.6 210.898 1784.85 210.072 1784.22 209.408C1787.54 206.122 1790.66 203.034 1794.13 199.606C1798.4 203.929 1802.84 208.538 1807.44 212.961C1808.41 213.886 1809.04 216.433 1811.16 214.694C1811.33 214.557 1810.08 212.234 1809.12 211.277C1804.61 206.743 1799.98 202.333 1794.47 196.984C1796.33 195.661 1798.07 194.959 1798.93 193.674C1799.76 192.419 1800.42 190.17 1799.82 189.089C1799.24 188.033 1796.93 187.325 1795.47 187.468C1792.29 187.772 1791.23 187.319 1791.32 184.045C1791.4 180.977 1790.18 178.71 1788.09 176.641C1780.95 169.572 1773.88 162.435 1766.75 155.354C1763.77 152.397 1762.18 152.428 1759.17 155.416C1752.7 161.839 1746.25 168.274 1739.81 174.74C1736.95 177.616 1736.95 179.188 1739.83 182.07C1747.07 189.332 1754.38 196.518 1761.59 203.817C1763.54 205.792 1765.69 206.755 1768.47 206.743C1771.88 206.73 1772.33 207.724 1771.94 211.085C1771.79 212.451 1772.5 214.619 1773.54 215.228C1774.56 215.837 1776.53 215.116 1777.97 214.638C1778.77 214.371 1779.33 213.408 1780.01 212.768C1780.61 212.24 1781.22 211.7 1782.25 210.768Z" fill="#4779CE"/>
<path d="M561.772 210.768C566.661 215.743 571.258 220.508 575.979 225.148C576.738 225.893 578.051 226.08 579.115 226.527C578.598 225.458 578.318 224.173 577.535 223.359C573.734 219.402 569.796 215.57 565.915 211.687C565.125 210.898 564.372 210.072 563.737 209.408C567.059 206.122 570.182 203.034 573.647 199.606C577.92 203.929 582.355 208.538 586.965 212.961C587.929 213.886 588.557 216.433 590.679 214.694C590.847 214.557 589.596 212.234 588.644 211.277C584.135 206.743 579.5 202.333 573.995 196.984C575.855 195.661 577.591 194.959 578.449 193.674C579.283 192.419 579.942 190.17 579.345 189.089C578.76 188.033 576.446 187.325 574.99 187.468C571.812 187.772 570.754 187.319 570.841 184.045C570.922 180.977 569.703 178.71 567.613 176.641C560.472 169.572 553.399 162.435 546.27 155.354C543.29 152.397 541.698 152.428 538.687 155.416C532.224 161.839 525.767 168.274 519.335 174.74C516.474 177.616 516.474 179.188 519.348 182.07C526.588 189.332 533.904 196.518 541.107 203.817C543.06 205.792 545.206 206.755 547.993 206.743C551.396 206.73 551.85 207.724 551.464 211.085C551.309 212.451 552.024 214.619 553.057 215.228C554.077 215.837 556.049 215.116 557.492 214.638C558.288 214.371 558.854 213.408 559.532 212.768C560.129 212.24 560.739 211.7 561.772 210.768Z" fill="#4779CE"/>
<path d="M1261.93 210.768C1266.82 215.743 1271.41 220.508 1276.14 225.148C1276.9 225.893 1278.21 226.08 1279.27 226.527C1278.76 225.458 1278.48 224.173 1277.69 223.359C1273.89 219.402 1269.95 215.57 1266.07 211.687C1265.28 210.898 1264.53 210.072 1263.89 209.408C1267.22 206.122 1270.34 203.034 1273.8 199.606C1278.08 203.929 1282.51 208.538 1287.12 212.961C1288.09 213.886 1288.71 216.433 1290.84 214.694C1291 214.557 1289.75 212.234 1288.8 211.277C1284.29 206.743 1279.66 202.333 1274.15 196.984C1276.01 195.661 1277.75 194.959 1278.61 193.674C1279.44 192.419 1280.1 190.17 1279.5 189.089C1278.92 188.033 1276.6 187.325 1275.15 187.468C1271.97 187.772 1270.91 187.319 1271 184.045C1271.08 180.977 1269.86 178.71 1267.77 176.641C1260.63 169.572 1253.56 162.435 1246.43 155.354C1243.45 152.397 1241.86 152.428 1238.84 155.416C1232.38 161.839 1225.92 168.274 1219.49 174.74C1216.63 177.616 1216.63 179.188 1219.5 182.07C1226.75 189.332 1234.06 196.518 1241.26 203.817C1243.22 205.792 1245.36 206.755 1248.15 206.743C1251.55 206.73 1252.01 207.724 1251.62 211.085C1251.47 212.451 1252.18 214.619 1253.21 215.228C1254.23 215.837 1256.21 215.116 1257.65 214.638C1258.45 214.371 1259.01 213.408 1259.69 212.768C1260.29 212.24 1260.9 211.7 1261.93 210.768Z" fill="#4779CE"/>
<path d="M1959.06 210.768C1963.94 215.743 1968.54 220.508 1973.26 225.148C1974.02 225.893 1975.33 226.08 1976.4 226.527C1975.88 225.458 1975.6 224.173 1974.82 223.359C1971.02 219.402 1967.08 215.57 1963.2 211.687C1962.41 210.898 1961.66 210.072 1961.02 209.408C1964.34 206.122 1967.47 203.034 1970.93 199.606C1975.2 203.929 1979.64 208.538 1984.25 212.961C1985.21 213.886 1985.84 216.433 1987.96 214.694C1988.13 214.557 1986.88 212.234 1985.93 211.277C1981.42 206.743 1976.78 202.333 1971.28 196.984C1973.14 195.661 1974.87 194.959 1975.73 193.674C1976.57 192.419 1977.23 190.17 1976.63 189.089C1976.04 188.033 1973.73 187.325 1972.27 187.468C1969.1 187.772 1968.04 187.319 1968.13 184.045C1968.21 180.977 1966.99 178.71 1964.9 176.641C1957.76 169.572 1950.68 162.435 1943.55 155.354C1940.57 152.397 1938.98 152.428 1935.97 155.416C1929.51 161.839 1923.05 168.274 1916.62 174.74C1913.76 177.616 1913.76 179.188 1916.63 182.07C1923.87 189.332 1931.19 196.518 1938.39 203.817C1940.34 205.792 1942.49 206.755 1945.28 206.743C1948.68 206.73 1949.13 207.724 1948.75 211.085C1948.59 212.451 1949.31 214.619 1950.34 215.228C1951.36 215.837 1953.33 215.116 1954.78 214.638C1955.57 214.371 1956.14 213.408 1956.82 212.768C1957.41 212.24 1958.02 211.7 1959.06 210.768Z" fill="#4779CE"/>
<path d="M212.137 210.768C217.026 215.743 221.623 220.508 226.345 225.148C227.103 225.893 228.416 226.08 229.48 226.527C228.963 225.458 228.683 224.173 227.9 223.359C224.099 219.402 220.161 215.57 216.28 211.687C215.49 210.898 214.737 210.072 214.103 209.408C217.424 206.122 220.547 203.034 224.012 199.606C228.285 203.929 232.721 208.538 237.33 212.961C238.294 213.886 238.922 216.433 241.044 214.694C241.212 214.557 239.961 212.234 239.01 211.277C234.5 206.743 229.865 202.333 224.36 196.984C226.22 195.661 227.956 194.959 228.814 193.674C229.648 192.419 230.307 190.17 229.71 189.089C229.125 188.033 226.811 187.325 225.355 187.468C222.177 187.772 221.119 187.319 221.206 184.045C221.287 180.977 220.068 178.71 217.978 176.641C210.837 169.572 203.764 162.435 196.635 155.354C193.656 152.397 192.063 152.428 189.052 155.416C182.589 161.839 176.132 168.274 169.7 174.74C166.839 177.616 166.839 179.188 169.713 182.07C176.954 189.332 184.269 196.518 191.472 203.817C193.426 205.792 195.572 206.755 198.358 206.743C201.761 206.73 202.215 207.724 201.829 211.085C201.674 212.451 202.389 214.619 203.422 215.228C204.442 215.837 206.414 215.116 207.857 214.638C208.653 214.371 209.219 213.408 209.897 212.768C210.495 212.24 211.104 211.7 212.137 210.768Z" fill="#4779CE"/>
<path d="M912.294 210.768C917.183 215.743 921.78 220.508 926.501 225.148C927.26 225.893 928.573 226.08 929.636 226.527C929.12 225.458 928.84 224.173 928.056 223.359C924.256 219.402 920.318 215.57 916.436 211.687C915.646 210.898 914.894 210.072 914.259 209.408C917.581 206.122 920.704 203.034 924.169 199.606C928.442 203.929 932.877 208.538 937.487 212.961C938.451 213.886 939.079 216.433 941.2 214.694C941.368 214.557 940.118 212.234 939.166 211.277C934.656 206.743 930.022 202.333 924.517 196.984C926.377 195.661 928.112 194.959 928.971 193.674C929.804 192.419 930.464 190.17 929.867 189.089C929.282 188.033 926.968 187.325 925.512 187.468C922.334 187.772 921.276 187.319 921.363 184.045C921.444 180.977 920.225 178.71 918.135 176.641C910.994 169.572 903.921 162.435 896.792 155.354C893.813 152.397 892.22 152.428 889.209 155.416C882.746 161.839 876.289 168.274 869.857 174.74C866.996 177.616 866.996 179.188 869.87 182.07C877.111 189.332 884.426 196.518 891.629 203.817C893.582 205.792 895.728 206.755 898.515 206.743C901.918 206.73 902.372 207.724 901.986 211.085C901.831 212.451 902.546 214.619 903.579 215.228C904.599 215.837 906.571 215.116 908.014 214.638C908.81 214.371 909.376 213.408 910.054 212.768C910.651 212.24 911.261 211.7 912.294 210.768Z" fill="#4779CE"/>
<path d="M1609.42 210.768C1614.31 215.743 1618.91 220.508 1623.63 225.148C1624.39 225.893 1625.7 226.08 1626.76 226.527C1626.25 225.458 1625.97 224.173 1625.18 223.359C1621.38 219.402 1617.44 215.57 1613.56 211.687C1612.77 210.898 1612.02 210.072 1611.39 209.408C1614.71 206.122 1617.83 203.034 1621.3 199.606C1625.57 203.929 1630 208.538 1634.61 212.961C1635.58 213.886 1636.21 216.433 1638.33 214.694C1638.49 214.557 1637.24 212.234 1636.29 211.277C1631.78 206.743 1627.15 202.333 1621.64 196.984C1623.5 195.661 1625.24 194.959 1626.1 193.674C1626.93 192.419 1627.59 190.17 1626.99 189.089C1626.41 188.033 1624.09 187.325 1622.64 187.468C1619.46 187.772 1618.4 187.319 1618.49 184.045C1618.57 180.977 1617.35 178.71 1615.26 176.641C1608.12 169.572 1601.05 162.435 1593.92 155.354C1590.94 152.397 1589.35 152.428 1586.34 155.416C1579.87 161.839 1573.42 168.274 1566.98 174.74C1564.12 177.616 1564.12 179.188 1567 182.07C1574.24 189.332 1581.55 196.518 1588.76 203.817C1590.71 205.792 1592.86 206.755 1595.64 206.743C1599.04 206.73 1599.5 207.724 1599.11 211.085C1598.96 212.451 1599.67 214.619 1600.71 215.228C1601.73 215.837 1603.7 215.116 1605.14 214.638C1605.94 214.371 1606.5 213.408 1607.18 212.768C1607.78 212.24 1608.39 211.7 1609.42 210.768Z" fill="#4779CE"/>
<path d="M130.214 253.174C126.161 253.757 126.161 253.757 126.311 249.525C121.951 249.619 121.951 249.619 122.689 245.858C118.254 245.394 118.254 245.394 118.98 241.707C117.453 241.889 116.021 242.058 114.169 242.278C114.607 240.629 114.945 239.394 115.395 237.689C112.443 238.291 108.539 239.664 111.68 233.915C109.84 234.178 108.514 234.372 107.188 234.567C107.188 233.231 107.188 231.89 107.188 230.247C106.638 230.31 105.887 230.366 105.143 230.479C104.505 230.573 103.867 230.73 102.866 230.93C103.197 229.188 103.454 227.865 103.779 226.141C102.096 226.542 100.851 226.837 99.0937 227.257C99.3814 225.558 99.6129 224.228 99.8944 222.561C95.9097 223.225 92.1126 222.749 89.1913 226.561C86.1762 230.498 82.2478 233.745 78.6948 237.269C77.3248 238.629 76.1551 239.864 76.9432 242.165C77.281 243.149 76.5054 244.522 76.1738 246.002C77.7439 245.864 79.1764 245.732 80.9092 245.576C80.5651 247.143 80.3024 248.315 79.9646 249.857C81.6035 249.682 83.011 249.531 84.6499 249.356C84.3559 251.024 84.137 252.284 83.9055 253.607C87.9903 253.249 87.9903 253.249 87.959 257.525C91.8999 256.923 91.8999 256.923 91.6873 261.318C95.7157 261.011 95.7157 261.011 95.4968 265.13C99.5753 264.829 99.5753 264.829 99.3814 268.904C103.203 268.54 103.203 268.54 103.235 272.972C104.517 272.715 105.768 272.458 107.495 272.107C107.226 273.813 107.013 275.148 106.794 276.54C111.392 276.138 111.392 276.138 110.597 280.42C112.005 280.27 113.344 280.126 114.682 279.982C114.682 281.336 114.682 282.696 114.682 284.332C115.233 284.251 115.99 284.126 116.753 284.019C117.397 283.931 118.048 283.869 119.023 283.756C118.679 285.386 118.41 286.627 118.123 288C122.501 287.868 126.392 287.618 129.307 283.706C131.591 280.646 134.393 277.806 137.464 275.543C141.33 272.69 141.455 268.822 141.731 264.546C140.311 264.797 138.978 265.029 137.239 265.336C137.527 263.631 137.752 262.296 137.99 260.904C133.574 261.274 133.574 261.274 133.986 257.199C129.776 257.268 129.776 257.268 130.214 253.174Z" fill="#4779CE"/>
<path d="M830.371 253.174C826.318 253.757 826.318 253.757 826.468 249.525C822.108 249.619 822.108 249.619 822.846 245.858C818.411 245.394 818.411 245.394 819.137 241.707C817.61 241.889 816.178 242.058 814.326 242.278C814.764 240.629 815.102 239.394 815.552 237.689C812.6 238.291 808.696 239.664 811.837 233.915C809.998 234.178 808.671 234.372 807.345 234.567C807.345 233.231 807.345 231.89 807.345 230.247C806.795 230.31 806.044 230.366 805.3 230.479C804.662 230.573 804.024 230.73 803.023 230.93C803.354 229.188 803.611 227.865 803.936 226.141C802.253 226.542 801.008 226.837 799.251 227.257C799.538 225.558 799.77 224.228 800.051 222.561C796.067 223.225 792.27 222.749 789.348 226.561C786.333 230.498 782.405 233.745 778.852 237.269C777.482 238.629 776.312 239.864 777.1 242.165C777.438 243.149 776.662 244.522 776.331 246.002C777.901 245.864 779.333 245.732 781.066 245.576C780.722 247.143 780.459 248.315 780.122 249.857C781.761 249.682 783.168 249.531 784.807 249.356C784.513 251.024 784.294 252.284 784.063 253.607C788.147 253.249 788.147 253.249 788.116 257.525C792.057 256.923 792.057 256.923 791.844 261.318C795.873 261.011 795.873 261.011 795.654 265.13C799.732 264.829 799.732 264.829 799.538 268.904C803.361 268.54 803.361 268.54 803.392 272.972C804.674 272.715 805.925 272.458 807.652 272.107C807.383 273.813 807.17 275.148 806.951 276.54C811.549 276.138 811.549 276.138 810.754 280.42C812.162 280.27 813.501 280.126 814.839 279.982C814.839 281.336 814.839 282.696 814.839 284.332C815.39 284.251 816.147 284.126 816.91 284.019C817.554 283.931 818.205 283.869 819.18 283.756C818.836 285.386 818.567 286.627 818.28 288C822.659 287.868 826.549 287.618 829.464 283.706C831.748 280.646 834.55 277.806 837.621 275.543C841.487 272.69 841.612 268.822 841.888 264.546C840.468 264.797 839.135 265.029 837.396 265.336C837.684 263.631 837.909 262.296 838.147 260.904C833.731 261.274 833.731 261.274 834.143 257.199C829.934 257.268 829.934 257.268 830.371 253.174Z" fill="#4779CE"/>
<path d="M1527.5 253.174C1523.44 253.757 1523.44 253.757 1523.59 249.525C1519.23 249.619 1519.23 249.619 1519.97 245.858C1515.54 245.394 1515.54 245.394 1516.26 241.707C1514.74 241.889 1513.3 242.058 1511.45 242.278C1511.89 240.629 1512.23 239.394 1512.68 237.689C1509.73 238.291 1505.82 239.664 1508.96 233.915C1507.12 234.178 1505.8 234.372 1504.47 234.567C1504.47 233.231 1504.47 231.89 1504.47 230.247C1503.92 230.31 1503.17 230.366 1502.43 230.479C1501.79 230.573 1501.15 230.73 1500.15 230.93C1500.48 229.188 1500.74 227.865 1501.06 226.141C1499.38 226.542 1498.14 226.837 1496.38 227.257C1496.67 225.558 1496.9 224.228 1497.18 222.561C1493.19 223.225 1489.4 222.749 1486.48 226.561C1483.46 230.498 1479.53 233.745 1475.98 237.269C1474.61 238.629 1473.44 239.864 1474.23 242.165C1474.56 243.149 1473.79 244.522 1473.46 246.002C1475.03 245.864 1476.46 245.732 1478.19 245.576C1477.85 247.143 1477.59 248.315 1477.25 249.857C1478.89 249.682 1480.29 249.531 1481.93 249.356C1481.64 251.024 1481.42 252.284 1481.19 253.607C1485.27 253.249 1485.27 253.249 1485.24 257.525C1489.18 256.923 1489.18 256.923 1488.97 261.318C1493 261.011 1493 261.011 1492.78 265.13C1496.86 264.829 1496.86 264.829 1496.67 268.904C1500.49 268.54 1500.49 268.54 1500.52 272.972C1501.8 272.715 1503.05 272.458 1504.78 272.107C1504.51 273.813 1504.3 275.148 1504.08 276.54C1508.68 276.138 1508.68 276.138 1507.88 280.42C1509.29 280.27 1510.63 280.126 1511.97 279.982C1511.97 281.336 1511.97 282.696 1511.97 284.332C1512.52 284.251 1513.27 284.126 1514.04 284.019C1514.68 283.931 1515.33 283.869 1516.31 283.756C1515.96 285.386 1515.69 286.627 1515.41 288C1519.79 287.868 1523.68 287.618 1526.59 283.706C1528.87 280.646 1531.68 277.806 1534.75 275.543C1538.61 272.69 1538.74 268.822 1539.01 264.546C1537.59 264.797 1536.26 265.029 1534.52 265.336C1534.81 263.631 1535.04 262.296 1535.27 260.904C1530.86 261.274 1530.86 261.274 1531.27 257.199C1527.06 257.268 1527.06 257.268 1527.5 253.174Z" fill="#4779CE"/>
<path d="M656.653 253.174C652.6 253.757 652.6 253.757 652.75 249.525C648.39 249.619 648.39 249.619 649.128 245.858C644.693 245.394 644.693 245.394 645.419 241.707C643.892 241.889 642.46 242.058 640.608 242.278C641.046 240.629 641.384 239.394 641.834 237.689C638.882 238.291 634.978 239.664 638.119 233.915C636.279 234.178 634.953 234.372 633.627 234.567C633.627 233.231 633.627 231.89 633.627 230.247C633.077 230.31 632.326 230.366 631.582 230.479C630.944 230.573 630.306 230.73 629.305 230.93C629.636 229.188 629.893 227.865 630.218 226.141C628.535 226.542 627.291 226.837 625.533 227.257C625.82 225.558 626.052 224.228 626.333 222.561C622.349 223.225 618.552 222.749 615.63 226.561C612.615 230.498 608.687 233.745 605.134 237.269C603.764 238.629 602.594 239.864 603.382 242.165C603.72 243.149 602.945 244.522 602.613 246.002C604.183 245.864 605.616 245.732 607.348 245.576C607.004 247.143 606.742 248.315 606.404 249.857C608.043 249.682 609.45 249.531 611.089 249.356C610.795 251.024 610.576 252.284 610.345 253.607C614.429 253.249 614.429 253.249 614.398 257.525C618.339 256.923 618.339 256.923 618.126 261.318C622.155 261.011 622.155 261.011 621.936 265.13C626.014 264.829 626.014 264.829 625.82 268.904C629.643 268.54 629.643 268.54 629.674 272.972C630.956 272.715 632.207 272.458 633.934 272.107C633.665 273.813 633.452 275.148 633.233 276.54C637.831 276.138 637.831 276.138 637.036 280.42C638.444 280.27 639.783 280.126 641.121 279.982C641.121 281.336 641.121 282.696 641.121 284.332C641.672 284.251 642.429 284.126 643.192 284.019C643.836 283.931 644.487 283.869 645.462 283.756C645.118 285.386 644.849 286.627 644.562 288C648.94 287.868 652.831 287.618 655.746 283.706C658.029 280.646 660.832 277.806 663.903 275.543C667.769 272.69 667.894 268.822 668.169 264.546C666.749 264.797 665.417 265.029 663.678 265.336C663.966 263.631 664.191 262.296 664.429 260.904C660.012 261.274 660.012 261.274 660.425 257.199C656.215 257.268 656.215 257.268 656.653 253.174Z" fill="#4779CE"/>
<path d="M1356.81 253.174C1352.76 253.757 1352.76 253.757 1352.91 249.525C1348.55 249.619 1348.55 249.619 1349.29 245.858C1344.85 245.394 1344.85 245.394 1345.58 241.707C1344.05 241.889 1342.62 242.058 1340.77 242.278C1341.2 240.629 1341.54 239.394 1341.99 237.689C1339.04 238.291 1335.14 239.664 1338.28 233.915C1336.44 234.178 1335.11 234.372 1333.78 234.567C1333.78 233.231 1333.78 231.89 1333.78 230.247C1333.23 230.31 1332.48 230.366 1331.74 230.479C1331.1 230.573 1330.46 230.73 1329.46 230.93C1329.79 229.188 1330.05 227.865 1330.38 226.141C1328.69 226.542 1327.45 226.837 1325.69 227.257C1325.98 225.558 1326.21 224.228 1326.49 222.561C1322.51 223.225 1318.71 222.749 1315.79 226.561C1312.77 230.498 1308.84 233.745 1305.29 237.269C1303.92 238.629 1302.75 239.864 1303.54 242.165C1303.88 243.149 1303.1 244.522 1302.77 246.002C1304.34 245.864 1305.77 245.732 1307.51 245.576C1307.16 247.143 1306.9 248.315 1306.56 249.857C1308.2 249.682 1309.61 249.531 1311.25 249.356C1310.95 251.024 1310.73 252.284 1310.5 253.607C1314.59 253.249 1314.59 253.249 1314.56 257.525C1318.5 256.923 1318.5 256.923 1318.28 261.318C1322.31 261.011 1322.31 261.011 1322.09 265.13C1326.17 264.829 1326.17 264.829 1325.98 268.904C1329.8 268.54 1329.8 268.54 1329.83 272.972C1331.11 272.715 1332.36 272.458 1334.09 272.107C1333.82 273.813 1333.61 275.148 1333.39 276.54C1337.99 276.138 1337.99 276.138 1337.19 280.42C1338.6 280.27 1339.94 280.126 1341.28 279.982C1341.28 281.336 1341.28 282.696 1341.28 284.332C1341.83 284.251 1342.59 284.126 1343.35 284.019C1343.99 283.931 1344.64 283.869 1345.62 283.756C1345.28 285.386 1345.01 286.627 1344.72 288C1349.1 287.868 1352.99 287.618 1355.9 283.706C1358.19 280.646 1360.99 277.806 1364.06 275.543C1367.93 272.69 1368.05 268.822 1368.33 264.546C1366.91 264.797 1365.57 265.029 1363.84 265.336C1364.12 263.631 1364.35 262.296 1364.59 260.904C1360.17 261.274 1360.17 261.274 1360.58 257.199C1356.37 257.268 1356.37 257.268 1356.81 253.174Z" fill="#4779CE"/>
<path d="M305.032 253.174C300.979 253.757 300.979 253.757 301.129 249.525C296.769 249.619 296.769 249.619 297.507 245.858C293.072 245.394 293.072 245.394 293.797 241.707C292.271 241.889 290.839 242.058 288.987 242.278C289.425 240.629 289.763 239.394 290.213 237.689C287.26 238.291 283.357 239.664 286.497 233.915C284.658 234.178 283.332 234.372 282.006 234.567C282.006 233.231 282.006 231.89 282.006 230.247C281.455 230.31 280.705 230.366 279.96 230.479C279.322 230.573 278.684 230.73 277.683 230.93C278.015 229.188 278.271 227.865 278.597 226.141C276.914 226.542 275.669 226.837 273.911 227.257C274.199 225.558 274.431 224.228 274.712 222.561C270.727 223.225 266.93 222.749 264.009 226.561C260.994 230.498 257.066 233.745 253.513 237.269C252.143 238.629 250.973 239.864 251.761 242.165C252.099 243.149 251.323 244.522 250.992 246.002C252.562 245.864 253.994 245.732 255.727 245.576C255.383 247.143 255.12 248.315 254.782 249.857C256.421 249.682 257.829 249.531 259.468 249.356C259.174 251.024 258.955 252.284 258.723 253.607C262.808 253.249 262.808 253.249 262.777 257.525C266.718 256.923 266.718 256.923 266.505 261.318C270.533 261.011 270.533 261.011 270.315 265.13C274.393 264.829 274.393 264.829 274.199 268.904C278.021 268.54 278.021 268.54 278.052 272.972C279.335 272.715 280.586 272.458 282.312 272.107C282.043 273.813 281.831 275.148 281.612 276.54C286.21 276.138 286.21 276.138 285.415 280.42C286.823 280.27 288.161 280.126 289.5 279.982C289.5 281.336 289.5 282.696 289.5 284.332C290.05 284.251 290.807 284.126 291.57 284.019C292.215 283.931 292.865 283.869 293.841 283.756C293.497 285.386 293.228 286.627 292.94 288C297.319 287.868 301.21 287.618 304.125 283.706C306.408 280.646 309.211 277.806 312.282 275.543C316.148 272.69 316.273 268.822 316.548 264.546C315.128 264.797 313.796 265.029 312.057 265.336C312.345 263.631 312.57 262.296 312.807 260.904C308.391 261.274 308.391 261.274 308.804 257.199C304.594 257.268 304.594 257.268 305.032 253.174Z" fill="#4779CE"/>
<path d="M1005.19 253.174C1001.14 253.757 1001.14 253.757 1001.29 249.525C996.925 249.619 996.925 249.619 997.663 245.858C993.228 245.394 993.228 245.394 993.954 241.707C992.428 241.889 990.995 242.058 989.144 242.278C989.581 240.629 989.919 239.394 990.37 237.689C987.417 238.291 983.514 239.664 986.654 233.915C984.815 234.178 983.489 234.372 982.163 234.567C982.163 233.231 982.163 231.89 982.163 230.247C981.612 230.31 980.861 230.366 980.117 230.479C979.479 230.573 978.841 230.73 977.84 230.93C978.172 229.188 978.428 227.865 978.753 226.141C977.071 226.542 975.826 226.837 974.068 227.257C974.356 225.558 974.587 224.228 974.869 222.561C970.884 223.225 967.087 222.749 964.166 226.561C961.151 230.498 957.222 233.745 953.669 237.269C952.299 238.629 951.13 239.864 951.918 242.165C952.256 243.149 951.48 244.522 951.148 246.002C952.719 245.864 954.151 245.732 955.884 245.576C955.54 247.143 955.277 248.315 954.939 249.857C956.578 249.682 957.986 249.531 959.624 249.356C959.33 251.024 959.112 252.284 958.88 253.607C962.965 253.249 962.965 253.249 962.934 257.525C966.874 256.923 966.874 256.923 966.662 261.318C970.69 261.011 970.69 261.011 970.471 265.13C974.55 264.829 974.55 264.829 974.356 268.904C978.178 268.54 978.178 268.54 978.209 272.972C979.492 272.715 980.743 272.458 982.469 272.107C982.2 273.813 981.987 275.148 981.769 276.54C986.366 276.138 986.366 276.138 985.572 280.42C986.979 280.27 988.318 280.126 989.657 279.982C989.657 281.336 989.657 282.696 989.657 284.332C990.207 284.251 990.964 284.126 991.727 284.019C992.371 283.931 993.022 283.869 993.998 283.756C993.654 285.386 993.385 286.627 993.097 288C997.476 287.868 1001.37 287.618 1004.28 283.706C1006.56 280.646 1009.37 277.806 1012.44 275.543C1016.3 272.69 1016.43 268.822 1016.7 264.546C1015.28 264.797 1013.95 265.029 1012.21 265.336C1012.5 263.631 1012.73 262.296 1012.96 260.904C1008.55 261.274 1008.55 261.274 1008.96 257.199C1004.75 257.268 1004.75 257.268 1005.19 253.174Z" fill="#4779CE"/>
<path d="M1702.32 253.174C1698.26 253.757 1698.26 253.757 1698.41 249.525C1694.05 249.619 1694.05 249.619 1694.79 245.858C1690.36 245.394 1690.36 245.394 1691.08 241.707C1689.55 241.889 1688.12 242.058 1686.27 242.278C1686.71 240.629 1687.05 239.394 1687.5 237.689C1684.54 238.291 1680.64 239.664 1683.78 233.915C1681.94 234.178 1680.62 234.372 1679.29 234.567C1679.29 233.231 1679.29 231.89 1679.29 230.247C1678.74 230.31 1677.99 230.366 1677.24 230.479C1676.61 230.573 1675.97 230.73 1674.97 230.93C1675.3 229.188 1675.55 227.865 1675.88 226.141C1674.2 226.542 1672.95 226.837 1671.19 227.257C1671.48 225.558 1671.71 224.228 1672 222.561C1668.01 223.225 1664.21 222.749 1661.29 226.561C1658.28 230.498 1654.35 233.745 1650.8 237.269C1649.43 238.629 1648.26 239.864 1649.04 242.165C1649.38 243.149 1648.61 244.522 1648.28 246.002C1649.85 245.864 1651.28 245.732 1653.01 245.576C1652.67 247.143 1652.4 248.315 1652.07 249.857C1653.7 249.682 1655.11 249.531 1656.75 249.356C1656.46 251.024 1656.24 252.284 1656.01 253.607C1660.09 253.249 1660.09 253.249 1660.06 257.525C1664 256.923 1664 256.923 1663.79 261.318C1667.82 261.011 1667.82 261.011 1667.6 265.13C1671.68 264.829 1671.68 264.829 1671.48 268.904C1675.3 268.54 1675.3 268.54 1675.34 272.972C1676.62 272.715 1677.87 272.458 1679.6 272.107C1679.33 273.813 1679.11 275.148 1678.9 276.54C1683.49 276.138 1683.49 276.138 1682.7 280.42C1684.11 280.27 1685.44 280.126 1686.78 279.982C1686.78 281.336 1686.78 282.696 1686.78 284.332C1687.33 284.251 1688.09 284.126 1688.85 284.019C1689.5 283.931 1690.15 283.869 1691.12 283.756C1690.78 285.386 1690.51 286.627 1690.22 288C1694.6 287.868 1698.49 287.618 1701.41 283.706C1703.69 280.646 1706.49 277.806 1709.57 275.543C1713.43 272.69 1713.56 268.822 1713.83 264.546C1712.41 264.797 1711.08 265.029 1709.34 265.336C1709.63 263.631 1709.85 262.296 1710.09 260.904C1705.67 261.274 1705.67 261.274 1706.09 257.199C1701.88 257.268 1701.88 257.268 1702.32 253.174Z" fill="#4779CE"/>
<path d="M479.849 253.174C475.796 253.757 475.796 253.757 475.946 249.525C471.586 249.619 471.586 249.619 472.324 245.858C467.889 245.394 467.889 245.394 468.615 241.707C467.088 241.889 465.656 242.058 463.804 242.278C464.242 240.629 464.58 239.394 465.03 237.689C462.078 238.291 458.174 239.664 461.315 233.915C459.475 234.178 458.149 234.372 456.823 234.567C456.823 233.231 456.823 231.89 456.823 230.247C456.273 230.31 455.522 230.366 454.778 230.479C454.14 230.573 453.502 230.73 452.501 230.93C452.832 229.188 453.089 227.865 453.414 226.141C451.731 226.542 450.486 226.837 448.729 227.257C449.016 225.558 449.248 224.228 449.529 222.561C445.545 223.225 441.748 222.749 438.826 226.561C435.811 230.498 431.883 233.745 428.33 237.269C426.96 238.629 425.79 239.864 426.578 242.165C426.916 243.149 426.14 244.522 425.809 246.002C427.379 245.864 428.812 245.732 430.544 245.576C430.2 247.143 429.938 248.315 429.6 249.857C431.239 249.682 432.646 249.531 434.285 249.356C433.991 251.024 433.772 252.284 433.541 253.607C437.625 253.249 437.625 253.249 437.594 257.525C441.535 256.923 441.535 256.923 441.322 261.318C445.351 261.011 445.351 261.011 445.132 265.13C449.21 264.829 449.21 264.829 449.016 268.904C452.839 268.54 452.839 268.54 452.87 272.972C454.152 272.715 455.403 272.458 457.13 272.107C456.861 273.813 456.648 275.148 456.429 276.54C461.027 276.138 461.027 276.138 460.232 280.42C461.64 280.27 462.979 280.126 464.317 279.982C464.317 281.336 464.317 282.696 464.317 284.332C464.868 284.251 465.625 284.126 466.388 284.019C467.032 283.931 467.683 283.869 468.658 283.756C468.314 285.386 468.045 286.627 467.758 288C472.136 287.868 476.027 287.618 478.942 283.706C481.225 280.646 484.028 277.806 487.099 275.543C490.965 272.69 491.09 268.822 491.365 264.546C489.946 264.797 488.613 265.029 486.874 265.336C487.162 263.631 487.387 262.296 487.625 260.904C483.208 261.274 483.208 261.274 483.621 257.199C479.411 257.268 479.411 257.268 479.849 253.174Z" fill="#4779CE"/>
<path d="M1180.01 253.174C1175.95 253.757 1175.95 253.757 1176.1 249.525C1171.74 249.619 1171.74 249.619 1172.48 245.858C1168.05 245.394 1168.05 245.394 1168.77 241.707C1167.25 241.889 1165.81 242.058 1163.96 242.278C1164.4 240.629 1164.74 239.394 1165.19 237.689C1162.23 238.291 1158.33 239.664 1161.47 233.915C1159.63 234.178 1158.31 234.372 1156.98 234.567C1156.98 233.231 1156.98 231.89 1156.98 230.247C1156.43 230.31 1155.68 230.366 1154.93 230.479C1154.3 230.573 1153.66 230.73 1152.66 230.93C1152.99 229.188 1153.25 227.865 1153.57 226.141C1151.89 226.542 1150.64 226.837 1148.89 227.257C1149.17 225.558 1149.4 224.228 1149.69 222.561C1145.7 223.225 1141.9 222.749 1138.98 226.561C1135.97 230.498 1132.04 233.745 1128.49 237.269C1127.12 238.629 1125.95 239.864 1126.74 242.165C1127.07 243.149 1126.3 244.522 1125.97 246.002C1127.54 245.864 1128.97 245.732 1130.7 245.576C1130.36 247.143 1130.09 248.315 1129.76 249.857C1131.4 249.682 1132.8 249.531 1134.44 249.356C1134.15 251.024 1133.93 252.284 1133.7 253.607C1137.78 253.249 1137.78 253.249 1137.75 257.525C1141.69 256.923 1141.69 256.923 1141.48 261.318C1145.51 261.011 1145.51 261.011 1145.29 265.13C1149.37 264.829 1149.37 264.829 1149.17 268.904C1153 268.54 1153 268.54 1153.03 272.972C1154.31 272.715 1155.56 272.458 1157.29 272.107C1157.02 273.813 1156.81 275.148 1156.59 276.54C1161.18 276.138 1161.18 276.138 1160.39 280.42C1161.8 280.27 1163.14 280.126 1164.47 279.982C1164.47 281.336 1164.47 282.696 1164.47 284.332C1165.02 284.251 1165.78 284.126 1166.54 284.019C1167.19 283.931 1167.84 283.869 1168.82 283.756C1168.47 285.386 1168.2 286.627 1167.91 288C1172.29 287.868 1176.18 287.618 1179.1 283.706C1181.38 280.646 1184.19 277.806 1187.26 275.543C1191.12 272.69 1191.25 268.822 1191.52 264.546C1190.1 264.797 1188.77 265.029 1187.03 265.336C1187.32 263.631 1187.54 262.296 1187.78 260.904C1183.37 261.274 1183.37 261.274 1183.78 257.199C1179.57 257.268 1179.57 257.268 1180.01 253.174Z" fill="#4779CE"/>
<path d="M1877.13 253.174C1873.08 253.757 1873.08 253.757 1873.23 249.525C1868.87 249.619 1868.87 249.619 1869.61 245.858C1865.17 245.394 1865.17 245.394 1865.9 241.707C1864.37 241.889 1862.94 242.058 1861.09 242.278C1861.53 240.629 1861.86 239.394 1862.31 237.689C1859.36 238.291 1855.46 239.664 1858.6 233.915C1856.76 234.178 1855.43 234.372 1854.11 234.567C1854.11 233.231 1854.11 231.89 1854.11 230.247C1853.56 230.31 1852.81 230.366 1852.06 230.479C1851.42 230.573 1850.79 230.73 1849.78 230.93C1850.12 229.188 1850.37 227.865 1850.7 226.141C1849.02 226.542 1847.77 226.837 1846.01 227.257C1846.3 225.558 1846.53 224.228 1846.81 222.561C1842.83 223.225 1839.03 222.749 1836.11 226.561C1833.09 230.498 1829.17 233.745 1825.61 237.269C1824.24 238.629 1823.07 239.864 1823.86 242.165C1824.2 243.149 1823.42 244.522 1823.09 246.002C1824.66 245.864 1826.1 245.732 1827.83 245.576C1827.48 247.143 1827.22 248.315 1826.88 249.857C1828.52 249.682 1829.93 249.531 1831.57 249.356C1831.27 251.024 1831.06 252.284 1830.82 253.607C1834.91 253.249 1834.91 253.249 1834.88 257.525C1838.82 256.923 1838.82 256.923 1838.61 261.318C1842.63 261.011 1842.63 261.011 1842.42 265.13C1846.49 264.829 1846.49 264.829 1846.3 268.904C1850.12 268.54 1850.12 268.54 1850.15 272.972C1851.44 272.715 1852.69 272.458 1854.41 272.107C1854.14 273.813 1853.93 275.148 1853.71 276.54C1858.31 276.138 1858.31 276.138 1857.52 280.42C1858.92 280.27 1860.26 280.126 1861.6 279.982C1861.6 281.336 1861.6 282.696 1861.6 284.332C1862.15 284.251 1862.91 284.126 1863.67 284.019C1864.32 283.931 1864.97 283.869 1865.94 283.756C1865.6 285.386 1865.33 286.627 1865.04 288C1869.42 287.868 1873.31 287.618 1876.23 283.706C1878.51 280.646 1881.31 277.806 1884.38 275.543C1888.25 272.69 1888.37 268.822 1888.65 264.546C1887.23 264.797 1885.9 265.029 1884.16 265.336C1884.45 263.631 1884.67 262.296 1884.91 260.904C1880.49 261.274 1880.49 261.274 1880.91 257.199C1876.7 257.268 1876.7 257.268 1877.13 253.174Z" fill="#4779CE"/>
<path d="M32.156 65.5972C31.7666 66.0651 31.4023 66.5641 30.9815 67.0071C22.2645 76.1589 13.5537 85.3169 4.81147 94.45C3.74382 95.5667 2.85829 96.5087 5.31389 97.6316C9.91736 93.0151 14.5083 88.2053 19.3378 83.6325C24.2804 78.9537 29.4429 74.5057 34.5299 69.9766C34.9005 69.6459 35.6541 69.1281 35.7985 69.2467C38.6875 71.4676 39.6735 68.5168 41.0049 67.2254C48.1896 60.2508 55.2549 53.1515 62.3517 46.0896C63.0802 45.3659 63.7648 44.6048 64.2546 44.087C56.825 36.6757 49.5524 29.4142 42.4054 22.2774C33.77 30.9177 25.0152 39.6764 16.0721 48.6286C17.4475 50.1695 16.2856 51.5045 14.7155 53.1203C6.19942 61.8915 -2.20364 70.7689 -10.5941 79.6586C-11.0338 80.1265 -11.0275 81.0124 -11.2347 81.7111C-10.4497 81.5551 -9.45113 81.6425 -8.91102 81.1933C-7.39118 79.9269 -6.11 78.3985 -4.65296 77.051C3.29163 69.6958 11.2425 62.3407 19.2499 55.0604C19.7963 54.5676 20.8639 54.6425 21.6929 54.4553C21.8688 54.8296 22.0447 55.2102 22.2205 55.5845C19.5262 58.2795 16.7755 60.9121 14.1566 63.6695C7.53712 70.6503 0.961639 77.6623 -5.55105 84.743C-6.02835 85.267 -5.82738 86.4086 -5.94042 87.2571C-5.55732 87.3818 -5.17424 87.5066 -4.79742 87.6376C-0.0997473 82.9026 4.48489 78.0616 9.32073 73.4701C14.2508 68.7913 19.4006 64.3245 24.5442 59.8703C25.0152 59.4648 26.152 59.8141 27.6592 59.8141C26.7926 60.9495 26.5728 61.3051 26.2901 61.5983C17.5731 70.7564 8.83087 79.8832 0.170318 89.0912C-0.482834 89.7899 -0.558205 91.0251 -0.897339 92.0108C0.03215 91.624 1.18145 91.4618 1.85344 90.813C6.65788 86.1778 11.2676 81.343 16.1286 76.764C20.462 72.6778 25.009 68.81 29.5559 64.9546C30.0709 64.5179 31.1888 64.7737 32.0241 64.7051C32.0492 65.0045 32.0994 65.304 32.156 65.5972Z" fill="#4779CE"/>
<path d="M732.313 65.5972C731.924 66.0651 731.559 66.5641 731.138 67.0071C722.421 76.1589 713.711 85.3169 704.968 94.45C703.901 95.5667 703.015 96.5087 705.471 97.6316C710.074 93.0151 714.665 88.2053 719.495 83.6325C724.437 78.9537 729.6 74.5057 734.687 69.9766C735.057 69.6459 735.811 69.1281 735.955 69.2467C738.844 71.4676 739.83 68.5168 741.162 67.2254C748.347 60.2508 755.412 53.1515 762.509 46.0896C763.237 45.3659 763.922 44.6048 764.412 44.087C756.982 36.6757 749.709 29.4142 742.562 22.2774C733.927 30.9177 725.172 39.6764 716.229 48.6286C717.604 50.1695 716.443 51.5045 714.872 53.1203C706.356 61.8915 697.953 70.7689 689.563 79.6586C689.123 80.1265 689.129 81.0124 688.922 81.7111C689.707 81.5551 690.706 81.6425 691.246 81.1933C692.766 79.9269 694.047 78.3985 695.504 77.051C703.449 69.6958 711.399 62.3407 719.407 55.0604C719.953 54.5676 721.021 54.6425 721.85 54.4553C722.026 54.8296 722.202 55.2102 722.377 55.5845C719.683 58.2795 716.932 60.9121 714.313 63.6695C707.694 70.6503 701.119 77.6623 694.606 84.743C694.129 85.267 694.329 86.4086 694.216 87.2571C694.6 87.3818 694.983 87.5066 695.359 87.6376C700.057 82.9026 704.642 78.0616 709.478 73.4701C714.408 68.7913 719.558 64.3245 724.701 59.8703C725.172 59.4648 726.309 59.8141 727.816 59.8141C726.949 60.9495 726.73 61.3051 726.447 61.5983C717.73 70.7564 708.988 79.8832 700.327 89.0912C699.674 89.7899 699.599 91.0251 699.26 92.0108C700.189 91.624 701.338 91.4618 702.01 90.813C706.815 86.1778 711.425 81.343 716.285 76.764C720.619 72.6778 725.166 68.81 729.713 64.9546C730.228 64.5179 731.346 64.7737 732.181 64.7051C732.206 65.0045 732.256 65.304 732.313 65.5972Z" fill="#4779CE"/>
<path d="M1429.44 65.5972C1429.05 66.0651 1428.69 66.5641 1428.27 67.0071C1419.55 76.1589 1410.84 85.3169 1402.1 94.45C1401.03 95.5667 1400.14 96.5087 1402.6 97.6316C1407.2 93.0151 1411.79 88.2053 1416.62 83.6325C1421.56 78.9537 1426.73 74.5057 1431.81 69.9766C1432.18 69.6459 1432.94 69.1281 1433.08 69.2467C1435.97 71.4676 1436.96 68.5168 1438.29 67.2254C1445.47 60.2508 1452.54 53.1515 1459.64 46.0896C1460.36 45.3659 1461.05 44.6048 1461.54 44.087C1454.11 36.6757 1446.84 29.4142 1439.69 22.2774C1431.05 30.9177 1422.3 39.6764 1413.36 48.6286C1414.73 50.1695 1413.57 51.5045 1412 53.1203C1403.48 61.8915 1395.08 70.7689 1386.69 79.6586C1386.25 80.1265 1386.26 81.0124 1386.05 81.7111C1386.83 81.5551 1387.83 81.6425 1388.37 81.1933C1389.89 79.9269 1391.17 78.3985 1392.63 77.051C1400.58 69.6958 1408.53 62.3407 1416.53 55.0604C1417.08 54.5676 1418.15 54.6425 1418.98 54.4553C1419.15 54.8296 1419.33 55.2102 1419.5 55.5845C1416.81 58.2795 1414.06 60.9121 1411.44 63.6695C1404.82 70.6503 1398.25 77.6623 1391.73 84.743C1391.26 85.267 1391.46 86.4086 1391.34 87.2571C1391.73 87.3818 1392.11 87.5066 1392.49 87.6376C1397.18 82.9026 1401.77 78.0616 1406.6 73.4701C1411.53 68.7913 1416.68 64.3245 1421.83 59.8703C1422.3 59.4648 1423.44 59.8141 1424.94 59.8141C1424.08 60.9495 1423.86 61.3051 1423.57 61.5983C1414.86 70.7564 1406.11 79.8832 1397.45 89.0912C1396.8 89.7899 1396.73 91.0251 1396.39 92.0108C1397.32 91.624 1398.47 91.4618 1399.14 90.813C1403.94 86.1778 1408.55 81.343 1413.41 76.764C1417.75 72.6778 1422.29 68.81 1426.84 64.9546C1427.35 64.5179 1428.47 64.7737 1429.31 64.7051C1429.33 65.0045 1429.38 65.304 1429.44 65.5972Z" fill="#4779CE"/>
<path d="M560.581 65.5972C560.192 66.0651 559.828 66.5641 559.407 67.0071C550.69 76.1589 541.979 85.3169 533.237 94.45C532.169 95.5667 531.284 96.5087 533.739 97.6316C538.343 93.0151 542.934 88.2053 547.763 83.6325C552.706 78.9537 557.868 74.5057 562.955 69.9766C563.326 69.6459 564.079 69.1281 564.224 69.2467C567.113 71.4676 568.099 68.5168 569.43 67.2254C576.615 60.2508 583.68 53.1515 590.777 46.0896C591.506 45.3659 592.19 44.6048 592.68 44.087C585.25 36.6757 577.978 29.4142 570.831 22.2774C562.195 30.9177 553.441 39.6764 544.497 48.6286C545.873 50.1695 544.711 51.5045 543.141 53.1203C534.625 61.8915 526.222 70.7689 517.831 79.6586C517.392 80.1265 517.398 81.0124 517.191 81.7111C517.976 81.5551 518.974 81.6425 519.514 81.1933C521.034 79.9269 522.315 78.3985 523.772 77.051C531.717 69.6958 539.668 62.3407 547.675 55.0604C548.222 54.5676 549.289 54.6425 550.118 54.4553C550.294 54.8296 550.47 55.2102 550.646 55.5845C547.952 58.2795 545.201 60.9121 542.582 63.6695C535.963 70.6503 529.387 77.6623 522.874 84.743C522.397 85.267 522.598 86.4086 522.485 87.2571C522.868 87.3818 523.251 87.5066 523.628 87.6376C528.326 82.9026 532.91 78.0616 537.746 73.4701C542.676 68.7913 547.826 64.3245 552.97 59.8703C553.441 59.4648 554.577 59.8141 556.085 59.8141C555.218 60.9495 554.998 61.3051 554.715 61.5983C545.998 70.7564 537.256 79.8832 528.596 89.0912C527.943 89.7899 527.867 91.0251 527.528 92.0108C528.458 91.624 529.607 91.4618 530.279 90.813C535.083 86.1778 539.693 81.343 544.554 76.764C548.887 72.6778 553.434 68.81 557.981 64.9546C558.496 64.5179 559.614 64.7737 560.449 64.7051C560.475 65.0045 560.525 65.304 560.581 65.5972Z" fill="#4779CE"/>
<path d="M1260.74 65.5972C1260.35 66.0651 1259.98 66.5641 1259.56 67.0071C1250.85 76.1589 1242.14 85.3169 1233.39 94.45C1232.33 95.5667 1231.44 96.5087 1233.9 97.6316C1238.5 93.0151 1243.09 88.2053 1247.92 83.6325C1252.86 78.9537 1258.03 74.5057 1263.11 69.9766C1263.48 69.6459 1264.24 69.1281 1264.38 69.2467C1267.27 71.4676 1268.26 68.5168 1269.59 67.2254C1276.77 60.2508 1283.84 53.1515 1290.93 46.0896C1291.66 45.3659 1292.35 44.6048 1292.84 44.087C1285.41 36.6757 1278.13 29.4142 1270.99 22.2774C1262.35 30.9177 1253.6 39.6764 1244.65 48.6286C1246.03 50.1695 1244.87 51.5045 1243.3 53.1203C1234.78 61.8915 1226.38 70.7689 1217.99 79.6586C1217.55 80.1265 1217.56 81.0124 1217.35 81.7111C1218.13 81.5551 1219.13 81.6425 1219.67 81.1933C1221.19 79.9269 1222.47 78.3985 1223.93 77.051C1231.87 69.6958 1239.83 62.3407 1247.83 55.0604C1248.38 54.5676 1249.45 54.6425 1250.28 54.4553C1250.45 54.8296 1250.63 55.2102 1250.8 55.5845C1248.11 58.2795 1245.36 60.9121 1242.74 63.6695C1236.12 70.6503 1229.54 77.6623 1223.03 84.743C1222.55 85.267 1222.76 86.4086 1222.64 87.2571C1223.03 87.3818 1223.41 87.5066 1223.79 87.6376C1228.48 82.9026 1233.07 78.0616 1237.9 73.4701C1242.83 68.7913 1247.98 64.3245 1253.13 59.8703C1253.6 59.4648 1254.73 59.8141 1256.24 59.8141C1255.38 60.9495 1255.16 61.3051 1254.87 61.5983C1246.16 70.7564 1237.41 79.8832 1228.75 89.0912C1228.1 89.7899 1228.02 91.0251 1227.69 92.0108C1228.61 91.624 1229.76 91.4618 1230.44 90.813C1235.24 86.1778 1239.85 81.343 1244.71 76.764C1249.04 72.6778 1253.59 68.81 1258.14 64.9546C1258.65 64.5179 1259.77 64.7737 1260.61 64.7051C1260.63 65.0045 1260.68 65.304 1260.74 65.5972Z" fill="#4779CE"/>
<path d="M1957.86 65.5972C1957.48 66.0651 1957.11 66.5641 1956.69 67.0071C1947.97 76.1589 1939.26 85.3169 1930.52 94.45C1929.45 95.5667 1928.57 96.5087 1931.02 97.6316C1935.63 93.0151 1940.22 88.2053 1945.05 83.6325C1949.99 78.9537 1955.15 74.5057 1960.24 69.9766C1960.61 69.6459 1961.36 69.1281 1961.51 69.2467C1964.4 71.4676 1965.38 68.5168 1966.71 67.2254C1973.9 60.2508 1980.96 53.1515 1988.06 46.0896C1988.79 45.3659 1989.47 44.6048 1989.96 44.087C1982.53 36.6757 1975.26 29.4142 1968.11 22.2774C1959.48 30.9177 1950.72 39.6764 1941.78 48.6286C1943.16 50.1695 1941.99 51.5045 1940.42 53.1203C1931.91 61.8915 1923.51 70.7689 1915.12 79.6586C1914.68 80.1265 1914.68 81.0124 1914.47 81.7111C1915.26 81.5551 1916.26 81.6425 1916.8 81.1933C1918.32 79.9269 1919.6 78.3985 1921.06 77.051C1929 69.6958 1936.95 62.3407 1944.96 55.0604C1945.51 54.5676 1946.57 54.6425 1947.4 54.4553C1947.58 54.8296 1947.75 55.2102 1947.93 55.5845C1945.24 58.2795 1942.48 60.9121 1939.87 63.6695C1933.25 70.6503 1926.67 77.6623 1920.16 84.743C1919.68 85.267 1919.88 86.4086 1919.77 87.2571C1920.15 87.3818 1920.54 87.5066 1920.91 87.6376C1925.61 82.9026 1930.19 78.0616 1935.03 73.4701C1939.96 68.7913 1945.11 64.3245 1950.25 59.8703C1950.72 59.4648 1951.86 59.8141 1953.37 59.8141C1952.5 60.9495 1952.28 61.3051 1952 61.5983C1943.28 70.7564 1934.54 79.8832 1925.88 89.0912C1925.23 89.7899 1925.15 91.0251 1924.81 92.0108C1925.74 91.624 1926.89 91.4618 1927.56 90.813C1932.37 86.1778 1936.98 81.343 1941.84 76.764C1946.17 72.6778 1950.72 68.81 1955.26 64.9546C1955.78 64.5179 1956.9 64.7737 1957.73 64.7051C1957.76 65.0045 1957.81 65.304 1957.86 65.5972Z" fill="#4779CE"/>
<path d="M208.96 65.5972C208.571 66.0651 208.207 66.5641 207.786 67.0071C199.069 76.1589 190.358 85.3169 181.616 94.45C180.548 95.5667 179.662 96.5087 182.118 97.6316C186.722 93.0151 191.312 88.2053 196.142 83.6325C201.085 78.9537 206.247 74.5057 211.334 69.9766C211.705 69.6459 212.458 69.1281 212.603 69.2467C215.492 71.4676 216.478 68.5168 217.809 67.2254C224.994 60.2508 232.059 53.1515 239.156 46.0896C239.885 45.3659 240.569 44.6048 241.059 44.087C233.629 36.6757 226.357 29.4142 219.21 22.2774C210.574 30.9177 201.819 39.6764 192.876 48.6286C194.252 50.1695 193.09 51.5045 191.52 53.1203C183.004 61.8915 174.6 70.7689 166.21 79.6586C165.77 80.1265 165.777 81.0124 165.569 81.7111C166.354 81.5551 167.353 81.6425 167.893 81.1933C169.413 79.9269 170.694 78.3985 172.151 77.051C180.096 69.6958 188.047 62.3407 196.054 55.0604C196.6 54.5676 197.668 54.6425 198.497 54.4553C198.673 54.8296 198.849 55.2102 199.025 55.5845C196.33 58.2795 193.58 60.9121 190.961 63.6695C184.341 70.6503 177.766 77.6623 171.253 84.743C170.776 85.267 170.977 86.4086 170.864 87.2571C171.247 87.3818 171.63 87.5066 172.007 87.6376C176.704 82.9026 181.289 78.0616 186.125 73.4701C191.055 68.7913 196.205 64.3245 201.348 59.8703C201.819 59.4648 202.956 59.8141 204.463 59.8141C203.597 60.9495 203.377 61.3051 203.094 61.5983C194.377 70.7564 185.635 79.8832 176.974 89.0912C176.321 89.7899 176.246 91.0251 175.907 92.0108C176.836 91.624 177.986 91.4618 178.658 90.813C183.462 86.1778 188.072 81.343 192.933 76.764C197.266 72.6778 201.813 68.81 206.36 64.9546C206.875 64.5179 207.993 64.7737 208.828 64.7051C208.853 65.0045 208.904 65.304 208.96 65.5972Z" fill="#4779CE"/>
<path d="M909.117 65.5972C908.728 66.0651 908.363 66.5641 907.943 67.0071C899.225 76.1589 890.515 85.3169 881.773 94.45C880.705 95.5667 879.819 96.5087 882.275 97.6316C886.878 93.0151 891.469 88.2053 896.299 83.6325C901.241 78.9537 906.404 74.5057 911.491 69.9766C911.861 69.6459 912.615 69.1281 912.76 69.2467C915.648 71.4676 916.634 68.5168 917.966 67.2254C925.151 60.2508 932.216 53.1515 939.313 46.0896C940.041 45.3659 940.726 44.6048 941.216 44.087C933.786 36.6757 926.513 29.4142 919.366 22.2774C910.731 30.9177 901.976 39.6764 893.033 48.6286C894.408 50.1695 893.247 51.5045 891.677 53.1203C883.16 61.8915 874.757 70.7689 866.367 79.6586C865.927 80.1265 865.934 81.0124 865.726 81.7111C866.511 81.5551 867.51 81.6425 868.05 81.1933C869.57 79.9269 870.851 78.3985 872.308 77.051C880.253 69.6958 888.204 62.3407 896.211 55.0604C896.757 54.5676 897.825 54.6425 898.654 54.4553C898.83 54.8296 899.006 55.2102 899.182 55.5845C896.487 58.2795 893.736 60.9121 891.118 63.6695C884.498 70.6503 877.923 77.6623 871.41 84.743C870.933 85.267 871.134 86.4086 871.021 87.2571C871.404 87.3818 871.787 87.5066 872.164 87.6376C876.861 82.9026 881.446 78.0616 886.282 73.4701C891.212 68.7913 896.362 64.3245 901.505 59.8703C901.976 59.4648 903.113 59.8141 904.62 59.8141C903.754 60.9495 903.534 61.3051 903.251 61.5983C894.534 70.7564 885.792 79.8832 877.131 89.0912C876.478 89.7899 876.403 91.0251 876.064 92.0108C876.993 91.624 878.142 91.4618 878.814 90.813C883.619 86.1778 888.229 81.343 893.09 76.764C897.423 72.6778 901.97 68.81 906.517 64.9546C907.032 64.5179 908.15 64.7737 908.985 64.7051C909.01 65.0045 909.06 65.304 909.117 65.5972Z" fill="#4779CE"/>
<path d="M1606.24 65.5972C1605.85 66.0651 1605.49 66.5641 1605.07 67.0071C1596.35 76.1589 1587.64 85.3169 1578.9 94.45C1577.83 95.5667 1576.95 96.5087 1579.4 97.6316C1584.01 93.0151 1588.6 88.2053 1593.43 83.6325C1598.37 78.9537 1603.53 74.5057 1608.62 69.9766C1608.99 69.6459 1609.74 69.1281 1609.89 69.2467C1612.78 71.4676 1613.76 68.5168 1615.09 67.2254C1622.28 60.2508 1629.34 53.1515 1636.44 46.0896C1637.17 45.3659 1637.85 44.6048 1638.34 44.087C1630.91 36.6757 1623.64 29.4142 1616.49 22.2774C1607.86 30.9177 1599.1 39.6764 1590.16 48.6286C1591.54 50.1695 1590.37 51.5045 1588.8 53.1203C1580.29 61.8915 1571.88 70.7689 1563.49 79.6586C1563.05 80.1265 1563.06 81.0124 1562.85 81.7111C1563.64 81.5551 1564.64 81.6425 1565.18 81.1933C1566.7 79.9269 1567.98 78.3985 1569.43 77.051C1577.38 69.6958 1585.33 62.3407 1593.34 55.0604C1593.88 54.5676 1594.95 54.6425 1595.78 54.4553C1595.96 54.8296 1596.13 55.2102 1596.31 55.5845C1593.61 58.2795 1590.86 60.9121 1588.24 63.6695C1581.62 70.6503 1575.05 77.6623 1568.54 84.743C1568.06 85.267 1568.26 86.4086 1568.15 87.2571C1568.53 87.3818 1568.91 87.5066 1569.29 87.6376C1573.99 82.9026 1578.57 78.0616 1583.41 73.4701C1588.34 68.7913 1593.49 64.3245 1598.63 59.8703C1599.1 59.4648 1600.24 59.8141 1601.75 59.8141C1600.88 60.9495 1600.66 61.3051 1600.38 61.5983C1591.66 70.7564 1582.92 79.8832 1574.26 89.0912C1573.6 89.7899 1573.53 91.0251 1573.19 92.0108C1574.12 91.624 1575.27 91.4618 1575.94 90.813C1580.75 86.1778 1585.36 81.343 1590.22 76.764C1594.55 72.6778 1599.1 68.81 1603.64 64.9546C1604.16 64.5179 1605.28 64.7737 1606.11 64.7051C1606.14 65.0045 1606.19 65.304 1606.24 65.5972Z" fill="#4779CE"/>
<path d="M383.777 65.5972C383.388 66.0651 383.024 66.5641 382.603 67.0071C373.886 76.1589 365.175 85.3169 356.433 94.45C355.365 95.5667 354.48 96.5087 356.935 97.6316C361.539 93.0151 366.13 88.2053 370.959 83.6325C375.902 78.9537 381.064 74.5057 386.151 69.9766C386.522 69.6459 387.276 69.1281 387.42 69.2467C390.309 71.4676 391.295 68.5168 392.626 67.2254C399.811 60.2508 406.876 53.1515 413.973 46.0896C414.702 45.3659 415.386 44.6048 415.876 44.087C408.446 36.6757 401.174 29.4142 394.027 22.2774C385.391 30.9177 376.637 39.6764 367.694 48.6286C369.069 50.1695 367.907 51.5045 366.337 53.1203C357.821 61.8915 349.418 70.7689 341.027 79.6586C340.588 80.1265 340.594 81.0124 340.387 81.7111C341.172 81.5551 342.17 81.6425 342.71 81.1933C344.23 79.9269 345.511 78.3985 346.968 77.051C354.913 69.6958 362.864 62.3407 370.871 55.0604C371.418 54.5676 372.485 54.6425 373.314 54.4553C373.49 54.8296 373.666 55.2102 373.842 55.5845C371.148 58.2795 368.397 60.9121 365.778 63.6695C359.159 70.6503 352.583 77.6623 346.07 84.743C345.593 85.267 345.794 86.4086 345.681 87.2571C346.064 87.3818 346.447 87.5066 346.824 87.6376C351.522 82.9026 356.106 78.0616 360.942 73.4701C365.872 68.7913 371.022 64.3245 376.166 59.8703C376.637 59.4648 377.773 59.8141 379.281 59.8141C378.414 60.9495 378.194 61.3051 377.912 61.5983C369.195 70.7564 360.452 79.8832 351.792 89.0912C351.139 89.7899 351.063 91.0251 350.724 92.0108C351.654 91.624 352.803 91.4618 353.475 90.813C358.279 86.1778 362.889 81.343 367.75 76.764C372.083 72.6778 376.63 68.81 381.177 64.9546C381.692 64.5179 382.81 64.7737 383.646 64.7051C383.671 65.0045 383.721 65.304 383.777 65.5972Z" fill="#4779CE"/>
<path d="M1083.93 65.5972C1083.55 66.0651 1083.18 66.5641 1082.76 67.0071C1074.04 76.1589 1065.33 85.3169 1056.59 94.45C1055.52 95.5667 1054.64 96.5087 1057.09 97.6316C1061.7 93.0151 1066.29 88.2053 1071.12 83.6325C1076.06 78.9537 1081.22 74.5057 1086.31 69.9766C1086.68 69.6459 1087.43 69.1281 1087.58 69.2467C1090.47 71.4676 1091.45 68.5168 1092.78 67.2254C1099.97 60.2508 1107.03 53.1515 1114.13 46.0896C1114.86 45.3659 1115.54 44.6048 1116.03 44.087C1108.6 36.6757 1101.33 29.4142 1094.18 22.2774C1085.55 30.9177 1076.79 39.6764 1067.85 48.6286C1069.23 50.1695 1068.06 51.5045 1066.49 53.1203C1057.98 61.8915 1049.57 70.7689 1041.18 79.6586C1040.74 80.1265 1040.75 81.0124 1040.54 81.7111C1041.33 81.5551 1042.33 81.6425 1042.87 81.1933C1044.39 79.9269 1045.67 78.3985 1047.13 77.051C1055.07 69.6958 1063.02 62.3407 1071.03 55.0604C1071.57 54.5676 1072.64 54.6425 1073.47 54.4553C1073.65 54.8296 1073.82 55.2102 1074 55.5845C1071.3 58.2795 1068.55 60.9121 1065.94 63.6695C1059.32 70.6503 1052.74 77.6623 1046.23 84.743C1045.75 85.267 1045.95 86.4086 1045.84 87.2571C1046.22 87.3818 1046.6 87.5066 1046.98 87.6376C1051.68 82.9026 1056.26 78.0616 1061.1 73.4701C1066.03 68.7913 1071.18 64.3245 1076.32 59.8703C1076.79 59.4648 1077.93 59.8141 1079.44 59.8141C1078.57 60.9495 1078.35 61.3051 1078.07 61.5983C1069.35 70.7564 1060.61 79.8832 1051.95 89.0912C1051.3 89.7899 1051.22 91.0251 1050.88 92.0108C1051.81 91.624 1052.96 91.4618 1053.63 90.813C1058.44 86.1778 1063.05 81.343 1067.91 76.764C1072.24 72.6778 1076.79 68.81 1081.33 64.9546C1081.85 64.5179 1082.97 64.7737 1083.8 64.7051C1083.83 65.0045 1083.88 65.304 1083.93 65.5972Z" fill="#4779CE"/>
<path d="M1781.06 65.5972C1780.67 66.0651 1780.31 66.5641 1779.89 67.0071C1771.17 76.1589 1762.46 85.3169 1753.72 94.45C1752.65 95.5667 1751.76 96.5087 1754.22 97.6316C1758.82 93.0151 1763.41 88.2053 1768.24 83.6325C1773.19 78.9537 1778.35 74.5057 1783.44 69.9766C1783.81 69.6459 1784.56 69.1281 1784.7 69.2467C1787.59 71.4676 1788.58 68.5168 1789.91 67.2254C1797.09 60.2508 1804.16 53.1515 1811.26 46.0896C1811.99 45.3659 1812.67 44.6048 1813.16 44.087C1805.73 36.6757 1798.46 29.4142 1791.31 22.2774C1782.68 30.9177 1773.92 39.6764 1764.98 48.6286C1766.35 50.1695 1765.19 51.5045 1763.62 53.1203C1755.1 61.8915 1746.7 70.7689 1738.31 79.6586C1737.87 80.1265 1737.88 81.0124 1737.67 81.7111C1738.46 81.5551 1739.45 81.6425 1739.99 81.1933C1741.51 79.9269 1742.8 78.3985 1744.25 77.051C1752.2 69.6958 1760.15 62.3407 1768.16 55.0604C1768.7 54.5676 1769.77 54.6425 1770.6 54.4553C1770.77 54.8296 1770.95 55.2102 1771.13 55.5845C1768.43 58.2795 1765.68 60.9121 1763.06 63.6695C1756.44 70.6503 1749.87 77.6623 1743.35 84.743C1742.88 85.267 1743.08 86.4086 1742.96 87.2571C1743.35 87.3818 1743.73 87.5066 1744.11 87.6376C1748.81 82.9026 1753.39 78.0616 1758.23 73.4701C1763.16 68.7913 1768.31 64.3245 1773.45 59.8703C1773.92 59.4648 1775.06 59.8141 1776.56 59.8141C1775.7 60.9495 1775.48 61.3051 1775.2 61.5983C1766.48 70.7564 1757.74 79.8832 1749.08 89.0912C1748.42 89.7899 1748.35 91.0251 1748.01 92.0108C1748.94 91.624 1750.09 91.4618 1750.76 90.813C1755.56 86.1778 1760.17 81.343 1765.03 76.764C1769.37 72.6778 1773.91 68.81 1778.46 64.9546C1778.98 64.5179 1780.09 64.7737 1780.93 64.7051C1780.95 65.0045 1781 65.304 1781.06 65.5972Z" fill="#4779CE"/>
<path d="M123.231 154.564C122.9 153.642 122.808 152.479 122.2 151.829C118.598 147.957 114.867 144.211 111.191 140.415C109.706 138.88 108.012 137.579 108.509 134.85C108.693 133.846 107.662 132.602 107.951 132.261C110.405 129.772 112.86 127.283 115.99 124.112C121.231 123.936 124.686 129.26 128.834 133.486C130.792 135.482 132.756 137.478 134.677 139.512C135.898 140.813 136.868 140.965 137.757 138.615C133.284 134.105 128.638 129.532 124.152 124.801C123.281 123.879 123.047 122.325 122.464 121.093C121.82 119.729 121.396 118.093 120.39 117.101C118.316 115.061 117.254 112.895 116.855 109.85C115.45 99.15 106.116 91.1597 96.2107 91.7093C84.9127 92.3409 76.5604 100.95 76.186 112.345C75.8301 123.253 83.4582 132.501 94.2162 133.789C96.7692 134.092 98.4445 135.204 100.273 136.827C101.685 138.078 103.735 138.552 105.477 139.423C106.435 139.903 107.521 140.301 108.251 141.047C112.823 145.696 117.309 150.433 121.82 155.139C122.305 154.949 122.771 154.753 123.231 154.564Z" fill="#4779CE"/>
<path d="M823.388 154.564C823.057 153.642 822.965 152.479 822.357 151.829C818.755 147.957 815.024 144.211 811.348 140.415C809.863 138.88 808.169 137.579 808.666 134.85C808.85 133.846 807.819 132.602 808.107 132.261C810.562 129.772 813.017 127.283 816.147 124.112C821.388 123.936 824.843 129.26 828.991 133.486C830.949 135.482 832.913 137.478 834.834 139.512C836.055 140.813 837.025 140.965 837.915 138.615C833.441 134.105 828.795 129.532 824.309 124.801C823.438 123.879 823.204 122.325 822.621 121.093C821.977 119.729 821.554 118.093 820.547 117.101C818.473 115.061 817.411 112.895 817.012 109.85C815.607 99.15 806.273 91.1597 796.368 91.7093C785.069 92.3409 776.717 100.95 776.343 112.345C775.987 123.253 783.615 132.501 794.373 133.789C796.926 134.092 798.601 135.204 800.43 136.827C801.842 138.078 803.891 138.552 805.634 139.423C806.592 139.903 807.678 140.301 808.408 141.047C812.98 145.696 817.466 150.433 821.977 155.139C822.462 154.949 822.928 154.753 823.388 154.564Z" fill="#4779CE"/>
<path d="M1520.52 154.564C1520.18 153.642 1520.09 152.479 1519.48 151.829C1515.88 147.957 1512.15 144.211 1508.47 140.415C1506.99 138.88 1505.3 137.579 1505.79 134.85C1505.98 133.846 1504.95 132.602 1505.23 132.261C1507.69 129.772 1510.14 127.283 1513.27 124.112C1518.51 123.936 1521.97 129.26 1526.12 133.486C1528.08 135.482 1530.04 137.478 1531.96 139.512C1533.18 140.813 1534.15 140.965 1535.04 138.615C1530.57 134.105 1525.92 129.532 1521.44 124.801C1520.56 123.879 1520.33 122.325 1519.75 121.093C1519.1 119.729 1518.68 118.093 1517.67 117.101C1515.6 115.061 1514.54 112.895 1514.14 109.85C1512.73 99.15 1503.4 91.1597 1493.49 91.7093C1482.2 92.3409 1473.84 100.95 1473.47 112.345C1473.11 123.253 1480.74 132.501 1491.5 133.789C1494.05 134.092 1495.73 135.204 1497.56 136.827C1498.97 138.078 1501.02 138.552 1502.76 139.423C1503.72 139.903 1504.8 140.301 1505.54 141.047C1510.11 145.696 1514.59 150.433 1519.1 155.139C1519.59 154.949 1520.05 154.753 1520.52 154.564Z" fill="#4779CE"/>
<path d="M651.657 154.564C651.325 153.642 651.233 152.479 650.626 151.829C647.023 147.957 643.292 144.211 639.616 140.415C638.131 138.88 636.437 137.579 636.934 134.85C637.118 133.846 636.087 132.602 636.376 132.261C638.831 129.772 641.285 127.283 644.415 124.112C649.656 123.936 653.111 129.26 657.26 133.486C659.217 135.482 661.181 137.478 663.102 139.512C664.323 140.813 665.293 140.965 666.183 138.615C661.709 134.105 657.063 129.532 652.577 124.801C651.706 123.879 651.473 122.325 650.89 121.093C650.245 119.729 649.822 118.093 648.815 117.101C646.741 115.061 645.679 112.895 645.281 109.85C643.875 99.15 634.541 91.1597 624.636 91.7093C613.338 92.3409 604.986 100.95 604.611 112.345C604.255 123.253 611.884 132.501 622.642 133.789C625.194 134.092 626.87 135.204 628.699 136.827C630.11 138.078 632.16 138.552 633.903 139.423C634.86 139.903 635.946 140.301 636.677 141.047C641.249 145.696 645.735 150.433 650.245 155.139C650.73 154.949 651.197 154.753 651.657 154.564Z" fill="#4779CE"/>
<path d="M1351.81 154.564C1351.48 153.642 1351.39 152.479 1350.78 151.829C1347.18 147.957 1343.45 144.211 1339.77 140.415C1338.29 138.88 1336.59 137.579 1337.09 134.85C1337.28 133.846 1336.24 132.602 1336.53 132.261C1338.99 129.772 1341.44 127.283 1344.57 124.112C1349.81 123.936 1353.27 129.26 1357.42 133.486C1359.37 135.482 1361.34 137.478 1363.26 139.512C1364.48 140.813 1365.45 140.965 1366.34 138.615C1361.87 134.105 1357.22 129.532 1352.73 124.801C1351.86 123.879 1351.63 122.325 1351.05 121.093C1350.4 119.729 1349.98 118.093 1348.97 117.101C1346.9 115.061 1345.84 112.895 1345.44 109.85C1344.03 99.15 1334.7 91.1597 1324.79 91.7093C1313.5 92.3409 1305.14 100.95 1304.77 112.345C1304.41 123.253 1312.04 132.501 1322.8 133.789C1325.35 134.092 1327.03 135.204 1328.86 136.827C1330.27 138.078 1332.32 138.552 1334.06 139.423C1335.02 139.903 1336.1 140.301 1336.83 141.047C1341.41 145.696 1345.89 150.433 1350.4 155.139C1350.89 154.949 1351.35 154.753 1351.81 154.564Z" fill="#4779CE"/>
<path d="M301.554 154.564C301.211 153.642 301.116 152.479 300.489 151.829C296.771 147.957 292.919 144.211 289.124 140.415C287.591 138.88 285.843 137.579 286.356 134.85C286.546 133.846 285.482 132.602 285.78 132.261C288.314 129.772 290.848 127.283 294.078 124.112C299.488 123.936 303.055 129.26 307.337 133.486C309.358 135.482 311.385 137.478 313.368 139.512C314.629 140.813 315.63 140.965 316.548 138.615C311.93 134.105 307.135 129.532 302.504 124.801C301.604 123.879 301.363 122.325 300.762 121.093C300.097 119.729 299.659 118.093 298.62 117.101C296.479 115.061 295.383 112.895 294.972 109.85C293.521 99.15 283.886 91.1597 273.661 91.7093C261.998 92.3409 253.377 100.95 252.99 112.345C252.623 123.253 260.497 132.501 271.602 133.789C274.237 134.092 275.967 135.204 277.855 136.827C279.312 138.078 281.428 138.552 283.227 139.423C284.215 139.903 285.336 140.301 286.09 141.047C290.81 145.696 295.44 150.433 300.097 155.139C300.597 154.949 301.078 154.753 301.554 154.564Z" fill="#4779CE"/>
<path d="M1001.71 154.564C1001.37 153.642 1001.27 152.479 1000.65 151.829C996.927 147.957 993.076 144.211 989.281 140.415C987.748 138.88 986 137.579 986.513 134.85C986.703 133.846 985.639 132.602 985.937 132.261C988.47 129.772 991.004 127.283 994.235 124.112C999.645 123.936 1003.21 129.26 1007.49 133.486C1009.51 135.482 1011.54 137.478 1013.52 139.512C1014.79 140.813 1015.79 140.965 1016.7 138.615C1012.09 134.105 1007.29 129.532 1002.66 124.801C1001.76 123.879 1001.52 122.325 1000.92 121.093C1000.25 119.729 999.816 118.093 998.777 117.101C996.636 115.061 995.54 112.895 995.128 109.85C993.678 99.15 984.042 91.1597 973.818 91.7093C962.155 92.3409 953.534 100.95 953.147 112.345C952.78 123.253 960.654 132.501 971.759 133.789C974.394 134.092 976.124 135.204 978.012 136.827C979.469 138.078 981.584 138.552 983.384 139.423C984.372 139.903 985.493 140.301 986.247 141.047C990.966 145.696 995.597 150.433 1000.25 155.139C1000.75 154.949 1001.24 154.753 1001.71 154.564Z" fill="#4779CE"/>
<path d="M1698.84 154.564C1698.5 153.642 1698.4 152.479 1697.77 151.829C1694.05 147.957 1690.2 144.211 1686.41 140.415C1684.88 138.88 1683.13 137.579 1683.64 134.85C1683.83 133.846 1682.77 132.602 1683.06 132.261C1685.6 129.772 1688.13 127.283 1691.36 124.112C1696.77 123.936 1700.34 129.26 1704.62 133.486C1706.64 135.482 1708.67 137.478 1710.65 139.512C1711.91 140.813 1712.91 140.965 1713.83 138.615C1709.21 134.105 1704.42 129.532 1699.79 124.801C1698.89 123.879 1698.65 122.325 1698.05 121.093C1697.38 119.729 1696.94 118.093 1695.9 117.101C1693.76 115.061 1692.67 112.895 1692.26 109.85C1690.8 99.15 1681.17 91.1597 1670.94 91.7093C1659.28 92.3409 1650.66 100.95 1650.27 112.345C1649.91 123.253 1657.78 132.501 1668.89 133.789C1671.52 134.092 1673.25 135.204 1675.14 136.827C1676.6 138.078 1678.71 138.552 1680.51 139.423C1681.5 139.903 1682.62 140.301 1683.37 141.047C1688.09 145.696 1692.72 150.433 1697.38 155.139C1697.88 154.949 1698.36 154.753 1698.84 154.564Z" fill="#4779CE"/>
<path d="M476.371 154.564C476.029 153.642 475.934 152.479 475.307 151.829C471.588 147.957 467.737 144.211 463.942 140.415C462.409 138.88 460.661 137.579 461.174 134.85C461.364 133.846 460.299 132.602 460.597 132.261C463.131 129.772 465.665 127.283 468.896 124.112C474.306 123.936 477.872 129.26 482.155 133.486C484.175 135.482 486.203 137.478 488.185 139.512C489.446 140.813 490.447 140.965 491.365 138.615C486.747 134.105 481.952 129.532 477.321 124.801C476.422 123.879 476.181 122.325 475.579 121.093C474.914 119.729 474.477 118.093 473.438 117.101C471.297 115.061 470.201 112.895 469.789 109.85C468.338 99.15 458.703 91.1597 448.479 91.7093C436.816 92.3409 428.195 100.95 427.808 112.345C427.441 123.253 435.315 132.501 446.42 133.789C449.055 134.092 450.785 135.204 452.672 136.827C454.129 138.078 456.245 138.552 458.044 139.423C459.033 139.903 460.154 140.301 460.908 141.047C465.627 145.696 470.258 150.433 474.914 155.139C475.414 154.949 475.896 154.753 476.371 154.564Z" fill="#4779CE"/>
<path d="M1176.53 154.564C1176.19 153.642 1176.09 152.479 1175.46 151.829C1171.75 147.957 1167.89 144.211 1164.1 140.415C1162.57 138.88 1160.82 137.579 1161.33 134.85C1161.52 133.846 1160.46 132.602 1160.75 132.261C1163.29 129.772 1165.82 127.283 1169.05 124.112C1174.46 123.936 1178.03 129.26 1182.31 133.486C1184.33 135.482 1186.36 137.478 1188.34 139.512C1189.6 140.813 1190.6 140.965 1191.52 138.615C1186.9 134.105 1182.11 129.532 1177.48 124.801C1176.58 123.879 1176.34 122.325 1175.74 121.093C1175.07 119.729 1174.63 118.093 1173.59 117.101C1171.45 115.061 1170.36 112.895 1169.95 109.85C1168.5 99.15 1158.86 91.1597 1148.64 91.7093C1136.97 92.3409 1128.35 100.95 1127.96 112.345C1127.6 123.253 1135.47 132.501 1146.58 133.789C1149.21 134.092 1150.94 135.204 1152.83 136.827C1154.29 138.078 1156.4 138.552 1158.2 139.423C1159.19 139.903 1160.31 140.301 1161.06 141.047C1165.78 145.696 1170.41 150.433 1175.07 155.139C1175.57 154.949 1176.05 154.753 1176.53 154.564Z" fill="#4779CE"/>
<path d="M1873.65 154.564C1873.31 153.642 1873.22 152.479 1872.59 151.829C1868.87 147.957 1865.02 144.211 1861.23 140.415C1859.69 138.88 1857.94 137.579 1858.46 134.85C1858.65 133.846 1857.58 132.602 1857.88 132.261C1860.41 129.772 1862.95 127.283 1866.18 124.112C1871.59 123.936 1875.16 129.26 1879.44 133.486C1881.46 135.482 1883.49 137.478 1885.47 139.512C1886.73 140.813 1887.73 140.965 1888.65 138.615C1884.03 134.105 1879.24 129.532 1874.6 124.801C1873.71 123.879 1873.46 122.325 1872.86 121.093C1872.2 119.729 1871.76 118.093 1870.72 117.101C1868.58 115.061 1867.48 112.895 1867.07 109.85C1865.62 99.15 1855.99 91.1597 1845.76 91.7093C1834.1 92.3409 1825.48 100.95 1825.09 112.345C1824.72 123.253 1832.6 132.501 1843.7 133.789C1846.34 134.092 1848.07 135.204 1849.96 136.827C1851.41 138.078 1853.53 138.552 1855.33 139.423C1856.32 139.903 1857.44 140.301 1858.19 141.047C1862.91 145.696 1867.54 150.433 1872.2 155.139C1872.7 154.949 1873.18 154.753 1873.65 154.564Z" fill="#4779CE"/>
<path d="M26.5103 -4.72202C25.412 -5.6893 24.4958 -6.49435 23.385 -7.46786C22.4186 -6.56923 21.5839 -5.83283 20.7932 -5.05276C0.673742 14.9356 -19.4457 34.924 -39.5275 54.9436C-41.0149 56.4288 -42.1947 57.2713 -44.6233 56.5849C-49.3802 55.2432 -53.9049 57.5521 -55.9256 61.6959C-57.8648 65.6711 -56.9234 70.4576 -53.6287 73.3844C-50.4282 76.2238 -45.2258 76.6357 -41.6612 74.3204C-37.7829 71.8117 -36.0571 67.0565 -37.9084 62.5383C-38.8309 60.2917 -37.7641 59.3557 -36.4902 58.0888C-16.2954 38.0318 3.88683 17.956 24.0691 -2.11349C24.7907 -2.82491 25.456 -3.58624 26.5103 -4.72202ZM-46.9327 59.3931C-43.387 59.4742 -40.4124 62.4822 -40.4061 66.0018C-40.3998 69.6775 -43.5188 72.7353 -47.19 72.6605C-50.7734 72.5856 -53.9676 69.2344 -53.7919 65.7397C-53.6162 62.3074 -50.3843 59.3182 -46.9327 59.3931Z" fill="#4779CE"/>
<path d="M726.667 -4.72202C725.569 -5.6893 724.653 -6.49435 723.542 -7.46786C722.575 -6.56923 721.741 -5.83283 720.95 -5.05276C700.831 14.9356 680.711 34.924 660.63 54.9436C659.142 56.4288 657.962 57.2713 655.534 56.5849C650.777 55.2432 646.252 57.5521 644.232 61.6959C642.292 65.6711 643.234 70.4576 646.528 73.3844C649.729 76.2238 654.931 76.6357 658.496 74.3204C662.374 71.8117 664.1 67.0565 662.249 62.5383C661.326 60.2917 662.393 59.3557 663.667 58.0888C683.862 38.0318 704.044 17.956 724.226 -2.11349C724.947 -2.82491 725.613 -3.58624 726.667 -4.72202ZM653.224 59.3931C656.77 59.4742 659.745 62.4822 659.751 66.0018C659.757 69.6775 656.638 72.7353 652.967 72.6605C649.384 72.5856 646.19 69.2344 646.365 65.7397C646.541 62.3074 649.773 59.3182 653.224 59.3931Z" fill="#4779CE"/>
<path d="M1423.79 -4.72202C1422.7 -5.6893 1421.78 -6.49435 1420.67 -7.46786C1419.7 -6.56923 1418.87 -5.83283 1418.08 -5.05276C1397.96 14.9356 1377.84 34.924 1357.76 54.9436C1356.27 56.4288 1355.09 57.2713 1352.66 56.5849C1347.9 55.2432 1343.38 57.5521 1341.36 61.6959C1339.42 65.6711 1340.36 70.4576 1343.66 73.3844C1346.86 76.2238 1352.06 76.6357 1355.62 74.3204C1359.5 71.8117 1361.23 67.0565 1359.38 62.5383C1358.45 60.2917 1359.52 59.3557 1360.79 58.0888C1380.99 38.0318 1401.17 17.956 1421.35 -2.11349C1422.07 -2.82491 1422.74 -3.58624 1423.79 -4.72202ZM1350.35 59.3931C1353.9 59.4742 1356.87 62.4822 1356.88 66.0018C1356.88 69.6775 1353.77 72.7353 1350.09 72.6605C1346.51 72.5856 1343.32 69.2344 1343.49 65.7397C1343.67 62.3074 1346.9 59.3182 1350.35 59.3931Z" fill="#4779CE"/>
<path d="M554.936 -4.72202C553.838 -5.6893 552.921 -6.49435 551.811 -7.46786C550.844 -6.56923 550.009 -5.83283 549.219 -5.05276C529.099 14.9356 508.98 34.924 488.898 54.9436C487.411 56.4288 486.231 57.2713 483.802 56.5849C479.046 55.2432 474.521 57.5521 472.5 61.6959C470.561 65.6711 471.502 70.4576 474.797 73.3844C477.998 76.2238 483.2 76.6357 486.765 74.3204C490.643 71.8117 492.369 67.0565 490.517 62.5383C489.595 60.2917 490.662 59.3557 491.936 58.0888C512.13 38.0318 532.312 17.956 552.495 -2.11349C553.216 -2.82491 553.881 -3.58624 554.936 -4.72202ZM481.493 59.3931C485.039 59.4742 488.013 62.4822 488.02 66.0018C488.026 69.6775 484.907 72.7353 481.236 72.6605C477.652 72.5856 474.458 69.2344 474.634 65.7397C474.81 62.3074 478.041 59.3182 481.493 59.3931Z" fill="#4779CE"/>
<path d="M1255.09 -4.72202C1253.99 -5.6893 1253.08 -6.49435 1251.97 -7.46786C1251 -6.56923 1250.17 -5.83283 1249.38 -5.05276C1229.26 14.9356 1209.14 34.924 1189.06 54.9436C1187.57 56.4288 1186.39 57.2713 1183.96 56.5849C1179.2 55.2432 1174.68 57.5521 1172.66 61.6959C1170.72 65.6711 1171.66 70.4576 1174.95 73.3844C1178.15 76.2238 1183.36 76.6357 1186.92 74.3204C1190.8 71.8117 1192.53 67.0565 1190.67 62.5383C1189.75 60.2917 1190.82 59.3557 1192.09 58.0888C1212.29 38.0318 1232.47 17.956 1252.65 -2.11349C1253.37 -2.82491 1254.04 -3.58624 1255.09 -4.72202ZM1181.65 59.3931C1185.2 59.4742 1188.17 62.4822 1188.18 66.0018C1188.18 69.6775 1185.06 72.7353 1181.39 72.6605C1177.81 72.5856 1174.62 69.2344 1174.79 65.7397C1174.97 62.3074 1178.2 59.3182 1181.65 59.3931Z" fill="#4779CE"/>
<path d="M1952.22 -4.72202C1951.12 -5.6893 1950.2 -6.49435 1949.09 -7.46786C1948.13 -6.56923 1947.29 -5.83283 1946.5 -5.05276C1926.38 14.9356 1906.26 34.924 1886.18 54.9436C1884.69 56.4288 1883.51 57.2713 1881.09 56.5849C1876.33 55.2432 1871.8 57.5521 1869.78 61.6959C1867.84 65.6711 1868.79 70.4576 1872.08 73.3844C1875.28 76.2238 1880.48 76.6357 1884.05 74.3204C1887.93 71.8117 1889.65 67.0565 1887.8 62.5383C1886.88 60.2917 1887.95 59.3557 1889.22 58.0888C1909.41 38.0318 1929.6 17.956 1949.78 -2.11349C1950.5 -2.82491 1951.16 -3.58624 1952.22 -4.72202ZM1878.78 59.3931C1882.32 59.4742 1885.3 62.4822 1885.3 66.0018C1885.31 69.6775 1882.19 72.7353 1878.52 72.6605C1874.94 72.5856 1871.74 69.2344 1871.92 65.7397C1872.09 62.3074 1875.33 59.3182 1878.78 59.3931Z" fill="#4779CE"/>
<path d="M28.6771 119.366C44.2131 103.918 59.3605 88.8645 74.7899 73.5233C73.7805 72.5535 72.9028 71.7089 72.2194 71.0457C55.7492 87.5444 39.5172 103.812 23.0846 120.273C28.8401 125.341 35.0031 130.778 41.1786 136.208C67.7304 159.577 94.2696 182.945 120.846 206.276C122.376 207.621 123.122 208.691 122.42 210.987C121.022 215.536 123.172 219.997 127.172 222.124C131.179 224.258 136.357 223.394 139.229 220.116C142.251 216.668 142.577 211.707 140.031 207.94C137.48 204.168 132.884 202.522 128.451 204.33C126.27 205.219 125.179 204.299 123.831 203.11C97.1348 179.604 70.4263 156.104 43.7241 132.605C38.8777 128.35 34.0376 124.089 28.6771 119.366ZM131.793 206.783C135.21 206.72 138.407 209.786 138.533 213.234C138.665 216.906 135.649 220.053 131.956 220.097C128.339 220.141 125.354 217.313 125.229 213.722C125.097 210.124 128.201 206.846 131.793 206.783Z" fill="#4779CE"/>
<path d="M131.799 208.847C129.304 208.885 127.26 210.975 127.266 213.471C127.273 216.118 129.461 218.189 132.119 218.063C134.595 217.945 136.608 215.78 136.526 213.315C136.445 210.893 134.238 208.81 131.799 208.847Z" fill="#4779CE"/>
<path d="M728.834 119.366C744.37 103.918 759.517 88.8645 774.947 73.5233C773.937 72.5535 773.06 71.7089 772.376 71.0457C755.906 87.5444 739.674 103.812 723.241 120.273C728.997 125.341 735.16 130.778 741.335 136.208C767.887 159.577 794.426 182.945 821.003 206.276C822.533 207.621 823.279 208.691 822.577 210.987C821.179 215.536 823.329 219.997 827.329 222.124C831.336 224.258 836.514 223.394 839.386 220.116C842.408 216.668 842.734 211.707 840.188 207.94C837.637 204.168 833.041 202.522 828.608 204.33C826.426 205.219 825.336 204.299 823.988 203.11C797.292 179.604 770.583 156.104 743.881 132.605C739.034 128.35 734.194 124.089 728.834 119.366ZM831.95 206.783C835.367 206.72 838.564 209.786 838.69 213.234C838.822 216.906 835.806 220.053 832.113 220.097C828.495 220.141 825.511 217.313 825.386 213.722C825.254 210.124 828.358 206.846 831.95 206.783Z" fill="#4779CE"/>
<path d="M831.956 208.847C829.461 208.885 827.417 210.975 827.423 213.471C827.429 216.118 829.617 218.189 832.276 218.063C834.752 217.945 836.765 215.78 836.683 213.315C836.602 210.893 834.395 208.81 831.956 208.847Z" fill="#4779CE"/>
<path d="M1425.96 119.366C1441.5 103.918 1456.64 88.8645 1472.07 73.5233C1471.06 72.5535 1470.19 71.7089 1469.5 71.0457C1453.03 87.5444 1436.8 103.812 1420.37 120.273C1426.12 125.341 1432.29 130.778 1438.46 136.208C1465.01 159.577 1491.55 182.945 1518.13 206.276C1519.66 207.621 1520.41 208.691 1519.7 210.987C1518.31 215.536 1520.46 219.997 1524.46 222.124C1528.46 224.258 1533.64 223.394 1536.51 220.116C1539.53 216.668 1539.86 211.707 1537.31 207.94C1534.76 204.168 1530.17 202.522 1525.74 204.33C1523.55 205.219 1522.46 204.299 1521.11 203.11C1494.42 179.604 1467.71 156.104 1441.01 132.605C1436.16 128.35 1431.32 124.089 1425.96 119.366ZM1529.08 206.783C1532.49 206.72 1535.69 209.786 1535.82 213.234C1535.95 216.906 1532.93 220.053 1529.24 220.097C1525.62 220.141 1522.64 217.313 1522.51 213.722C1522.38 210.124 1525.48 206.846 1529.08 206.783Z" fill="#4779CE"/>
<path d="M1529.08 208.847C1526.59 208.885 1524.54 210.975 1524.55 213.471C1524.56 216.118 1526.74 218.189 1529.4 218.063C1531.88 217.945 1533.89 215.78 1533.81 213.315C1533.73 210.893 1531.52 208.81 1529.08 208.847Z" fill="#4779CE"/>
<path d="M556.751 119.366C572.287 103.918 587.434 88.8645 602.864 73.5233C601.854 72.5535 600.977 71.7089 600.293 71.0457C583.823 87.5444 567.591 103.812 551.158 120.273C556.914 125.341 563.077 130.778 569.252 136.208C595.804 159.577 622.343 182.945 648.92 206.276C650.45 207.621 651.196 208.691 650.494 210.987C649.096 215.536 651.246 219.997 655.246 222.124C659.252 224.258 664.431 223.394 667.303 220.116C670.324 216.668 670.65 211.707 668.105 207.94C665.553 204.168 660.958 202.522 656.525 204.33C654.343 205.219 653.252 204.299 651.904 203.11C625.209 179.604 598.5 156.104 571.798 132.605C566.952 128.35 562.111 124.089 556.751 119.366ZM659.867 206.783C663.284 206.72 666.481 209.786 666.607 213.234C666.738 216.906 663.723 220.053 660.03 220.097C656.412 220.141 653.428 217.313 653.303 213.722C653.171 210.124 656.274 206.846 659.867 206.783Z" fill="#4779CE"/>
<path d="M659.873 208.847C657.377 208.885 655.334 210.975 655.34 213.471C655.346 216.118 657.534 218.189 660.192 218.063C662.669 217.945 664.681 215.78 664.6 213.315C664.518 210.893 662.312 208.81 659.873 208.847Z" fill="#4779CE"/>
<path d="M1256.91 119.366C1272.44 103.918 1287.59 88.8645 1303.02 73.5233C1302.01 72.5535 1301.13 71.7089 1300.45 71.0457C1283.98 87.5444 1267.75 103.812 1251.31 120.273C1257.07 125.341 1263.23 130.778 1269.41 136.208C1295.96 159.577 1322.5 182.945 1349.08 206.276C1350.61 207.621 1351.35 208.691 1350.65 210.987C1349.25 215.536 1351.4 219.997 1355.4 222.124C1359.41 224.258 1364.59 223.394 1367.46 220.116C1370.48 216.668 1370.81 211.707 1368.26 207.94C1365.71 204.168 1361.11 202.522 1356.68 204.33C1354.5 205.219 1353.41 204.299 1352.06 203.11C1325.37 179.604 1298.66 156.104 1271.95 132.605C1267.11 128.35 1262.27 124.089 1256.91 119.366ZM1360.02 206.783C1363.44 206.72 1366.64 209.786 1366.76 213.234C1366.9 216.906 1363.88 220.053 1360.19 220.097C1356.57 220.141 1353.58 217.313 1353.46 213.722C1353.33 210.124 1356.43 206.846 1360.02 206.783Z" fill="#4779CE"/>
<path d="M1360.03 208.847C1357.53 208.885 1355.49 210.975 1355.5 213.471C1355.5 216.118 1357.69 218.189 1360.35 218.063C1362.83 217.945 1364.84 215.78 1364.76 213.315C1364.68 210.893 1362.47 208.81 1360.03 208.847Z" fill="#4779CE"/>
<path d="M369.988 -1.00622C353.675 -15.6345 326.212 -42.7723 310.011 -57.2999C310.969 -58.3202 311.802 -59.2089 312.45 -59.9063C329.75 -44.2763 358.359 -15.9822 375.62 -0.387758C370.133 4.96929 364.259 10.7159 358.372 16.457C333.061 41.1596 350.962 22.7393 325.624 47.4057C324.166 48.8278 323.476 49.9346 324.296 52.1916C325.927 56.6622 324.01 61.2279 320.125 63.5579C316.234 65.8946 311.017 65.2986 307.98 62.1721C304.785 58.8847 304.203 53.9465 306.551 50.0541C308.904 46.1552 313.409 44.2756 317.929 45.8535C320.154 46.6286 321.196 45.654 322.481 44.3975C347.929 19.5501 330.189 37.8304 355.644 12.9888C360.264 8.4908 364.878 3.98686 369.988 -1.00622ZM314.718 48.4746C311.303 48.5878 308.268 51.8139 308.32 55.2632C308.378 58.9377 311.552 61.9256 315.243 61.7794C318.858 61.6372 321.692 58.6595 321.632 55.0665C321.578 51.467 318.309 48.3524 314.718 48.4746Z" fill="#4779CE"/>
<path d="M314.819 50.5369C317.313 50.4461 319.462 52.428 319.584 54.9214C319.715 57.5647 317.636 59.7454 314.975 59.7571C312.496 59.7658 310.374 57.7073 310.328 55.2413C310.285 52.819 312.381 50.6248 314.819 50.5369Z" fill="#4779CE"/>
<path d="M1070.14 -1.00621C1053.83 -15.6345 1026.37 -42.7723 1010.17 -57.2998C1011.13 -58.3202 1011.96 -59.2089 1012.61 -59.9063C1029.91 -44.2763 1058.52 -15.9822 1075.78 -0.38775C1070.29 4.96929 1064.42 10.7159 1058.53 16.457C1033.22 41.1596 1051.12 22.7393 1025.78 47.4057C1024.32 48.8278 1023.63 49.9346 1024.45 52.1916C1026.08 56.6622 1024.17 61.2279 1020.28 63.5579C1016.39 65.8946 1011.17 65.2986 1008.14 62.1721C1004.94 58.8847 1004.36 53.9465 1006.71 50.0541C1009.06 46.1552 1013.57 44.2756 1018.09 45.8535C1020.31 46.6286 1021.35 45.654 1022.64 44.3975C1048.08 19.5501 1030.35 37.8304 1055.8 12.9888C1060.42 8.49081 1065.03 3.98687 1070.14 -1.00621ZM1014.88 48.4746C1011.46 48.5878 1008.42 51.8139 1008.48 55.2632C1008.54 58.9377 1011.71 61.9256 1015.4 61.7794C1019.01 61.6372 1021.85 58.6595 1021.79 55.0665C1021.73 51.467 1018.47 48.3524 1014.88 48.4746Z" fill="#4779CE"/>
<path d="M1014.98 50.5369C1017.47 50.4461 1019.62 52.428 1019.74 54.9214C1019.87 57.5647 1017.79 59.7454 1015.13 59.7571C1012.65 59.7658 1010.53 57.7073 1010.49 55.2413C1010.44 52.819 1012.54 50.6248 1014.98 50.5369Z" fill="#4779CE"/>
<path d="M1767.27 -1.00623C1750.96 -15.6345 1723.5 -42.7723 1707.29 -57.2999C1708.25 -58.3203 1709.09 -59.2089 1709.73 -59.9064C1727.03 -44.2764 1755.64 -15.9822 1772.9 -0.387766C1767.42 4.96928 1761.54 10.7159 1755.66 16.457C1730.34 41.1596 1748.25 22.7393 1722.91 47.4057C1721.45 48.8278 1720.76 49.9346 1721.58 52.1916C1723.21 56.6622 1721.29 61.2279 1717.41 63.5579C1713.52 65.8946 1708.3 65.2986 1705.26 62.1721C1702.07 58.8847 1701.49 53.9465 1703.83 50.0541C1706.19 46.1552 1710.69 44.2756 1715.21 45.8535C1717.44 46.6286 1718.48 45.654 1719.76 44.3975C1745.21 19.5501 1727.47 37.8304 1752.93 12.9888C1757.55 8.49079 1762.16 3.98685 1767.27 -1.00623ZM1712 48.4746C1708.59 48.5878 1705.55 51.8139 1705.6 55.2632C1705.66 58.9377 1708.84 61.9256 1712.53 61.7794C1716.14 61.6372 1718.98 58.6595 1718.92 55.0665C1718.86 51.467 1715.59 48.3524 1712 48.4746Z" fill="#4779CE"/>
<path d="M1712.1 50.5369C1714.6 50.4461 1716.74 52.428 1716.87 54.9214C1717 57.5647 1714.92 59.7454 1712.26 59.7571C1709.78 59.7658 1707.66 57.7073 1707.61 55.2413C1707.57 52.819 1709.66 50.6248 1712.1 50.5369Z" fill="#4779CE"/>
<path d="M369.399 274.705C370.465 273.478 371.205 272.627 372.195 271.489C367.8 267.334 363.525 263.261 359.205 259.219C331.267 233.067 303.317 206.927 275.38 180.78C268.377 174.223 261.455 167.579 254.333 161.16C252.446 159.458 251.963 158.113 252.678 155.597C254.214 150.198 250.766 144.98 245.33 143.747C240.082 142.559 234.885 145.781 233.581 151.03C232.283 156.248 235.399 161.566 240.697 162.824C242.264 163.199 244.233 163.443 245.587 162.818C248.27 161.579 249.693 162.724 251.505 164.432C287.694 198.399 323.944 232.31 360.183 266.221C363.142 268.992 366.145 271.708 369.399 274.705ZM243.035 146.782C246.878 146.732 249.813 149.591 249.794 153.376C249.781 156.924 246.878 159.908 243.317 160.027C239.844 160.146 236.49 156.867 236.477 153.332C236.458 149.841 239.468 146.832 243.035 146.782Z" fill="#4779CE"/>
<path d="M238.572 153.295C238.534 155.804 240.503 157.837 243.055 157.925C245.606 158.013 247.619 156.123 247.726 153.545C247.838 150.755 245.939 148.784 243.161 148.815C240.528 148.847 238.616 150.717 238.572 153.295Z" fill="#4779CE"/>
<path d="M1069.56 274.705C1070.62 273.478 1071.36 272.627 1072.35 271.489C1067.96 267.334 1063.68 263.261 1059.36 259.219C1031.42 233.067 1003.47 206.927 975.537 180.78C968.534 174.223 961.612 167.579 954.49 161.16C952.603 159.458 952.12 158.113 952.835 155.597C954.371 150.198 950.922 144.98 945.487 143.747C940.239 142.559 935.041 145.781 933.737 151.03C932.44 156.248 935.555 161.566 940.853 162.824C942.421 163.199 944.389 163.443 945.744 162.818C948.427 161.579 949.85 162.724 951.662 164.432C987.85 198.399 1024.1 232.31 1060.34 266.221C1063.3 268.992 1066.3 271.708 1069.56 274.705ZM943.192 146.782C947.035 146.732 949.969 149.591 949.951 153.376C949.938 156.924 947.035 159.908 943.474 160.027C940.001 160.146 936.646 156.867 936.634 153.332C936.615 149.841 939.624 146.832 943.192 146.782Z" fill="#4779CE"/>
<path d="M938.729 153.295C938.691 155.804 940.66 157.837 943.212 157.925C945.764 158.013 947.776 156.123 947.883 153.545C947.996 150.755 946.096 148.784 943.318 148.815C940.685 148.847 938.773 150.717 938.729 153.295Z" fill="#4779CE"/>
<path d="M1766.68 274.705C1767.75 273.478 1768.49 272.627 1769.48 271.489C1765.08 267.334 1760.81 263.261 1756.49 259.219C1728.55 233.067 1700.6 206.927 1672.66 180.78C1665.66 174.223 1658.74 167.579 1651.62 161.16C1649.73 159.458 1649.25 158.113 1649.96 155.597C1651.5 150.198 1648.05 144.98 1642.61 143.747C1637.37 142.559 1632.17 145.781 1630.86 151.03C1629.57 156.248 1632.68 161.566 1637.98 162.824C1639.55 163.199 1641.52 163.443 1642.87 162.818C1645.55 161.579 1646.98 162.724 1648.79 164.432C1684.98 198.399 1721.23 232.31 1757.47 266.221C1760.43 268.992 1763.43 271.708 1766.68 274.705ZM1640.32 146.782C1644.16 146.732 1647.1 149.591 1647.08 153.376C1647.06 156.924 1644.16 159.908 1640.6 160.027C1637.13 160.146 1633.77 156.867 1633.76 153.332C1633.74 149.841 1636.75 146.832 1640.32 146.782Z" fill="#4779CE"/>
<path d="M1635.86 153.295C1635.82 155.804 1637.79 157.837 1640.34 157.925C1642.89 158.013 1644.9 156.123 1645.01 153.545C1645.12 150.755 1643.22 148.784 1640.44 148.815C1637.81 148.847 1635.9 150.717 1635.86 153.295Z" fill="#4779CE"/>
<path d="M520.82 251.612C521.886 250.385 522.625 249.534 523.616 248.396C519.221 244.241 514.945 240.168 510.625 236.126C482.688 209.974 454.738 183.834 426.801 157.687C419.798 151.13 412.876 144.486 405.754 138.067C403.867 136.365 403.384 135.02 404.099 132.504C405.635 127.105 402.186 121.887 396.751 120.654C391.503 119.466 386.306 122.688 385.001 127.937C383.704 133.155 386.82 138.473 392.117 139.731C393.685 140.106 395.654 140.35 397.008 139.725C399.691 138.486 401.114 139.631 402.926 141.339C439.114 175.306 475.365 209.217 511.603 243.128C514.563 245.899 517.566 248.615 520.82 251.612ZM394.456 123.689C398.299 123.639 401.233 126.498 401.215 130.283C401.202 133.831 398.299 136.815 394.738 136.934C391.265 137.053 387.911 133.775 387.898 130.24C387.879 126.748 390.889 123.739 394.456 123.689Z" fill="#4779CE"/>
<path d="M389.993 130.202C389.955 132.711 391.924 134.744 394.476 134.832C397.027 134.92 399.04 133.03 399.146 130.452C399.259 127.662 397.36 125.691 394.582 125.722C391.949 125.754 390.037 127.624 389.993 130.202Z" fill="#4779CE"/>
<path d="M1220.98 251.612C1222.04 250.385 1222.78 249.534 1223.77 248.396C1219.38 244.241 1215.1 240.168 1210.78 236.126C1182.85 209.974 1154.9 183.834 1126.96 157.687C1119.95 151.13 1113.03 144.486 1105.91 138.067C1104.02 136.365 1103.54 135.02 1104.26 132.504C1105.79 127.105 1102.34 121.887 1096.91 120.654C1091.66 119.466 1086.46 122.688 1085.16 127.937C1083.86 133.155 1086.98 138.473 1092.27 139.731C1093.84 140.106 1095.81 140.35 1097.16 139.725C1099.85 138.486 1101.27 139.631 1103.08 141.339C1139.27 175.306 1175.52 209.217 1211.76 243.128C1214.72 245.899 1217.72 248.615 1220.98 251.612ZM1094.61 123.689C1098.46 123.639 1101.39 126.498 1101.37 130.283C1101.36 133.831 1098.46 136.815 1094.9 136.934C1091.42 137.053 1088.07 133.775 1088.06 130.24C1088.04 126.748 1091.05 123.739 1094.61 123.689Z" fill="#4779CE"/>
<path d="M1090.15 130.202C1090.11 132.711 1092.08 134.744 1094.63 134.832C1097.18 134.92 1099.2 133.03 1099.3 130.452C1099.42 127.662 1097.52 125.691 1094.74 125.722C1092.11 125.754 1090.19 127.624 1090.15 130.202Z" fill="#4779CE"/>
<path d="M1918.1 251.612C1919.17 250.385 1919.91 249.534 1920.9 248.396C1916.51 244.241 1912.23 240.168 1907.91 236.126C1879.97 209.974 1852.02 183.834 1824.08 157.687C1817.08 151.13 1810.16 144.486 1803.04 138.067C1801.15 136.365 1800.67 135.02 1801.38 132.504C1802.92 127.105 1799.47 121.887 1794.03 120.654C1788.79 119.466 1783.59 122.688 1782.29 127.937C1780.99 133.155 1784.1 138.473 1789.4 139.731C1790.97 140.106 1792.94 140.35 1794.29 139.725C1796.97 138.486 1798.4 139.631 1800.21 141.339C1836.4 175.306 1872.65 209.217 1908.89 243.128C1911.85 245.899 1914.85 248.615 1918.1 251.612ZM1791.74 123.689C1795.58 123.639 1798.52 126.498 1798.5 130.283C1798.49 133.831 1795.58 136.815 1792.02 136.934C1788.55 137.053 1785.19 133.775 1785.18 130.24C1785.16 126.748 1788.17 123.739 1791.74 123.689Z" fill="#4779CE"/>
<path d="M1787.28 130.202C1787.24 132.711 1789.21 134.744 1791.76 134.832C1794.31 134.92 1796.32 133.03 1796.43 130.452C1796.54 127.662 1794.64 125.691 1791.87 125.722C1789.23 125.754 1787.32 127.624 1787.28 130.202Z" fill="#4779CE"/>
<path d="M657.137 65.8273C657.13 63.6537 654.973 61.9374 652.239 61.9374C649.585 61.9374 647.28 63.7075 647.206 65.8166C647.132 67.9633 649.645 69.9324 652.386 69.8678C655.107 69.7925 657.144 68.0655 657.137 65.8273Z" fill="#4779CE"/>
<path d="M1354.26 65.8273C1354.26 63.6537 1352.1 61.9374 1349.37 61.9374C1346.71 61.9374 1344.41 63.7075 1344.33 65.8166C1344.26 67.9633 1346.77 69.9324 1349.51 69.8678C1352.23 69.7925 1354.27 68.0655 1354.26 65.8273Z" fill="#4779CE"/>
</g>
</svg>
