<svg width="24" height="25" viewBox="0 0 24 25" fill="none" xmlns="http://www.w3.org/2000/svg">
<path d="M8.4 10.8082H19.2V13.2082H8.4V10.8082ZM19.2 6.00822H4.8V8.40823H19.2V6.00822ZM24 2.40822V24.0082L19.2 19.2082H2.4C1.76348 19.2082 1.15303 18.9554 0.702944 18.5053C0.252856 18.0552 0 17.4447 0 16.8082V2.40822C0 1.08822 1.08 0.00822449 2.4 0.00822449H21.6C22.2365 0.00822449 22.847 0.261081 23.2971 0.711168C23.7471 1.16126 24 1.7717 24 2.40822ZM21.6 2.40822H2.4V16.8082H20.196L21.6 18.2122V2.40822Z" fill="white"/>
</svg>
