<svg width="30" height="30" viewBox="0 0 30 30" fill="none" xmlns="http://www.w3.org/2000/svg">
<path d="M0 10.0625C0 6.50318 0 4.72352 0.703666 3.36891C1.29664 2.22739 2.22739 1.29664 3.36891 0.703666C4.72352 0 6.50318 0 10.0625 0H19.9375C23.4968 0 25.2765 0 26.6311 0.703666C27.7726 1.29664 28.7034 2.22739 29.2963 3.36891C30 4.72352 30 6.50318 30 10.0625V19.9375C30 23.4968 30 25.2765 29.2963 26.6311C28.7034 27.7726 27.7726 28.7034 26.6311 29.2963C25.2765 30 23.4968 30 19.9375 30H10.0625C6.50318 30 4.72352 30 3.36891 29.2963C2.22739 28.7034 1.29664 27.7726 0.703666 26.6311C0 25.2765 0 23.4968 0 19.9375V10.0625Z" fill="white"/>
<path d="M10.0625 0.25H19.9375C21.7214 0.25 23.044 0.250201 24.0904 0.337101C25.1338 0.423752 25.8802 0.595312 26.5158 0.925519C27.6117 1.49477 28.5052 2.38829 29.0745 3.48415C29.4047 4.11983 29.5762 4.86621 29.6629 5.90963C29.7498 6.95604 29.75 8.27865 29.75 10.0625V19.9375C29.75 21.7214 29.7498 23.044 29.6629 24.0904C29.5762 25.1338 29.4047 25.8802 29.0745 26.5158C28.5052 27.6117 27.6117 28.5052 26.5158 29.0745C25.8802 29.4047 25.1338 29.5762 24.0904 29.6629C23.044 29.7498 21.7214 29.75 19.9375 29.75H10.0625C8.27865 29.75 6.95604 29.7498 5.90963 29.6629C4.86621 29.5762 4.11983 29.4047 3.48415 29.0745C2.38829 28.5052 1.49477 27.6117 0.925519 26.5158C0.595312 25.8802 0.423752 25.1338 0.337101 24.0904C0.250201 23.044 0.25 21.7214 0.25 19.9375V10.0625C0.25 8.27865 0.250201 6.95604 0.337101 5.90963C0.423752 4.86621 0.595312 4.11983 0.925519 3.48415C1.49477 2.38829 2.38829 1.49477 3.48415 0.925519C4.11983 0.595312 4.86621 0.423752 5.90963 0.337101C6.95604 0.250201 8.27865 0.25 10.0625 0.25Z" stroke="black" stroke-opacity="0.15" stroke-width="0.5"/>
<path fill-rule="evenodd" clip-rule="evenodd" d="M24 15.2133C24 14.5485 23.9404 13.9093 23.8296 13.2957H15V16.9221H20.0455C19.8281 18.094 19.1676 19.0869 18.1747 19.7516V22.1039H21.2046C22.9773 20.4718 24 18.0684 24 15.2133Z" fill="#4285F4"/>
<path fill-rule="evenodd" clip-rule="evenodd" d="M15 24.375C17.5312 24.375 19.6534 23.5355 21.2045 22.1037L18.1747 19.7514C17.3352 20.3139 16.2614 20.6463 15 20.6463C12.5582 20.6463 10.4915 18.9972 9.75424 16.7812H6.62213V19.2102C8.16475 22.2742 11.3352 24.375 15 24.375Z" fill="#34A853"/>
<path fill-rule="evenodd" clip-rule="evenodd" d="M9.75421 16.7813C9.56671 16.2188 9.46017 15.6179 9.46017 15C9.46017 14.3821 9.56671 13.7813 9.75421 13.2188V10.7898H6.6221C5.98716 12.0554 5.62494 13.4872 5.62494 15C5.62494 16.5128 5.98716 17.9446 6.6221 19.2103L9.75421 16.7813Z" fill="#FBBC05"/>
<path fill-rule="evenodd" clip-rule="evenodd" d="M15 9.3537C16.3764 9.3537 17.6122 9.82671 18.5838 10.7557L21.2727 8.06677C19.6491 6.55398 17.527 5.625 15 5.625C11.3352 5.625 8.16475 7.72586 6.62213 10.7898L9.75424 13.2188C10.4915 11.0029 12.5582 9.3537 15 9.3537Z" fill="#EA4335"/>
</svg>
