<svg width="240" height="60" viewBox="0 0 240 60" fill="none" xmlns="http://www.w3.org/2000/svg">
<g clip-path="url(#clip0)">
<path d="M29.9306 -0.000802129C46.287 0.0131652 59.7795 13.2437 59.7708 30.0324C59.7621 46.5068 46.5131 60.4217 28.9863 59.9887C13.2298 59.6011 -0.0192297 46.6761 -0.000101384 29.9241C0.019027 13.3153 13.461 -0.0566713 29.9306 -0.000802129ZM52.2151 15.4785C49.671 17.811 47.1895 20.0859 44.7133 22.3678C44.5933 22.4778 44.4646 22.6472 44.4525 22.7973C44.4125 23.2966 45.9166 24.6567 46.4314 24.634C48.226 24.5589 49.6658 25.2486 50.5666 26.8077C51.4308 28.3004 51.4152 29.8648 50.4588 31.3366C49.1493 33.3548 46.7809 33.9205 44.6872 32.763C42.7431 31.6875 41.971 29.21 42.877 27.0957C42.9917 26.8286 42.9639 26.3677 42.8022 26.139C42.0649 25.1054 41.2876 24.0963 40.4616 23.1325C40.0112 22.6053 40.0721 22.2578 40.552 21.8196C42.8352 19.7385 45.1028 17.6416 47.3739 15.5465C48.3564 14.6404 49.3302 13.7273 50.3162 12.8107C46.8209 8.73399 42.6526 5.91958 37.5697 4.36572C37.5332 4.65904 37.4863 4.85458 37.4863 5.05187C37.4828 11.2219 37.4776 17.392 37.5036 23.562C37.5054 23.9601 37.7019 24.407 37.9349 24.744C38.9713 26.2368 40.0164 27.7243 41.1328 29.1577C41.8614 30.0917 42.2283 31.0537 42.1171 32.2602C42.0179 33.3269 42.1258 34.4129 42.0858 35.4883C42.0631 36.0977 42.2162 36.48 42.7761 36.8292C44.7498 38.0618 45.2854 40.9251 43.9569 42.8037C42.5101 44.8517 39.766 45.3754 37.8532 43.97C35.2274 42.0408 35.4047 38.3272 38.1888 36.6022C38.4531 36.4381 38.8183 36.1483 38.8287 35.9039C38.8878 34.5386 38.8687 33.1698 38.8374 31.8027C38.8322 31.5635 38.6809 31.3016 38.5331 31.0974C37.4915 29.643 36.4759 28.166 35.3647 26.7658C34.577 25.7723 34.2031 24.7562 34.2275 23.4485C34.3075 19.1431 34.257 14.8342 34.257 10.527C34.257 8.45989 34.2762 6.39447 34.2344 4.32906C34.2292 4.04797 33.9545 3.55911 33.7528 3.52943C31.0522 3.13136 28.3481 3.14358 25.578 3.56784C25.578 3.9694 25.578 4.31335 25.578 4.65729C25.578 10.857 25.5415 17.055 25.6075 23.2547C25.6215 24.5485 25.3589 25.6187 24.5329 26.5964C23.9747 27.2581 23.5695 28.0577 22.9696 28.6723C21.1419 30.5474 20.5159 32.7542 20.8168 35.326C20.8915 35.9685 21.0133 36.3473 21.6097 36.6703C23.373 37.6253 24.1034 39.6296 23.5365 41.6933C23.053 43.4497 21.1993 44.8377 19.3787 44.8063C17.5145 44.7731 15.7425 43.3956 15.2191 41.5728C14.7113 39.8025 15.4626 37.8855 17.0241 36.7594C17.3145 36.5499 17.5684 36.0872 17.5823 35.731C17.6449 34.2784 17.5789 32.8206 17.6275 31.368C17.6415 30.9385 17.7823 30.4531 18.0205 30.1005C18.9231 28.7613 19.9282 27.4903 20.8185 26.1442C21.4063 25.2538 22.3279 24.5642 22.3209 23.3019C22.2896 17.2785 22.307 11.2533 22.3036 5.2282C22.3036 4.95759 22.2566 4.68872 22.227 4.37794C22.0114 4.42858 21.8984 4.44778 21.7923 4.4827C17.1632 5.96672 13.2593 8.57686 9.96403 12.149C9.43192 12.7251 9.62494 13.0359 10.1049 13.4724C13.1115 16.203 16.0886 18.9668 19.1004 21.6904C19.6812 22.2159 19.7943 22.5843 19.2256 23.2268C18.2762 24.3023 17.4345 25.4738 16.5633 26.5842C17.3789 28.0176 17.485 29.4649 16.8259 30.8949C15.9234 32.852 13.7097 33.7581 11.5743 33.1418C9.73623 32.6111 8.31899 30.3938 8.58505 28.4628C8.8685 26.4061 10.7222 24.6043 12.7707 24.6567C13.7514 24.6811 14.3323 24.3739 14.8087 23.6127C14.9878 23.3246 15.2139 23.0662 15.4452 22.7554C12.795 20.3199 10.1727 17.9105 7.53995 15.4924C2.22574 23.3089 1.33888 35.1688 7.55908 44.705C13.0906 53.1849 22.6844 56.8653 28.2351 56.5056C28.2351 55.2032 28.2125 53.8955 28.2455 52.5896C28.2594 52.0256 28.0577 51.7306 27.5725 51.4215C25.6406 50.1924 25.1519 48.3784 25.7467 46.3619C26.3483 44.3227 28.0855 43.3205 30.3305 43.4375C31.9686 43.523 33.6814 44.9128 34.0797 46.4789C34.5961 48.5076 33.8345 50.3967 32.0729 51.5176C31.8538 51.6572 31.5617 51.9139 31.5547 52.1251C31.5095 53.5969 31.5304 55.0705 31.5304 56.7431C41.0911 55.8352 48.2903 51.3849 53.062 43.2105C58.2527 34.3221 57.4041 23.1762 52.2151 15.4785ZM18.3753 40.2669C18.3162 40.988 18.6535 41.4367 19.3213 41.4541C19.9682 41.4698 20.462 41.2149 20.5264 40.4956C20.589 39.8025 20.189 39.4114 19.556 39.2944C18.937 39.1809 18.4275 39.6331 18.3753 40.2669ZM41.4215 40.4048C41.4284 39.7938 40.945 39.2874 40.3416 39.2857C39.6269 39.2822 39.2565 39.7396 39.2217 40.3629C39.1835 41.0351 39.6373 41.4157 40.3016 41.4663C40.912 41.5135 41.4145 41.0142 41.4215 40.4048ZM45.7445 28.9901C45.7375 29.7024 46.1862 30.0463 46.7931 30.1459C47.3391 30.2366 47.8695 29.6448 47.8851 29.0372C47.9025 28.3877 47.4573 27.8971 46.8383 27.8884C46.2349 27.8797 45.7462 28.372 45.7445 28.9901ZM12.9359 27.8866C12.3725 27.8709 11.8004 28.4244 11.8299 28.9953C11.8647 29.6745 12.3116 30.1109 12.9168 30.1319C13.5532 30.1546 13.9479 29.65 14.0314 29.0197C14.1027 28.482 13.501 27.9024 12.9359 27.8866ZM29.861 48.862C30.4192 48.869 30.96 48.3295 30.9287 47.7429C30.8957 47.1231 30.5809 46.7041 29.9219 46.6849C29.2298 46.6657 28.8646 47.076 28.802 47.7307C28.7463 48.2999 29.2993 48.855 29.861 48.862Z" fill="white"/>
<path d="M142.242 24.7986C142.242 30.7085 142.242 36.4037 142.242 42.1408C142.028 42.1774 141.865 42.2281 141.701 42.2281C139.875 42.2333 138.051 42.2141 136.225 42.2438C135.658 42.2525 135.415 42.0622 135.476 41.4948C135.488 41.3796 135.477 41.2626 135.477 41.1456C135.477 32.128 135.477 23.1086 135.477 14.091C135.477 12.9404 135.481 12.9387 136.629 12.9387C137.846 12.9369 139.063 12.9736 140.279 12.9247C140.926 12.8985 141.355 13.1342 141.75 13.6213C146.195 19.1192 150.651 24.6066 155.108 30.094C155.159 30.1551 155.254 30.1795 155.435 30.2791C155.435 24.5141 155.435 18.8119 155.435 12.9387C156.011 12.9387 156.486 12.9387 156.962 12.9387C158.411 12.9387 159.861 12.9718 161.308 12.9229C162.038 12.8985 162.254 13.1586 162.248 13.8727C162.224 18.3824 162.236 22.8904 162.236 27.4C162.236 31.997 162.215 36.5923 162.255 41.1893C162.262 42.036 162.017 42.2962 161.182 42.2508C159.941 42.1827 158.691 42.1984 157.447 42.249C156.865 42.2735 156.463 42.0762 156.113 41.6484C153.512 38.4482 150.909 35.2497 148.302 32.0546C146.48 29.8181 144.652 27.5851 142.823 25.3556C142.701 25.2037 142.543 25.0832 142.242 24.7986Z" fill="white"/>
<path d="M80.6207 42.2317C78.3445 42.2317 76.2908 42.2439 74.2388 42.209C74.0562 42.2055 73.8284 41.9192 73.7171 41.7114C73.6319 41.5525 73.6945 41.3133 73.6945 41.1091C73.6945 32.1211 73.6945 23.1314 73.6945 14.1435C73.6945 12.9405 73.698 12.937 74.884 12.937C78.8818 12.9353 82.8796 12.9004 86.8757 12.9493C89.4998 12.9824 92.0177 13.494 94.3114 14.9029C97.3772 16.785 98.864 19.5453 98.9979 23.0965C99.1648 27.5433 97.2659 30.7698 93.1237 32.8282C95.2609 35.9202 97.365 38.9634 99.563 42.1409C99.2152 42.1793 98.9822 42.2282 98.7492 42.23C96.8085 42.2369 94.8661 42.2614 92.9272 42.209C92.5707 42.2003 92.0943 41.9628 91.8891 41.6765C90.2423 39.3789 88.6564 37.0359 87.0218 34.7295C86.8357 34.4659 86.4601 34.1848 86.1645 34.1778C84.3716 34.1272 82.577 34.1516 80.6225 34.1516C80.6207 36.8264 80.6207 39.4662 80.6207 42.2317ZM80.5546 28.7777C83.3143 28.6014 85.9749 28.7009 88.5207 28.2033C91.736 27.573 92.5638 24.7412 91.8334 21.925C91.2909 19.8351 89.6198 18.9098 87.6391 18.7247C85.5159 18.5257 83.3665 18.599 81.2311 18.5205C80.586 18.496 80.5477 18.847 80.5512 19.3358C80.5616 21.485 80.5564 23.6342 80.5546 25.7852C80.5546 26.6809 80.5546 27.5765 80.5546 28.7777Z" fill="white"/>
<path d="M112.736 30.1432C112.736 32.2505 112.727 34.2513 112.755 36.2504C112.756 36.3935 113.002 36.5961 113.176 36.6572C113.382 36.7305 113.633 36.6833 113.866 36.6833C118.415 36.6833 122.966 36.7008 127.515 36.6676C128.282 36.6624 128.53 36.8929 128.506 37.6576C128.457 39.1591 128.492 40.6623 128.492 42.2319C128.054 42.2319 127.767 42.2319 127.482 42.2319C120.643 42.2319 113.803 42.2179 106.966 42.2511C106.115 42.2546 105.898 41.9927 105.902 41.1668C105.928 32.1457 105.917 23.1246 105.919 14.1035C105.919 12.939 105.924 12.9372 107.07 12.9372C113.676 12.9355 120.284 12.9512 126.891 12.918C127.734 12.9145 127.998 13.1555 127.964 13.9952C127.903 15.4688 127.946 16.9458 127.946 18.4752C122.83 18.4752 117.852 18.4752 112.802 18.4752C112.802 20.518 112.802 22.5066 112.802 24.5964C113.129 24.6139 113.462 24.647 113.796 24.647C117.592 24.6505 121.389 24.668 125.185 24.6348C125.969 24.6278 126.285 24.8408 126.242 25.6684C126.181 26.8294 126.19 27.9974 126.24 29.1585C126.273 29.9337 125.979 30.1624 125.23 30.1554C121.434 30.1275 117.638 30.1432 113.842 30.1432C113.501 30.1432 113.163 30.1432 112.736 30.1432Z" fill="white"/>
<path d="M217.862 34.3734C219.875 35.1765 221.698 36.0477 223.609 36.6256C225.901 37.3188 228.28 37.434 230.634 36.8124C231.909 36.4772 233.196 35.5135 233.093 33.9945C233.034 33.1251 232.611 32.4965 231.933 32.1875C230.664 31.6079 229.328 31.1592 227.996 30.7279C225.398 29.8847 222.647 29.3783 220.211 28.2051C216.599 26.4662 215.411 23.0058 216.787 18.7283C217.902 15.2609 220.712 13.6686 223.991 12.9458C228.718 11.9053 233.34 12.3732 237.759 14.477C238.484 14.8227 238.765 15.1928 238.39 15.9994C237.854 17.15 237.381 18.3337 236.941 19.5244C236.71 20.1477 236.442 20.2507 235.856 19.9365C233.366 18.6026 230.718 17.878 227.873 18.0055C226.683 18.0596 225.52 18.2185 224.469 18.8645C223.522 19.4476 223.007 20.3153 223.07 21.3873C223.134 22.5117 223.887 23.238 224.936 23.5505C227.031 24.1755 229.158 24.6958 231.248 25.3401C232.867 25.8394 234.536 26.2898 236.032 27.0598C241.729 29.9929 240.71 37.2961 236.628 40.2327C234.335 41.8826 231.726 42.5547 228.996 42.7084C224.897 42.9388 220.922 42.2824 217.262 40.3182C215.446 39.344 215.476 39.5413 216.319 37.839C216.905 36.6501 217.399 35.4175 217.862 34.3734Z" fill="white"/>
<path d="M207.643 33.3103C209.052 34.6005 210.33 35.7685 211.605 36.9383C212.001 37.3015 212.001 37.6297 211.615 38.0435C209.301 40.5314 206.438 41.9037 203.119 42.4746C200.649 42.9006 198.217 42.8325 195.806 42.2302C190.821 40.9836 187.126 38.0749 185.27 33.2248C183.423 28.3991 183.839 23.6449 186.646 19.2417C188.757 15.9297 191.84 13.8853 195.62 12.9879C200.036 11.9386 204.357 12.2232 208.369 14.5278C209.52 15.1895 210.49 16.1724 211.535 17.0175C212.024 17.4103 212.033 17.7787 211.533 18.2221C210.394 19.2365 209.287 20.2893 208.181 21.3403C207.847 21.6563 207.647 21.7174 207.28 21.3106C204.167 17.8642 198.984 17.6669 195.669 19.5001C192.582 21.2076 190.701 25.0644 191.21 28.7046C191.703 32.2104 193.382 34.8991 196.737 36.1596C200.505 37.5756 204.004 36.9523 206.988 34.1012C207.219 33.883 207.397 33.6123 207.643 33.3103Z" fill="white"/>
<path d="M177.528 12.939C177.528 22.7842 177.528 32.46 177.528 42.2284C175.372 42.2284 173.266 42.2389 171.16 42.2057C171.006 42.2039 170.795 41.9071 170.719 41.7064C170.641 41.5021 170.696 41.2472 170.696 41.015C170.696 32.0829 170.696 23.1508 170.696 14.2187C170.696 12.9407 170.698 12.939 172.011 12.939C173.828 12.939 175.645 12.939 177.528 12.939Z" fill="white"/>
<path d="M26.9709 9.22172C26.9709 8.72414 26.9709 8.29115 26.9709 7.85991C26.9709 6.20479 26.9709 6.18209 28.6681 6.1559C29.7863 6.13844 30.9062 6.21526 32.026 6.21701C32.5964 6.21875 32.7929 6.47889 32.7564 7.02187C32.7286 7.42692 32.739 7.83547 32.7547 8.24226C32.779 8.85159 32.772 9.38409 31.8887 9.17284C31.76 9.14141 31.4748 9.41726 31.4 9.60757C31.3096 9.83628 31.36 10.1226 31.36 10.3845C31.3583 16.8112 31.3687 23.2362 31.3461 29.6628C31.3444 30.3996 31.4991 30.8728 32.2052 31.2691C33.685 32.0984 34.4693 34.2267 34.0171 35.8102C33.4885 37.6591 31.9217 38.8289 30.1045 38.9581C27.43 39.1501 25.3798 36.8124 25.6302 34.3733C25.7676 33.0377 26.3971 31.9308 27.5622 31.2446C28.1534 30.8955 28.3186 30.4852 28.3169 29.8374C28.2978 23.3531 28.3064 16.8688 28.3047 10.3845C28.303 9.12395 28.2978 9.12395 26.9709 9.22172ZM29.8558 33.5824C29.1846 33.5807 28.6577 34.1219 28.6908 34.8028C28.7255 35.5239 29.2055 35.8888 29.835 35.9988C30.414 36.1 31.0262 35.4296 31.0366 34.7906C31.0488 34.0992 30.5445 33.5842 29.8558 33.5824Z" fill="#FFDE00"/>
<path d="M50.9196 18.6636C54.4932 25.8428 54.8583 33.0447 51.5178 40.2029C47.8643 48.0316 41.5346 52.4627 33.0398 53.9135C32.8746 53.2379 32.8033 52.7193 33.452 52.316C33.8084 52.0943 34.1684 51.7573 34.344 51.3855C34.7736 50.4776 35.6065 50.2576 36.4203 49.9922C41.2598 48.4104 44.9864 45.3935 47.6748 41.0898C49.0155 38.9441 49.9702 36.6273 50.3719 34.0974C50.431 33.7238 50.6744 33.3362 50.9301 33.0429C53.135 30.5218 53.1107 27.1784 50.6849 24.9523C49.8537 24.1894 49.6798 23.2256 49.3059 22.3248C48.6312 20.6923 48.6903 20.6661 50.0397 19.4283C50.2901 19.1996 50.5527 18.9831 50.9196 18.6636Z" fill="#FFDE00"/>
<path d="M26.7535 53.9191C18.1475 52.4717 11.783 47.9672 8.15208 40.0548C4.89504 32.9541 5.22544 25.7907 8.83723 18.6621C9.56584 19.3151 10.2179 19.8354 10.7779 20.4429C10.9448 20.6245 10.9483 21.0819 10.8596 21.3578C10.6005 22.1539 10.2788 22.9309 9.9345 23.6956C9.77625 24.0482 9.56758 24.4236 9.28066 24.6663C6.8757 26.6985 6.47748 30.1851 8.46161 32.6207C8.97112 33.2457 9.28066 33.8673 9.46498 34.6669C10.6875 39.9657 13.5185 44.2048 17.9615 47.3422C19.843 48.6708 21.9071 49.6032 24.093 50.3033C24.4877 50.429 24.8251 50.7904 25.1415 51.0907C25.538 51.4678 25.8232 51.9951 26.2684 52.2762C26.9431 52.7022 26.8892 53.2242 26.7535 53.9191Z" fill="#FFDE00"/>
<path d="M12.3916 13.7906C14.7566 11.1089 17.5719 9.24248 20.9507 7.80908C20.9507 8.9125 20.9854 9.87973 20.9228 10.84C20.9089 11.0477 20.5751 11.3027 20.3333 11.4179C18.3579 12.3589 16.6503 13.6736 15.1165 15.2117C14.6453 15.6831 14.374 15.6884 13.941 15.2135C13.4958 14.7264 12.9689 14.3143 12.3916 13.7906Z" fill="#FFDE00"/>
<path d="M38.8548 7.86182C42.1936 9.23061 44.9394 11.1389 47.3617 13.7525C46.7566 14.3322 46.214 14.9205 45.5915 15.4059C45.428 15.5334 44.9115 15.4565 44.7394 15.2872C43.1639 13.7403 41.4215 12.4396 39.4582 11.4287C39.2096 11.3013 38.9 11.001 38.8826 10.76C38.8131 9.84866 38.8548 8.92857 38.8548 7.86182Z" fill="#FFDE00"/>
</g>
<defs>
<clipPath id="clip0">
<rect width="240" height="60" fill="white"/>
</clipPath>
</defs>
</svg>
