<svg width="18" height="18" viewBox="0 0 18 18" fill="none" xmlns="http://www.w3.org/2000/svg">
<g clip-path="url(#clip0)">
<path d="M13.2099 11.637C14.2993 10.1505 14.7872 8.30751 14.576 6.47673C14.3649 4.64595 13.4703 2.96241 12.0711 1.76291C10.672 0.563411 8.87159 -0.0635778 7.03005 0.00738028C5.1885 0.0783383 3.44165 0.84201 2.13898 2.14561C0.836313 3.44921 0.0738911 5.19661 0.00425084 7.03821C-0.0653894 8.8798 0.562887 10.6798 1.76339 12.078C2.96388 13.4763 4.64807 14.3697 6.479 14.5796C8.30993 14.7894 10.1526 14.3002 11.6383 13.2098H11.6372C11.6709 13.2548 11.7069 13.2975 11.7474 13.3391L16.0787 17.6704C16.2896 17.8815 16.5758 18.0002 16.8742 18.0003C17.1727 18.0004 17.4589 17.8819 17.67 17.671C17.8811 17.46 17.9998 17.1739 17.9999 16.8754C18 16.577 17.8815 16.2908 17.6706 16.0797L13.3393 11.7484C13.2991 11.7077 13.2558 11.67 13.2099 11.6359V11.637ZM13.5002 7.31245C13.5002 8.12501 13.3401 8.92961 13.0292 9.68032C12.7182 10.431 12.2624 11.1131 11.6879 11.6877C11.1133 12.2623 10.4312 12.7181 9.68049 13.029C8.92978 13.34 8.12517 13.5 7.31261 13.5C6.50005 13.5 5.69544 13.34 4.94473 13.029C4.19402 12.7181 3.51191 12.2623 2.93734 11.6877C2.36277 11.1131 1.907 10.431 1.59605 9.68032C1.28509 8.92961 1.12505 8.12501 1.12505 7.31245C1.12505 5.6714 1.77695 4.09757 2.93734 2.93718C4.09773 1.77678 5.67157 1.12488 7.31261 1.12488C8.95365 1.12488 10.5275 1.77678 11.6879 2.93718C12.8483 4.09757 13.5002 5.6714 13.5002 7.31245Z" fill="#B4BCC4"/>
</g>
<defs>
<clipPath id="clip0">
<rect width="18" height="18" fill="white"/>
</clipPath>
</defs>
</svg>
