<svg width="30" height="30" viewBox="0 0 30 30" fill="none" xmlns="http://www.w3.org/2000/svg">
<path d="M0 10.0625C0 6.50318 0 4.72352 0.703666 3.36891C1.29664 2.22739 2.22739 1.29664 3.36891 0.703666C4.72352 0 6.50318 0 10.0625 0H19.9375C23.4968 0 25.2765 0 26.6311 0.703666C27.7726 1.29664 28.7034 2.22739 29.2963 3.36891C30 4.72352 30 6.50318 30 10.0625V19.9375C30 23.4968 30 25.2765 29.2963 26.6311C28.7034 27.7726 27.7726 28.7034 26.6311 29.2963C25.2765 30 23.4968 30 19.9375 30H10.0625C6.50318 30 4.72352 30 3.36891 29.2963C2.22739 28.7034 1.29664 27.7726 0.703666 26.6311C0 25.2765 0 23.4968 0 19.9375V10.0625Z" fill="url(#paint0_linear)"/>
<path fill-rule="evenodd" clip-rule="evenodd" d="M14.7718 21.1977H16.042C16.042 21.1977 16.4257 21.1542 16.6215 20.9365C16.8018 20.7366 16.7961 20.3612 16.7961 20.3612C16.7961 20.3612 16.7713 18.6038 17.5623 18.345C18.3421 18.0901 19.3434 20.0435 20.4047 20.7946C21.2073 21.3631 21.8171 21.2384 21.8171 21.2384L24.6549 21.1977C24.6549 21.1977 26.1395 21.1034 25.4356 19.8998C25.3779 19.8014 25.0256 19.0096 23.3256 17.3824C21.5462 15.6795 21.7845 15.9549 23.928 13.0092C25.2334 11.2152 25.7552 10.12 25.5922 9.65087C25.4367 9.20409 24.4767 9.32218 24.4767 9.32218L21.2814 9.3427C21.2814 9.3427 21.0446 9.30939 20.8689 9.41766C20.6972 9.52386 20.5868 9.77134 20.5868 9.77134C20.5868 9.77134 20.081 11.1596 19.4066 12.3402C17.9838 14.8314 17.4149 14.9629 17.1824 14.8082C16.6415 14.4477 16.7765 13.3599 16.7765 12.5871C16.7765 10.1729 17.1316 9.16631 16.085 8.90574C15.7376 8.81917 15.482 8.76206 14.5938 8.75284C13.4537 8.74065 12.4887 8.75641 11.9423 9.03245C11.5789 9.21599 11.2984 9.62499 11.4692 9.64849C11.6804 9.67764 12.1587 9.78146 12.4123 10.1375C12.7397 10.5968 12.7282 11.6284 12.7282 11.6284C12.7282 11.6284 12.9163 14.4703 12.2888 14.8234C11.8581 15.0655 11.2673 14.5712 9.99883 12.3111C9.34888 11.1533 8.85817 9.87367 8.85817 9.87367C8.85817 9.87367 8.76355 9.63451 8.59478 9.5066C8.38996 9.35163 8.10378 9.30225 8.10378 9.30225L5.0675 9.32277C5.0675 9.32277 4.61169 9.33586 4.44437 9.54022C4.29551 9.72196 4.43254 10.098 4.43254 10.098C4.43254 10.098 6.80965 15.8324 9.5012 18.7222C11.9692 21.3717 14.7718 21.1977 14.7718 21.1977Z" fill="white"/>
<defs>
<linearGradient id="paint0_linear" x1="15" y1="29.1235" x2="15" y2="0" gradientUnits="userSpaceOnUse">
<stop stop-color="#4D76A1"/>
<stop offset="1" stop-color="#5FAAD2"/>
</linearGradient>
</defs>
</svg>
