<svg width="16" height="16" viewBox="0 0 16 16" fill="none" xmlns="http://www.w3.org/2000/svg">
    <style>
        .border{
            fill: #081744;
        }
        .fill{
            fill: #E90B54;
        }
        @media (prefers-color-scheme: dark) {
            .border{
                fill: #FFFFFF;
            }
            .fill{
                fill: #FFDE00;
            }
        }
    </style>
    <path class="border" d="M8.0121 4.65159e-05C12.3906 0.00377116 16.0023 3.53194 16 8.00895C15.9977 12.4022 12.4511 16.1128 7.75934 15.9974C3.54149 15.894 -0.00511491 12.4473 5.5376e-06 7.98009C0.00512598 3.55102 3.6034 -0.014852 8.0121 4.65159e-05ZM13.9774 4.12788C13.2964 4.74989 12.6321 5.35654 11.9693 5.96506C11.9372 5.99439 11.9027 6.03955 11.8995 6.07959C11.8887 6.21275 12.2914 6.57543 12.4292 6.56938C12.9096 6.54936 13.295 6.73326 13.5361 7.14903C13.7675 7.5471 13.7633 7.96426 13.5073 8.35674C13.1568 8.89495 12.5228 9.0458 11.9623 8.73712C11.4419 8.45032 11.2352 7.78967 11.4777 7.22585C11.5084 7.15461 11.501 7.0317 11.4577 6.97071C11.2603 6.69509 11.0523 6.42598 10.8311 6.16898C10.7106 6.02838 10.7269 5.93573 10.8553 5.81887C11.4665 5.26389 12.0735 4.70473 12.6815 4.14604C12.9445 3.9044 13.2052 3.6609 13.4691 3.41647C12.5335 2.32934 11.4177 1.57883 10.057 1.16446C10.0472 1.24268 10.0347 1.29482 10.0347 1.34744C10.0337 2.99279 10.0324 4.63815 10.0393 6.28351C10.0398 6.38967 10.0924 6.50885 10.1548 6.59871C10.4322 6.99678 10.712 7.39346 11.0108 7.7757C11.2059 8.02478 11.3041 8.28132 11.2743 8.60303C11.2478 8.8875 11.2766 9.17709 11.2659 9.46389C11.2599 9.62638 11.3008 9.72834 11.4507 9.82146C11.9791 10.1502 12.1224 10.9137 11.7668 11.4147C11.3795 11.9608 10.6449 12.1005 10.1329 11.7257C9.43 11.2112 9.47748 10.2209 10.2227 9.76093C10.2935 9.71717 10.3912 9.63988 10.394 9.5747C10.4099 9.21062 10.4047 8.8456 10.3964 8.48105C10.395 8.41727 10.3545 8.34743 10.3149 8.29296C10.0361 7.90513 9.76423 7.51125 9.46678 7.13785C9.25591 6.87294 9.15583 6.60197 9.16234 6.25325C9.18376 5.10513 9.17026 3.95608 9.17026 2.80749C9.17026 2.25625 9.17538 1.70547 9.1642 1.15468C9.16281 1.07973 9.08926 0.949364 9.03526 0.941449C8.31235 0.835297 7.5885 0.838556 6.84697 0.951692C6.84697 1.05878 6.84697 1.15049 6.84697 1.24221C6.84697 2.89549 6.8372 4.5483 6.85488 6.20157C6.85861 6.54657 6.78832 6.83197 6.56721 7.09269C6.41778 7.26915 6.30932 7.48238 6.14873 7.64627C5.65949 8.1463 5.49192 8.73479 5.57245 9.42059C5.59246 9.59193 5.62505 9.69296 5.78471 9.77909C6.25672 10.0338 6.45223 10.5682 6.30048 11.1186C6.17107 11.5869 5.67485 11.9571 5.18748 11.9487C4.68847 11.9398 4.21413 11.5725 4.07402 11.0864C3.93809 10.6143 4.13919 10.1031 4.5572 9.80283C4.63494 9.74696 4.7029 9.62358 4.70663 9.52861C4.72338 9.14124 4.70569 8.75248 4.71873 8.36512C4.72245 8.25059 4.76016 8.12116 4.82393 8.02711C5.06552 7.67001 5.33458 7.33107 5.57291 6.97211C5.73025 6.73466 5.97696 6.55076 5.9751 6.21414C5.96672 4.60789 5.97137 3.00118 5.97044 1.39446C5.97044 1.32229 5.95788 1.25059 5.94996 1.16772C5.89224 1.18122 5.86198 1.18634 5.83359 1.19566C4.59444 1.5914 3.5494 2.28744 2.66729 3.24002C2.52485 3.39366 2.57652 3.47653 2.705 3.59293C3.50984 4.32109 4.30676 5.05811 5.113 5.78441C5.26848 5.92455 5.29873 6.02279 5.14652 6.19412C4.89236 6.48092 4.66706 6.79332 4.43385 7.08943C4.65216 7.47167 4.68056 7.85764 4.50413 8.23895C4.26254 8.76087 3.66997 9.0025 3.09834 8.83815C2.60631 8.69662 2.22693 8.10533 2.29815 7.5904C2.37403 7.04194 2.87025 6.56146 3.4186 6.57543C3.68114 6.58195 3.83662 6.50001 3.96416 6.29702C4.01211 6.22019 4.07262 6.15129 4.13453 6.06842C3.42512 5.41893 2.72315 4.77643 2.01839 4.1316C0.595839 6.21601 0.358437 9.37869 2.02351 11.9217C3.50425 14.183 6.07239 15.1645 7.55825 15.0685C7.55825 14.7212 7.5522 14.3725 7.56104 14.0242C7.56476 13.8739 7.51077 13.7952 7.38089 13.7128C6.86373 13.385 6.73292 12.9013 6.89212 12.3635C7.05319 11.8197 7.51821 11.5525 8.11917 11.5837C8.55766 11.6065 9.01618 11.9771 9.12278 12.3947C9.26103 12.9357 9.05714 13.4395 8.58559 13.7384C8.52694 13.7756 8.44874 13.8441 8.44688 13.9004C8.43477 14.2929 8.44036 14.6858 8.44036 15.1319C10.9997 14.8898 12.9268 13.703 14.2041 11.5232C15.5936 9.15288 15.3665 6.18062 13.9774 4.12788ZM4.91889 10.7382C4.90306 10.9305 4.99337 11.0501 5.17212 11.0548C5.34528 11.059 5.47748 10.991 5.49471 10.7992C5.51147 10.6143 5.4044 10.51 5.23496 10.4789C5.06925 10.4486 4.93286 10.5692 4.91889 10.7382ZM11.0881 10.775C11.09 10.612 10.9606 10.477 10.799 10.4765C10.6077 10.4756 10.5086 10.5976 10.4992 10.7638C10.489 10.943 10.6105 11.0445 10.7883 11.058C10.9517 11.0706 11.0862 10.9375 11.0881 10.775ZM12.2453 7.731C12.2435 7.92096 12.3636 8.01268 12.526 8.03922C12.6722 8.06343 12.8142 7.90559 12.8183 7.74357C12.823 7.57038 12.7038 7.43955 12.5381 7.43722C12.3766 7.43489 12.2458 7.56619 12.2453 7.731ZM3.46282 7.43676C3.312 7.43257 3.15885 7.58015 3.16677 7.7324C3.17608 7.91351 3.29571 8.0299 3.4577 8.03549C3.62807 8.04154 3.73374 7.90699 3.75608 7.73892C3.77517 7.59552 3.61411 7.44095 3.46282 7.43676ZM7.99349 13.0302C8.14291 13.0321 8.28768 12.8882 8.2793 12.7318C8.27045 12.5665 8.1862 12.4548 8.00978 12.4497C7.82451 12.4445 7.72676 12.5539 7.71 12.7285C7.6951 12.8803 7.84313 13.0284 7.99349 13.0302Z"/>
    <path class="fill" d="M7.21991 2.45936C7.21991 2.32667 7.21991 2.21121 7.21991 2.09621C7.21991 1.65484 7.21991 1.64878 7.67423 1.6418C7.97355 1.63715 8.27333 1.65763 8.57311 1.6581C8.72579 1.65856 8.77839 1.72793 8.76861 1.87273C8.76117 1.98074 8.76396 2.08969 8.76815 2.19817C8.77467 2.36066 8.7728 2.50266 8.53633 2.44632C8.50189 2.43794 8.42554 2.5115 8.40553 2.56225C8.38132 2.62324 8.39482 2.6996 8.39482 2.76944C8.39436 4.48324 8.39715 6.19657 8.3911 7.91037C8.39063 8.10684 8.43206 8.23302 8.62105 8.3387C9.01719 8.55985 9.22713 9.1274 9.1061 9.54968C8.96459 10.0427 8.54518 10.3547 8.05873 10.3891C7.3428 10.4403 6.79398 9.81692 6.86102 9.1665C6.89779 8.81034 7.0663 8.51516 7.37818 8.33219C7.53645 8.23907 7.58067 8.12966 7.5802 7.95693C7.57508 6.22776 7.57741 4.4986 7.57695 2.76944C7.57648 2.43329 7.57508 2.43329 7.21991 2.45936ZM7.99217 8.9556C7.81249 8.95513 7.67144 9.09946 7.68029 9.28104C7.6896 9.47332 7.81807 9.57063 7.98658 9.59996C8.14159 9.62696 8.30545 9.44818 8.30824 9.27778C8.3115 9.09341 8.1765 8.95606 7.99217 8.9556Z"/>
    <path class="fill"  d="M13.6306 4.97729C14.5872 6.89176 14.685 8.81228 13.7908 10.7212C12.8128 12.8088 11.1184 13.9905 8.84442 14.3774C8.8002 14.1972 8.78112 14.0589 8.95474 13.9514C9.05017 13.8922 9.14653 13.8024 9.19354 13.7032C9.30852 13.4611 9.53149 13.4024 9.74934 13.3317C11.0448 12.9098 12.0424 12.1053 12.762 10.9577C13.1209 10.3855 13.3765 9.76765 13.484 9.09302C13.4998 8.99339 13.565 8.89003 13.6334 8.81181C14.2237 8.13951 14.2172 7.24793 13.5678 6.65431C13.3453 6.45086 13.2987 6.19386 13.1987 5.95362C13.018 5.5183 13.0339 5.51132 13.3951 5.18122C13.4621 5.12023 13.5324 5.0625 13.6306 4.97729Z"/>
    <path class="fill" d="M7.16167 14.3787C4.85793 13.9928 3.15422 12.7916 2.18226 10.6816C1.31039 8.78805 1.39884 6.87777 2.36567 4.97681C2.56071 5.15093 2.73527 5.28968 2.88516 5.4517C2.92985 5.50012 2.93078 5.6221 2.90704 5.69566C2.83768 5.90797 2.75157 6.11515 2.6594 6.31907C2.61704 6.41312 2.56118 6.51322 2.48437 6.57794C1.84059 7.11987 1.73399 8.04964 2.26512 8.69912C2.40151 8.8658 2.48437 9.03154 2.53371 9.24478C2.86096 10.6578 3.61878 11.7882 4.80812 12.6249C5.31179 12.9792 5.86433 13.2278 6.44946 13.4145C6.55513 13.448 6.64543 13.5444 6.73015 13.6245C6.83629 13.7251 6.91263 13.8657 7.03179 13.9406C7.21241 14.0542 7.19798 14.1934 7.16167 14.3787Z"/>
    <path class="fill" d="M3.31714 3.67784C3.95021 2.96271 4.70385 2.465 5.60831 2.08276C5.60831 2.37701 5.61762 2.63494 5.60086 2.89101C5.59713 2.94641 5.50776 3.01439 5.44305 3.04512C4.91425 3.29607 4.45714 3.64665 4.04657 4.05682C3.92042 4.18253 3.8478 4.18393 3.73189 4.05729C3.61273 3.92739 3.47168 3.81751 3.31714 3.67784Z"/>
    <path class="fill" d="M10.4012 2.09668C11.2949 2.46169 12.0299 2.97057 12.6784 3.66755C12.5164 3.82212 12.3711 3.97902 12.2045 4.10845C12.1607 4.14244 12.0225 4.12195 11.9764 4.07679C11.5546 3.66429 11.0882 3.31743 10.5627 3.04786C10.4961 3.01387 10.4133 2.93379 10.4086 2.86954C10.39 2.62651 10.4012 2.38115 10.4012 2.09668Z"/>
</svg>
