<svg width="18" height="18" viewBox="0 0 18 18" fill="none" xmlns="http://www.w3.org/2000/svg">
<path d="M9 18C13.9706 18 18 13.9706 18 9C18 4.02944 13.9706 0 9 0C4.02944 0 0 4.02944 0 9C0 13.9706 4.02944 18 9 18Z" fill="#F0F0F0"/>
<path d="M1.86048 3.5201C1.15353 4.43989 0.620453 5.50003 0.310059 6.65171H4.9921L1.86048 3.5201Z" fill="#0052B4"/>
<path d="M17.69 6.65206C17.3796 5.50041 16.8465 4.44027 16.1396 3.52048L13.0081 6.65206H17.69Z" fill="#0052B4"/>
<path d="M0.310059 11.3477C0.620488 12.4994 1.15356 13.5595 1.86048 14.4793L4.99199 11.3477H0.310059Z" fill="#0052B4"/>
<path d="M14.4795 1.86028C13.5597 1.15332 12.4996 0.620244 11.3479 0.309814V4.99182L14.4795 1.86028Z" fill="#0052B4"/>
<path d="M3.52051 16.1392C4.4403 16.8462 5.50044 17.3792 6.65209 17.6897V13.0077L3.52051 16.1392Z" fill="#0052B4"/>
<path d="M6.65205 0.309814C5.5004 0.620244 4.44027 1.15332 3.52051 1.86024L6.65205 4.99178V0.309814Z" fill="#0052B4"/>
<path d="M11.3477 17.6897C12.4993 17.3792 13.5594 16.8462 14.4792 16.1392L11.3477 13.0077V17.6897Z" fill="#0052B4"/>
<path d="M13.0081 11.3477L16.1396 14.4793C16.8465 13.5596 17.3796 12.4994 17.69 11.3477H13.0081Z" fill="#0052B4"/>
<path d="M17.9238 7.8261H10.174H10.1739V0.0761836C9.78964 0.0261563 9.39786 0 9 0C8.60207 0 8.21035 0.0261563 7.8261 0.0761836V7.82603V7.82606H0.0761836C0.0261563 8.21036 0 8.60214 0 9C0 9.39793 0.0261563 9.78964 0.0761836 10.1739H7.82603H7.82606V17.9238C8.21036 17.9738 8.60207 18 9 18C9.39786 18 9.78964 17.9739 10.1739 17.9238V10.174V10.1739H17.9238C17.9738 9.78964 18 9.39793 18 9C18 8.60214 17.9738 8.21035 17.9238 7.8261Z" fill="#D80027"/>
<path d="M11.3479 11.3479L15.364 15.364C15.5487 15.1793 15.7249 14.9863 15.893 14.7862L12.4547 11.3478H11.3479V11.3479Z" fill="#D80027"/>
<path d="M6.65213 11.3482H6.65206L2.63599 15.3643C2.82063 15.549 3.01367 15.7252 3.21378 15.8933L6.65213 12.4549V11.3482Z" fill="#D80027"/>
<path d="M6.65207 6.65237V6.6523L2.63596 2.63615C2.45125 2.82079 2.27505 3.01384 2.10693 3.21395L5.54532 6.65234H6.65207V6.65237Z" fill="#D80027"/>
<path d="M11.3479 6.65225L15.364 2.63607C15.1794 2.45136 14.9864 2.27515 14.7863 2.10707L11.3479 5.54546V6.65225Z" fill="#D80027"/>
</svg>
